<svg width="58" height="80" viewBox="0 0 58 80" fill="none" xmlns="http://www.w3.org/2000/svg">
<path fill-rule="evenodd" clip-rule="evenodd" d="M26.2318 0.144056C13.7345 1.46139 3.87823 10.2865 1.23443 22.5263C0.709393 24.9566 0.585781 29.9637 0.984524 32.6476C1.79239 38.0862 4.09415 42.974 7.86763 47.2634C9.82807 49.492 10.742 51.495 10.742 53.5631C10.742 56.8509 12.5624 59.3682 15.6167 60.3045C15.8806 60.3854 15.9298 60.6238 15.9298 61.8197C15.9298 63.232 15.9273 63.2397 15.3994 63.4238C14.4377 63.759 14.4933 65.2778 15.4765 65.5245C15.8974 65.63 15.9298 65.7134 15.9298 66.6921C15.9298 67.5973 15.8833 67.7461 15.5997 67.7461C14.4175 67.7461 14.4116 69.5243 15.5922 69.94C15.8119 70.0175 15.9015 70.3643 15.9675 71.3931C16.0734 73.0419 16.5682 73.9058 17.7738 74.5453C18.4428 74.9001 18.6079 75.0895 18.7031 75.6101C18.984 77.1485 20.6891 79.0159 22.385 79.6422C23.2776 79.9719 23.7959 80 28.9887 80C35.5104 80 35.8524 79.9369 37.5057 78.4286C38.4188 77.5956 39.3642 76.0559 39.3642 75.4015C39.3642 75.2054 39.7145 74.8618 40.2504 74.5319C41.4864 73.7715 41.9053 73.0208 42.0109 71.3774C42.0901 70.1425 42.1306 70.0312 42.5602 69.8679C43.125 69.6531 43.2935 69.4096 43.2971 68.8025C43.3001 68.2898 42.8109 67.7461 42.3465 67.7461C42.101 67.7461 42.0475 67.5577 42.0475 66.6921C42.0475 65.7134 42.0799 65.63 42.5009 65.5245C43.484 65.2778 43.5397 63.759 42.5779 63.4238C42.05 63.2397 42.0475 63.232 42.0475 61.8197C42.0475 60.6238 42.0967 60.3854 42.3606 60.3045C45.4384 59.3611 47.2233 56.9055 47.2325 53.6017C47.2385 51.483 48.0552 49.6987 50.1496 47.2283C55.0689 41.426 57.2509 35.6376 57.2509 28.3906C57.2509 21.9155 55.4068 16.3548 51.565 11.2452C50.3634 9.64698 49.929 9.39672 49.2426 9.90691C48.4909 10.4656 48.5374 10.9887 49.4421 12.1538C51.5133 14.8208 52.9902 17.6487 53.915 20.7175C54.8107 23.6898 55.0073 25.071 55.0073 28.3906C55.0073 35.1456 52.9075 40.6438 48.2999 45.9537C46.0652 48.529 45.1711 50.5628 44.9711 53.5245C44.806 55.9701 44.1835 57.0586 42.5021 57.8416L41.6003 58.2614L28.9887 58.2593C16.6792 58.2571 16.3577 58.2484 15.572 57.8922C13.8005 57.089 13.2341 56.1457 13.0414 53.6769C12.7849 50.3898 12.0452 48.6909 9.66474 45.9217C6.25047 41.9496 4.23153 37.8874 3.29451 33.1036C2.9235 31.2104 2.86178 26.1148 3.18647 24.1853C4.9961 13.4289 13.2146 4.9152 23.8592 2.76996C26.471 2.24367 31.2192 2.20736 33.8187 2.69376C37.6898 3.41826 41.4544 5.08478 44.6577 7.49173C46.0586 8.54449 47.116 8.36382 47.116 7.07188C47.116 6.44094 47.0156 6.34881 44.4913 4.66279C39.2045 1.13188 32.5301 -0.5198 26.2318 0.144056ZM28.5019 16.7281C28.3819 16.8045 27.8484 17.7893 27.3166 18.9168C24.3953 25.1099 24.5817 24.7704 24.0401 24.8838C23.3868 25.0205 18.2748 25.8205 17.0461 25.9783C16.3799 26.0638 16.0273 26.2103 15.8386 26.4797C15.2702 27.291 15.4505 27.5716 18.6131 30.7952C20.2857 32.5002 21.6542 33.9411 21.6542 33.9973C21.6542 34.2617 20.5362 41.2745 20.3841 41.964C20.2471 42.5854 20.2686 42.8337 20.4879 43.1686C21.0456 44.0197 21.3585 43.9274 25.3826 41.7248L29.1717 39.6511L32.9156 41.713C36.9134 43.9147 36.9295 43.921 37.5354 43.4965C38.0619 43.128 38.0497 42.6847 37.4099 38.9051C37.1222 37.2053 36.839 35.3717 36.7807 34.8306L36.6748 33.8467L39.719 30.7482C42.9377 27.472 43.1357 27.1532 42.4053 26.4228C42.2085 26.226 41.9873 26.0638 41.9134 26.0624C41.6984 26.0581 36.1678 25.2167 34.8856 24.9931L33.7163 24.7894L31.9362 20.9443C30.957 18.8295 30.0278 16.9832 29.8713 16.8415C29.5638 16.5632 28.854 16.5045 28.5019 16.7281ZM38.785 17.1653C38.0921 17.6997 36.1442 20.2683 36.1442 20.6476C36.1442 21.1737 36.7435 21.7717 37.2707 21.7717C37.848 21.7717 40.6164 18.717 40.6164 18.08C40.6164 17.3306 39.3746 16.7104 38.785 17.1653ZM18.792 17.6573C18.2153 18.234 18.3552 18.7666 19.4324 20.0943C20.8929 21.8942 21.422 22.1647 22.0737 21.4445C22.6512 20.8064 22.4451 20.1656 21.1859 18.6859C19.9104 17.1868 19.4573 16.992 18.792 17.6573ZM30.6083 23.3906C31.3355 24.9697 32.0634 26.4046 32.226 26.579C32.4439 26.813 33.3387 27.0248 35.6299 27.3845C37.3394 27.653 38.8508 27.9108 38.9885 27.9575C39.1508 28.0122 38.3796 28.9151 36.7972 30.5229C33.965 33.4004 34.156 32.7587 34.8369 37.1064C35.1024 38.8008 35.2748 40.2318 35.2201 40.2865C35.1655 40.3411 33.882 39.6876 32.3679 38.8341C30.8536 37.9806 29.4135 37.2824 29.1676 37.2826C28.9216 37.2826 27.4758 37.9787 25.9545 38.8295C22.8386 40.572 22.8839 40.5557 23.0014 39.8842C23.4583 37.2742 23.9798 33.8916 23.9798 33.5383C23.9798 33.2184 23.3249 32.417 21.5648 30.5829C20.2365 29.1988 19.1498 28.0185 19.1498 27.9602C19.1498 27.9017 19.3133 27.8539 19.5129 27.8539C20.9058 27.8539 25.7102 26.8852 26.0504 26.5357C26.2547 26.326 27.0139 24.8865 27.7377 23.337C28.4613 21.7874 29.1058 20.5195 29.1699 20.5195C29.2339 20.5195 29.8811 21.8114 30.6083 23.3906ZM14.8491 34.9919C12.8289 35.7431 12.7098 35.8277 12.7098 36.5086C12.7098 37.144 13.1558 37.6928 13.672 37.6928C13.8413 37.6928 14.7065 37.4391 15.5947 37.1289C17.6963 36.395 18.099 35.8134 17.2165 34.7859C16.8545 34.3644 16.4393 34.4005 14.8491 34.9919ZM40.7697 34.7694C39.9025 35.7554 40.3048 36.3942 42.2264 37.0817C44.6221 37.9386 45.3658 37.7733 45.2353 36.4127C45.1808 35.8431 45.1067 35.786 43.6869 35.2193C41.7263 34.4369 41.1415 34.3467 40.7697 34.7694ZM28.4651 43.7303C28.1035 44.0247 28.0838 44.1759 28.1321 46.273C28.1835 48.4972 28.1849 48.5032 28.6756 48.7775C29.118 49.0245 29.2171 49.0245 29.6595 48.7775C30.1502 48.5032 30.1516 48.4972 30.203 46.273C30.2513 44.1759 30.2316 44.0247 29.8701 43.7303C29.6586 43.558 29.3425 43.4172 29.1676 43.4172C28.9926 43.4172 28.6765 43.558 28.4651 43.7303ZM39.7091 60.6644C39.8352 60.8163 39.8973 61.3689 39.8651 62.0508L39.8114 63.1845L29.0334 63.2306L18.2553 63.2768V61.9634C18.2553 61.2412 18.309 60.5965 18.3747 60.531C18.6396 60.2659 39.4866 60.3963 39.7091 60.6644ZM39.8114 66.6728V67.6567L29.0334 67.7028L18.2553 67.749V66.6728V65.5966L29.0334 65.6427L39.8114 65.6889V66.6728ZM39.722 71.1348C39.722 72.8215 40.0089 72.755 32.7453 72.755C25.8184 72.755 25.7687 72.7632 25.7687 73.9178C25.7687 75.0525 25.9143 75.0806 31.8013 75.0806C37.6234 75.0806 37.4197 75.0287 36.5013 76.2775C35.49 77.6524 35.3721 77.6744 28.9887 77.6744C22.6052 77.6744 22.4873 77.6524 21.4761 76.2775C20.8093 75.3707 20.8093 75.245 21.4764 74.8653C21.9108 74.6181 22.012 74.4425 22.012 73.9362C22.012 73.0706 21.5102 72.755 20.1337 72.755C18.57 72.755 18.2553 72.4836 18.2553 71.1348V70.0717H28.9887H39.722V71.1348Z" fill="#FF4F4F"/>
</svg>
