<svg width="57" height="80" viewBox="0 0 57 80" fill="none" xmlns="http://www.w3.org/2000/svg">
<path fill-rule="evenodd" clip-rule="evenodd" d="M25.4828 0.144056C12.9854 1.46139 3.1292 10.2865 0.485408 22.5263C-0.0396308 24.9566 -0.163242 29.9637 0.235501 32.6476C1.04336 38.0862 3.34512 42.974 7.1186 47.2634C9.07905 49.492 9.99299 51.495 9.99299 53.5631C9.99299 56.8509 11.8134 59.3682 14.8677 60.3045C15.1316 60.3854 15.1808 60.6238 15.1808 61.8197C15.1808 63.232 15.1783 63.2397 14.6504 63.4238C13.6887 63.759 13.7443 65.2778 14.7275 65.5245C15.1484 65.63 15.1808 65.7134 15.1808 66.6921C15.1808 67.5973 15.1343 67.7461 14.8507 67.7461C13.6684 67.7461 13.6625 69.5243 14.8432 69.94C15.0629 70.0175 15.1525 70.3643 15.2185 71.3931C15.3244 73.0419 15.8192 73.9058 17.0247 74.5453C17.6938 74.9001 17.8589 75.0895 17.9541 75.6101C18.2349 77.1485 19.9401 79.0159 21.636 79.6422C22.5286 79.9719 23.0469 80 28.2396 80C34.7614 80 35.1034 79.9368 36.7567 78.4286C37.6698 77.5956 38.6152 76.0559 38.6152 75.4015C38.6152 75.2054 38.9655 74.8618 39.5014 74.5319C40.7374 73.7715 41.1563 73.0208 41.2619 71.3774C41.3411 70.1425 41.3815 70.0312 41.8112 69.8679C42.376 69.6531 42.5445 69.4096 42.5481 68.8025C42.5511 68.2898 42.0618 67.7461 41.5974 67.7461C41.352 67.7461 41.2985 67.5577 41.2985 66.6921C41.2985 65.7134 41.3309 65.63 41.7518 65.5245C42.735 65.2778 42.7906 63.759 41.8289 63.4238C41.301 63.2397 41.2985 63.232 41.2985 61.8197C41.2985 60.6238 41.3477 60.3854 41.6116 60.3045C44.6894 59.3611 46.4743 56.9055 46.4834 53.6017C46.4895 51.483 47.3061 49.6987 49.4006 47.2283C54.3198 41.426 56.5019 35.6376 56.5019 28.3906C56.5019 21.9155 54.6578 16.3548 50.8159 11.2452C49.6143 9.64698 49.18 9.39672 48.4936 9.90691C47.7419 10.4656 47.7884 10.9887 48.6931 12.1538C50.7642 14.8208 52.2411 17.6487 53.166 20.7175C54.0617 23.6898 54.2583 25.071 54.2583 28.3906C54.2583 35.1456 52.1585 40.6438 47.5509 45.9537C45.3162 48.529 44.4221 50.5628 44.2221 53.5245C44.057 55.97 43.4345 57.0586 41.7531 57.8416L40.8513 58.2614L28.2396 58.2593C15.9301 58.2571 15.6087 58.2484 14.823 57.8922C13.0515 57.089 12.4851 56.1457 12.2924 53.6769C12.0359 50.3898 11.2962 48.6909 8.91572 45.9217C5.50145 41.9496 3.48251 37.8874 2.54549 33.1036C2.17448 31.2104 2.11276 26.1148 2.43744 24.1853C4.24708 13.4289 12.4656 4.9152 23.1102 2.76996C25.722 2.24367 30.4702 2.20736 33.0696 2.69376C36.9408 3.41826 40.7053 5.08478 43.9087 7.49173C45.3096 8.54449 46.367 8.36381 46.367 7.07188C46.367 6.44094 46.2666 6.34881 43.7423 4.66279C38.4554 1.13188 31.7811 -0.5198 25.4828 0.144056ZM27.7529 16.7281C27.6329 16.8045 27.0994 17.7893 26.5676 18.9168C23.6463 25.1099 23.8327 24.7704 23.291 24.8838C22.6377 25.0205 17.5258 25.8205 16.297 25.9783C15.6308 26.0638 15.2783 26.2103 15.0895 26.4797C14.5212 27.291 14.7015 27.5716 17.8641 30.7952C19.5367 32.5002 20.9052 33.9411 20.9052 33.9973C20.9052 34.2617 19.7871 41.2745 19.6351 41.964C19.4981 42.5854 19.5195 42.8337 19.7388 43.1686C20.2966 44.0197 20.6095 43.9274 24.6336 41.7248L28.4226 39.6511L32.1666 41.713C36.1644 43.9147 36.1805 43.921 36.7864 43.4965C37.3129 43.128 37.3007 42.6847 36.6608 38.9051C36.3732 37.2053 36.09 35.3717 36.0317 34.8306L35.9258 33.8467L38.9699 30.7482C42.1887 27.472 42.3867 27.1532 41.6563 26.4228C41.4595 26.226 41.2382 26.0638 41.1644 26.0624C40.9493 26.0581 35.4188 25.2167 34.1365 24.9931L32.9673 24.7894L31.1872 20.9443C30.208 18.8295 29.2788 16.9832 29.1223 16.8415C28.8148 16.5632 28.1049 16.5045 27.7529 16.7281ZM38.0359 17.1653C37.3431 17.6997 35.3952 20.2683 35.3952 20.6476C35.3952 21.1737 35.9945 21.7717 36.5217 21.7717C37.0989 21.7717 39.8674 18.717 39.8674 18.08C39.8674 17.3306 38.6256 16.7104 38.0359 17.1653ZM18.043 17.6573C17.4662 18.234 17.6061 18.7666 18.6834 20.0943C20.1439 21.8942 20.673 22.1647 21.3247 21.4445C21.9022 20.8064 21.6961 20.1656 20.4369 18.6859C19.1614 17.1868 18.7083 16.992 18.043 17.6573ZM29.8593 23.3906C30.5865 24.9697 31.3144 26.4046 31.477 26.579C31.6949 26.813 32.5897 27.0248 34.8809 27.3845C36.5903 27.653 38.1018 27.9108 38.2395 27.9575C38.4018 28.0122 37.6306 28.9151 36.0481 30.5229C33.216 33.4004 33.407 32.7587 34.0879 37.1064C34.3533 38.8008 34.5258 40.2318 34.4711 40.2865C34.4165 40.3411 33.133 39.6876 31.6189 38.8341C30.1046 37.9806 28.6645 37.2824 28.4185 37.2826C28.1726 37.2826 26.7268 37.9787 25.2055 38.8295C22.0896 40.572 22.1349 40.5557 22.2524 39.8842C22.7093 37.2742 23.2308 33.8916 23.2308 33.5383C23.2308 33.2184 22.5758 32.417 20.8158 30.5829C19.4875 29.1988 18.4008 28.0185 18.4008 27.9602C18.4008 27.9017 18.5643 27.8539 18.7639 27.8539C20.1567 27.8539 24.9611 26.8852 25.3014 26.5357C25.5057 26.326 26.2649 24.8865 26.9887 23.337C27.7123 21.7874 28.3568 20.5195 28.4209 20.5195C28.4849 20.5195 29.1321 21.8114 29.8593 23.3906ZM14.1001 34.9919C12.0799 35.7431 11.9608 35.8277 11.9608 36.5086C11.9608 37.144 12.4067 37.6928 12.923 37.6928C13.0922 37.6928 13.9575 37.4391 14.8457 37.1289C16.9473 36.395 17.35 35.8134 16.4675 34.7859C16.1054 34.3644 15.6902 34.4005 14.1001 34.9919ZM40.0207 34.7694C39.1535 35.7554 39.5558 36.3943 41.4774 37.0817C43.8731 37.9386 44.6167 37.7733 44.4863 36.4127C44.4318 35.8431 44.3577 35.786 42.9379 35.2193C40.9772 34.4369 40.3925 34.3467 40.0207 34.7694ZM27.716 43.7303C27.3545 44.0248 27.3348 44.1759 27.3831 46.273C27.4345 48.4971 27.4359 48.5032 27.9266 48.7775C28.369 49.0245 28.4681 49.0245 28.9105 48.7775C29.4012 48.5032 29.4026 48.4971 29.4539 46.273C29.5022 44.1759 29.4826 44.0248 29.121 43.7303C28.9096 43.558 28.5935 43.4172 28.4185 43.4172C28.2436 43.4172 27.9275 43.558 27.716 43.7303ZM38.9601 60.6644C39.0862 60.8163 39.1483 61.3689 39.1161 62.0508L39.0624 63.1845L28.2844 63.2306L17.5063 63.2768V61.9634C17.5063 61.2412 17.56 60.5965 17.6256 60.531C17.8906 60.2659 38.7376 60.3963 38.9601 60.6644ZM39.0624 66.6728V67.6567L28.2844 67.7028L17.5063 67.749V66.6728V65.5966L28.2844 65.6427L39.0624 65.6889V66.6728ZM38.973 71.1348C38.973 72.8215 39.2599 72.755 31.9963 72.755C25.0694 72.755 25.0196 72.7632 25.0196 73.9178C25.0196 75.0525 25.1653 75.0806 31.0523 75.0806C36.8744 75.0806 36.6707 75.0287 35.7523 76.2775C34.741 77.6524 34.6231 77.6744 28.2396 77.6744C21.8562 77.6744 21.7383 77.6524 20.727 76.2775C20.0603 75.3707 20.0603 75.245 20.7274 74.8654C21.1617 74.6181 21.263 74.4425 21.263 73.9362C21.263 73.0706 20.7612 72.755 19.3846 72.755C17.821 72.755 17.5063 72.4836 17.5063 71.1348V70.0717H28.2396H38.973V71.1348Z" fill="white"/>
</svg>
