<svg width="56" height="56" viewBox="0 0 56 56" fill="none" xmlns="http://www.w3.org/2000/svg">
<path fill-rule="evenodd" clip-rule="evenodd" d="M3.73758 1.86879V3.73758H1.86879H0V4.67197V5.60637H1.86879H3.73758V7.47515V9.34394H4.67197H5.60637V7.47515V5.60637H7.47515H9.34394V4.67197V3.73758H7.47515H5.60637V1.86879V0H4.67197H3.73758V1.86879ZM45.3738 0.115398C41.7562 0.647185 38.729 3.34992 37.7082 6.95949C37.3489 8.22979 37.3476 10.3941 37.7053 11.7119C38.5685 14.893 41.1707 17.4951 44.3517 18.3584C45.6274 18.7046 47.812 18.7046 49.0877 18.3584C52.2687 17.4951 54.8709 14.893 55.7342 11.7119C56.0804 10.4362 56.0804 8.25164 55.7342 6.97595C54.501 2.43211 49.9799 -0.561688 45.3738 0.115398ZM26.4258 1.95323C26.0045 2.00556 25.9743 2.12878 26.1205 3.19563L26.1948 3.73758H27.0549H27.915V2.80318V1.86879L27.3602 1.88748C27.055 1.89775 26.6347 1.92742 26.4258 1.95323ZM48.971 2.2033C52.007 3.27856 53.9803 5.81999 54.1609 8.88702C54.5641 15.7382 46.3114 19.4523 41.4614 14.6022C39.9157 13.0566 39.303 11.5639 39.303 9.34394C39.303 7.71833 39.4254 7.21095 40.1618 5.78156C41.1093 3.94256 43.2867 2.35701 45.4349 1.9419C46.1349 1.80665 48.3037 1.96702 48.971 2.2033ZM29.8651 2.81299C29.8256 3.28393 29.8182 3.69413 29.8486 3.7245C29.9891 3.86501 31.4693 3.96183 31.5474 3.83569C31.6386 3.68805 31.8137 2.22456 31.748 2.15892C31.725 2.13579 31.308 2.0809 30.8216 2.03686L29.9369 1.95662L29.8651 2.81299ZM23.0095 2.36075C22.6561 2.42347 22.3269 2.51259 22.2778 2.55884C22.1777 2.65321 22.5252 4.32566 22.6426 4.31433C22.6837 4.31036 23.0591 4.24086 23.4767 4.15981L24.2359 4.01252L24.2155 3.61225C24.2043 3.39208 24.1617 2.98854 24.1207 2.71558C24.0385 2.16651 24.0625 2.1741 23.0095 2.36075ZM33.5915 3.40575C33.4876 3.86559 33.4171 4.25617 33.4345 4.27369C33.452 4.2912 33.8403 4.40917 34.2973 4.53578L35.1281 4.76599L35.3457 3.98893C35.6367 2.95023 35.6589 3.00571 34.8646 2.78391C33.7725 2.47906 33.8043 2.46353 33.5915 3.40575ZM19.2135 3.41241C18.828 3.54463 18.4938 3.6689 18.4706 3.68864C18.4023 3.74669 19.0672 5.37277 19.1593 5.37277C19.383 5.37277 20.6884 4.81587 20.6862 4.72149C20.6848 4.66216 20.5946 4.28513 20.486 3.88358C20.2615 3.0543 20.2595 3.0536 19.2135 3.41241ZM15.7309 4.9753C15.2929 5.20002 14.9512 5.42182 14.9717 5.46808C14.992 5.51433 15.1893 5.87547 15.41 6.2706L15.8114 6.98904L16.5988 6.59239L17.3863 6.19585L17.0217 5.37557C16.8213 4.92437 16.628 4.55774 16.5922 4.5609C16.5564 4.56405 16.1688 4.75058 15.7309 4.9753ZM43.7413 5.68591C42.7219 5.91483 41.8854 6.53983 41.4317 7.4115C41.088 8.07211 41.0894 9.33355 41.4347 9.9972C41.7121 10.5304 45.8327 14.5582 46.3704 14.8217C46.9051 15.0838 47.1854 14.8833 49.6649 12.4655C51.8856 10.2999 51.9745 10.1956 52.1585 9.53701C52.4913 8.34543 52.1912 7.33488 51.2457 6.46332C50.1209 5.42649 48.2594 5.38281 47.0911 6.36579L46.7336 6.66667L46.2063 6.26406C45.5292 5.74722 44.5212 5.51082 43.7413 5.68591ZM45.5972 8.15341C46.5798 9.08266 46.8891 9.0739 47.9083 8.08777C48.6906 7.33091 49.4383 7.25043 50.0456 7.85767C50.3728 8.18494 50.4576 8.36166 50.4592 8.71907C50.461 9.14737 50.3735 9.25331 48.6196 10.947C47.6068 11.925 46.7518 12.7249 46.7197 12.7246C46.6876 12.7242 45.8329 11.924 44.8204 10.9463C43.0681 9.25436 42.9796 9.14714 42.9809 8.71907C42.9819 8.36119 43.0662 8.18529 43.3939 7.85767C44.019 7.23256 44.7235 7.32705 45.5972 8.15341ZM8.40955 9.81114V11.2127H7.00796H5.60637V12.1471V13.0815H7.00796H8.40955V14.4831V15.8847H9.34394H10.2783V14.4831V13.0815H11.6799H13.0815V12.1471V11.2127H11.6799H10.2783V9.81114V8.40955H9.34394H8.40955V9.81114ZM17.8392 17.8738C15.532 18.4532 14.3133 21.0394 15.3762 23.1004L15.7407 23.807L15.1109 24.2408C14.3863 24.7397 13.7482 25.5531 13.3937 26.4295C13.1713 26.9793 13.1431 27.3177 13.1051 29.8833C13.0547 33.2911 13.0419 33.2418 14.1144 33.7764L14.8919 34.1638L14.9503 37.7846C15.0117 41.5967 15.0259 41.7046 15.4878 41.9152C15.8837 42.0955 21.4865 42.0981 21.8815 41.9181C22.3916 41.6857 22.4255 41.4243 22.4255 37.7192V34.2192L22.9394 33.9694C23.4521 33.7203 23.4541 33.7203 23.8446 33.9482L24.2359 34.1766L24.2943 37.791C24.3557 41.5965 24.3698 41.7047 24.8318 41.9152C25.2276 42.0955 30.8305 42.0981 31.2255 41.9181C31.7355 41.6857 31.7694 41.424 31.7694 37.723V34.227L32.2366 33.9886L32.7038 33.7502L33.171 33.9886L33.6382 34.227V37.723C33.6382 41.424 33.6721 41.6857 34.1821 41.9181C34.5719 42.0956 40.1797 42.0956 40.5694 41.9181C41.0794 41.6857 41.1133 41.4239 41.1133 37.727V34.2349L41.9149 33.8137C42.9933 33.247 42.9821 33.2848 42.9821 30.2117C42.9821 26.5216 42.6713 25.5612 41.0896 24.3628L40.3323 23.789L40.6921 23.0913C41.9281 20.6948 40.1195 17.8202 37.3758 17.8202C34.6247 17.8202 32.8234 20.6947 34.0654 23.103L34.4313 23.8122L33.9471 24.13C33.6808 24.3049 33.2901 24.6295 33.0788 24.8515L32.6946 25.255L32.2792 24.8272C32.0507 24.592 31.6641 24.2674 31.4201 24.1059L30.9763 23.8122L31.3422 23.103C32.5842 20.6947 30.7829 17.8202 28.0318 17.8202C25.2807 17.8202 23.4795 20.6947 24.7215 23.103L25.0873 23.8122L24.6032 24.13C24.3369 24.3049 23.9462 24.6295 23.7349 24.8515L23.3506 25.255L22.9353 24.8272C22.7067 24.592 22.3201 24.2674 22.0761 24.1059L21.6324 23.8122L21.9982 23.103C23.3899 20.4046 20.7882 17.1332 17.8392 17.8738ZM3.38227 19.3517C3.23768 19.7895 3.09798 20.2064 3.0717 20.278C3.04542 20.3496 3.17145 20.4401 3.35156 20.4792C3.53178 20.5182 3.92527 20.627 4.22591 20.7207L4.77277 20.8911L5.0017 20.2275C5.12772 19.8625 5.26333 19.485 5.30304 19.3886C5.37148 19.2229 5.16732 19.1168 3.83732 18.6263C3.68385 18.5697 3.59193 18.7162 3.38227 19.3517ZM19.6314 19.8879C20.8741 20.7253 20.8741 22.2568 19.6314 23.0943C18.4854 23.8666 16.8191 22.9168 16.8191 21.4911C16.8191 20.4792 17.6761 19.6223 18.6879 19.6223C19.066 19.6223 19.3603 19.7051 19.6314 19.8879ZM28.9753 19.8879C29.5807 20.2957 29.9006 20.8501 29.9006 21.4911C29.9006 23.3863 27.5081 24.0365 26.4286 22.4346C25.6562 21.2885 26.6061 19.6223 28.0318 19.6223C28.4099 19.6223 28.7042 19.7051 28.9753 19.8879ZM38.3193 19.8879C38.9246 20.2957 39.2446 20.8501 39.2446 21.4911C39.2446 23.3863 36.852 24.0365 35.7726 22.4346C35.0002 21.2885 35.95 19.6223 37.3758 19.6223C37.7538 19.6223 38.0482 19.7051 38.3193 19.8879ZM52.183 20.4951C51.751 20.6328 51.3721 20.771 51.341 20.8021C51.2938 20.8493 51.5224 21.9131 51.6815 22.3866C51.7222 22.5079 53.2845 22.2068 53.4445 22.0467C53.4844 22.0069 53.0478 20.2884 52.9896 20.2564C52.9781 20.25 52.615 20.3574 52.183 20.4951ZM2.34194 23.1941C2.26345 23.6811 2.22374 24.1041 2.25364 24.1341C2.34334 24.2237 3.86711 24.4372 3.93473 24.3696C3.99208 24.3124 4.32041 22.7325 4.28058 22.7057C4.23199 22.6728 2.68183 22.3087 2.59084 22.3087C2.53256 22.3087 2.42055 22.7071 2.34194 23.1941ZM52.8082 24.2044L52.0641 24.3184L52.1366 24.8482C52.1766 25.1396 52.2093 25.5284 52.2093 25.7122C52.2093 26.0341 52.2301 26.0462 52.7787 26.0462C53.0918 26.0462 53.5166 26.0125 53.7226 25.9714L54.0972 25.8964L54.0208 25.183C53.9227 24.2663 53.8604 24.0573 53.6906 24.0755C53.6146 24.0838 53.2176 24.1417 52.8082 24.2044ZM20.7413 25.4502C21.3632 25.7326 22.0191 26.417 22.2492 27.0229C22.3982 27.4158 22.4265 27.9435 22.3999 29.8422L22.3671 32.1782L21.5913 32.5713C21.121 32.8096 20.7645 33.0764 20.6861 33.2484C20.6011 33.4348 20.5567 34.6736 20.5567 36.8557V40.179H18.6879H16.8191V36.8557C16.8191 34.6222 16.7755 33.4368 16.6863 33.241C16.6051 33.0627 16.2421 32.7859 15.7519 32.5283L14.9503 32.1071L14.9529 29.7482C14.9557 27.1134 15.0238 26.8084 15.7769 26.0552C16.4749 25.3572 16.9123 25.2338 18.6879 25.2338C19.9738 25.2338 20.3526 25.2737 20.7413 25.4502ZM30.0853 25.4502C30.7071 25.7326 31.3631 26.417 31.5932 27.0229C31.7422 27.4158 31.7705 27.9435 31.7438 29.8422L31.711 32.1782L30.9352 32.5713C30.465 32.8096 30.1084 33.0764 30.03 33.2484C29.945 33.4348 29.9006 34.6736 29.9006 36.8557V40.179H28.0318H26.163V36.8557C26.163 34.6222 26.1195 33.4368 26.0302 33.241C25.9491 33.0627 25.5861 32.7859 25.0958 32.5283L24.2943 32.1071L24.2968 29.7482C24.2996 27.1134 24.3677 26.8084 25.1208 26.0552C25.8188 25.3572 26.2562 25.2338 28.0318 25.2338C29.3178 25.2338 29.6966 25.2737 30.0853 25.4502ZM39.4292 25.4502C40.0511 25.7326 40.707 26.417 40.9371 27.0229C41.0861 27.4158 41.1144 27.9435 41.0878 29.8422L41.0549 32.1782L40.2792 32.5713C39.8089 32.8096 39.4523 33.0764 39.374 33.2484C39.2889 33.4348 39.2446 34.6736 39.2446 36.8557V40.179H37.3758H35.507V36.8557C35.507 34.6222 35.4634 33.4368 35.3742 33.241C35.293 33.0627 34.93 32.7859 34.4398 32.5283L33.6382 32.1071L33.6408 29.7482C33.6436 27.1134 33.7117 26.8084 34.4648 26.0552C35.1628 25.3572 35.6002 25.2338 37.3758 25.2338C38.6617 25.2338 39.0405 25.2737 39.4292 25.4502ZM1.94611 26.5869C1.905 26.8356 1.87077 27.2625 1.87007 27.5354L1.86879 28.0318H2.80318H3.73758V27.1558C3.73758 26.3255 3.72391 26.2798 3.47478 26.2788C3.3303 26.2783 2.94393 26.2456 2.61642 26.2063L2.02074 26.1347L1.94611 26.5869ZM52.3261 28.8369C52.3261 29.8975 52.3291 29.9006 53.3715 29.9006H54.0475L54.1199 29.4626C54.1597 29.2218 54.1929 28.775 54.1936 28.4698L54.1949 27.915H53.2605H52.3261V28.8369ZM2.70437 29.9863L1.96305 30.0291L2.04445 30.87C2.14654 31.9231 2.14841 31.9249 3.09179 31.8238C3.99348 31.7272 3.99629 31.7235 3.88217 30.7197C3.78628 29.8769 3.85531 29.9199 2.70437 29.9863ZM52.0537 31.8521C52.022 31.9673 51.9624 32.2716 51.9212 32.5286C51.8801 32.7856 51.8202 33.085 51.7883 33.1941C51.727 33.4034 52.0931 33.5463 53.0954 33.7037L53.5727 33.7787L53.7086 32.956C53.7833 32.5035 53.8445 32.0837 53.8445 32.0232C53.8445 31.9626 53.5423 31.8777 53.1729 31.8343C52.8034 31.791 52.4136 31.7302 52.3063 31.6992C52.186 31.6644 52.0892 31.7232 52.0537 31.8521ZM3.38718 33.7203C2.96962 33.8178 2.61257 33.9115 2.59388 33.9286C2.5426 33.975 2.92279 35.4394 3.03176 35.6157C3.10873 35.7401 4.47259 35.4305 4.75326 35.2249C4.82381 35.1732 4.35042 33.5912 4.25768 33.5694C4.19648 33.5549 3.80474 33.6229 3.38718 33.7203ZM51.2175 35.4194C51.19 35.4997 51.0602 35.8545 50.9292 36.2078C50.7982 36.5611 50.691 36.8578 50.691 36.867C50.6908 36.9044 52.2194 37.4926 52.3167 37.4926C52.3745 37.4926 52.554 37.0993 52.7156 36.6186L53.0095 35.7445L52.2467 35.509C51.3516 35.2325 51.2836 35.2267 51.2175 35.4194ZM4.49677 37.3385C4.11133 37.4996 3.77974 37.647 3.75989 37.6661C3.72496 37.6999 4.39948 39.2446 4.48766 39.3329C4.52515 39.3702 5.93294 38.7074 6.0592 38.5931C6.14493 38.5153 5.43561 37.0255 5.31752 37.0355C5.25153 37.0411 4.88221 37.1774 4.49677 37.3385ZM48.0416 37.5644C47.727 37.7195 47.6028 37.9206 47.2336 38.8737C46.629 40.4343 46.0403 41.0227 44.4787 41.6278C43.3558 42.0628 42.9821 42.4011 42.9821 42.9821C42.9821 43.5632 43.3558 43.9015 44.4787 44.3364C46.0408 44.9418 46.6288 45.5299 47.2342 47.092C47.7646 48.461 48.1414 48.754 48.9925 48.4597C49.4467 48.3026 49.4813 48.2531 49.9252 47.1285C50.5603 45.5192 51.1325 44.9432 52.6983 44.3364C53.8212 43.9015 54.1949 43.5632 54.1949 42.9821C54.1949 42.4011 53.8212 42.0628 52.6983 41.6278C51.1292 41.0198 50.549 40.4366 49.9341 38.8499C49.5391 37.8305 49.4445 37.6815 49.1007 37.5379C48.6144 37.3347 48.5017 37.3375 48.0416 37.5644ZM6.16116 40.7189C5.79184 40.9415 5.48957 41.1658 5.48957 41.2172C5.48957 41.473 6.43891 42.7534 6.57136 42.6764C6.69085 42.6066 7.06075 42.3552 7.85674 41.8026C7.97727 41.7188 7.11751 40.3046 6.94956 40.3102C6.88532 40.3125 6.53048 40.4963 6.16116 40.7189ZM48.9713 41.0431C49.3332 41.6161 50.0902 42.3539 50.6637 42.6926C51.1418 42.9751 51.1415 42.977 50.5275 43.3649C49.9546 43.7268 49.2168 44.4838 48.878 45.0573C48.7553 45.265 48.6251 45.4349 48.5885 45.4349C48.5519 45.4349 48.4217 45.265 48.299 45.0573C47.9602 44.4838 47.2224 43.7268 46.6495 43.3649C46.0355 42.977 46.0352 42.9751 46.5133 42.6926C47.0868 42.3539 47.8438 41.6161 48.2057 41.0431C48.3841 40.7608 48.5564 40.5298 48.5885 40.5298C48.6206 40.5298 48.7929 40.7608 48.9713 41.0431ZM8.41013 43.7466C8.05716 44.0309 7.75279 44.31 7.73375 44.367C7.69439 44.4852 8.72479 45.7269 8.86226 45.7269C8.91202 45.7269 9.23053 45.4771 9.57018 45.1717C10.2649 44.547 10.2697 44.5996 9.43505 43.6607L9.05194 43.2297L8.41013 43.7466ZM10.8845 46.5883L10.294 47.2673L10.8343 47.7235C11.8131 48.55 11.7027 48.5475 12.3247 47.7558L12.8816 47.047L12.3683 46.5905C11.5112 45.8281 11.5457 45.8281 10.8845 46.5883ZM42.5209 47.5532C42.1708 47.8055 41.8614 48.035 41.8333 48.0631C41.8051 48.0913 42.0052 48.4567 42.278 48.8752L42.7736 49.6362L43.2575 49.2849C43.5236 49.0917 43.8699 48.8347 44.0271 48.7139L44.3128 48.4945L43.8057 47.837C43.1586 46.9984 43.2594 47.0206 42.5209 47.5532ZM51.446 47.7609C51.1038 47.9059 50.9742 48.0958 50.6818 48.8819C50.3421 49.7945 49.7779 50.353 48.8571 50.688C47.9685 51.0114 47.7178 51.269 47.7178 51.8589C47.7178 52.4498 47.9901 52.7329 48.8653 53.052C49.7739 53.3833 50.335 53.9441 50.6794 54.8651C51.0101 55.7493 51.2713 56 51.8617 56C52.3097 56 52.91 55.607 52.9102 55.3133C52.9102 55.2442 53.0653 54.86 53.2547 54.4595C53.6207 53.686 53.9343 53.4198 54.8957 53.0668C55.6681 52.7831 56 52.4229 56 51.8682C56 51.2672 55.7321 50.9865 54.8524 50.6658C53.9547 50.3385 53.3978 49.7797 53.0522 48.8602C52.6759 47.8589 52.117 47.4763 51.446 47.7609ZM13.8601 48.8918C13.3243 49.6633 13.3333 49.6963 14.2285 50.2473C15.0148 50.7312 14.9447 50.7586 15.5151 49.7435L15.8833 49.0881L15.1948 48.6631C14.3348 48.1323 14.3947 48.122 13.8601 48.8918ZM39.3673 49.5328C39.0173 49.7243 38.7138 49.8979 38.693 49.9187C38.6107 50.0011 39.3602 51.5085 39.4835 51.5085C39.5561 51.5085 39.9526 51.3199 40.3649 51.0894L41.1143 50.6702L40.8147 50.1842C40.6499 49.9169 40.4573 49.5799 40.3866 49.4353C40.2237 49.1017 40.1415 49.1095 39.3673 49.5328ZM17.1178 50.7944L16.7128 51.5987L17.5262 51.9624C18.4725 52.3855 18.5248 52.3932 18.6015 52.1217C18.6332 52.0093 18.7699 51.6415 18.9052 51.3044L19.1515 50.6916L18.3779 50.3408C17.9525 50.1479 17.586 49.9901 17.5636 49.9901C17.5411 49.9901 17.3406 50.3521 17.1178 50.7944ZM36.0705 50.969C35.2063 51.2943 35.2361 51.2286 35.5212 52.1769L35.7691 53.0013L36.6308 52.7115C37.5987 52.3861 37.5922 52.3998 37.226 51.4543C36.9122 50.6441 36.9224 50.6483 36.0705 50.969ZM52.4151 51.2805L53.0047 51.87L52.4398 52.4348L51.8751 52.9995L51.2908 52.4363L50.7065 51.8732L51.2535 51.2986C51.5544 50.9824 51.8061 50.7165 51.813 50.7074C51.8199 50.6984 52.0908 50.9561 52.4151 51.2805ZM20.6626 52.1017C20.3741 53.0516 20.3685 53.0418 21.3586 53.3114C22.2313 53.549 22.2294 53.5503 22.4523 52.5304L22.6247 51.7418L22.1455 51.6194C21.8819 51.5522 21.5138 51.447 21.3277 51.386C21.1414 51.3249 20.9721 51.2749 20.9515 51.2749C20.9307 51.2749 20.8008 51.6469 20.6626 52.1017ZM32.5666 51.9039C32.2019 51.9754 31.8679 52.0703 31.8242 52.1146C31.729 52.2109 31.8665 53.5067 31.9938 53.7127C32.0846 53.8598 33.5959 53.6873 33.7694 53.5101C33.8747 53.4024 33.485 51.8241 33.3462 51.7966C33.282 51.784 32.9311 51.8323 32.5666 51.9039ZM24.3266 52.9354C24.2615 53.4033 24.2265 53.8185 24.2487 53.8584C24.2709 53.8981 24.6658 53.9677 25.1262 54.013C26.1261 54.1116 26.1587 54.0813 26.1613 53.0525C26.1633 52.2294 26.198 52.2603 25.158 52.1561L24.4449 52.0848L24.3266 52.9354ZM28.0318 53.2778V54.2294L28.9834 54.1561C29.5067 54.1158 29.9449 54.0685 29.9571 54.0512C29.9693 54.0338 29.9556 53.6387 29.9268 53.1729L29.8742 52.3261H28.953H28.0318V53.2778Z" fill="#FF4F4F"/>
</svg>
