<svg width="70" height="80" viewBox="0 0 70 80" fill="none" xmlns="http://www.w3.org/2000/svg">
<path fill-rule="evenodd" clip-rule="evenodd" d="M5.42654 0.199027C3.49239 0.653132 1.72581 2.0928 0.874233 3.90904L0.403515 4.913L0.357604 39.7824C0.311693 74.4984 0.313123 74.656 0.675942 75.6256C1.36639 77.4708 2.6242 78.7493 4.57013 79.584C5.39027 79.9357 5.83705 79.943 29.254 79.99C45.2361 80.0222 53.3971 79.9768 53.9958 79.8525C56.1675 79.4014 57.7822 78.1425 58.7746 76.1267C59.3332 74.992 59.3469 74.9045 59.4159 72.0507C59.4545 70.4467 59.5224 69.1344 59.5663 69.1344C59.6104 69.1344 59.7889 69.2106 59.9631 69.3039C60.7461 69.7228 60.9167 69.5395 64.1508 64.803L65.3394 63.0622V49.1273C65.3394 33.9759 65.2825 34.7641 66.3204 35.5804C67.3824 36.416 67.4749 36.9422 67.4792 42.1766C67.4829 46.6714 67.5021 46.9447 67.8345 47.2455C68.2429 47.6151 68.9726 47.6607 69.3583 47.3407C69.7876 46.9843 69.7537 37.2386 69.3188 36.0254C68.789 34.5472 67.377 33.3031 65.6521 32.7949C65.3725 32.7125 65.3394 32.4224 65.3394 30.0528C65.3394 27.5655 65.3112 27.346 64.8809 26.4823C64.0614 24.8381 62.4558 23.7737 60.566 23.6221L59.4443 23.532V19.9342C59.4443 16.8316 59.4023 16.2754 59.139 15.8946C58.9711 15.6516 57.2599 13.6843 55.3365 11.5227C53.413 9.36116 50.3722 5.93197 48.5788 3.90243C46.7855 1.87271 45.1941 0.164371 45.0425 0.106313C44.8906 0.048076 39.0432 0.000378806 32.0481 0.000378806C17.8955 0.000378806 18.5356 -0.0546426 18.5356 1.16154C18.5356 2.37434 17.9619 2.32271 31.4273 2.32271H43.5251L43.5799 7.45863L43.6346 12.5946L44.1889 13.7641C44.9447 15.3594 45.6346 16.0881 47.161 16.9036L48.4579 17.5965L52.7899 17.6551L57.122 17.7137V21.1995V24.6853L56.5237 25.3843C55.3182 26.7926 55.3356 26.5821 55.3356 39.8301C55.3356 52.9838 55.2802 52.3466 56.4215 52.3394C57.4271 52.333 57.3824 52.7078 57.4792 43.4614L57.5686 34.9247L60.3822 34.8755L63.1958 34.8262V48.1396V61.4528H60.3375H57.4792V59.6791C57.4792 57.7067 57.3128 57.3441 56.4074 57.3441C55.4386 57.3441 55.3356 57.6431 55.3356 60.4551V63.0045L56.2402 64.2927L57.1447 65.5807L57.128 70.0403C57.117 73.0287 57.0421 74.661 56.9012 74.9881C56.5278 75.855 55.6705 76.8195 54.9132 77.2246L54.1744 77.6198L30.1563 77.667C3.21067 77.72 5.12428 77.812 3.73391 76.3954C2.35802 74.9934 2.45788 77.8395 2.45788 40.02C2.45788 2.37058 2.37214 4.96516 3.65835 3.71378C4.93867 2.46812 5.50014 2.3311 9.34038 2.32664C13.141 2.32217 13.5336 2.22053 13.5336 1.24068C13.5336 0.0986314 13.2003 -0.00158617 9.46953 0.018243C7.62739 0.0282468 5.80793 0.109528 5.42654 0.199027ZM51.2268 10.264C53.634 12.9781 55.633 15.2838 55.6689 15.3878C55.7807 15.7115 49.313 15.5005 48.5342 15.1552C47.5767 14.7306 46.6688 13.8529 46.2074 12.905C45.8276 12.1251 45.7897 11.7744 45.7238 8.43919C45.6402 4.21344 45.6857 3.95531 46.3708 4.76384C46.6345 5.07485 48.8196 7.54992 51.2268 10.264ZM9.81788 12.005C9.51205 12.3109 9.55278 13.3222 9.88416 13.6537C10.3515 14.1209 36.3943 14.0764 36.8185 13.6076C37.1919 13.195 37.1994 12.4374 36.8335 12.0713C36.4636 11.7015 10.1859 11.637 9.81788 12.005ZM10.1394 20.9508C9.80788 21.1191 9.6789 21.3446 9.63835 21.8264C9.53081 23.1079 8.82018 23.045 23.3987 23.045C36.1615 23.045 36.4062 23.0384 36.7569 22.6878C37.1756 22.269 37.2178 21.6472 36.8607 21.1588C36.6142 20.8217 36.2428 20.8108 23.5966 20.7681C13.3691 20.7336 10.4905 20.7727 10.1394 20.9508ZM62.0651 26.4244C63.0269 27.2111 63.1943 27.7901 63.195 30.3291L63.1958 32.7008L60.3822 32.6515L57.5686 32.6023V30.1587C57.5686 27.5064 57.6627 27.209 58.7628 26.3878C59.6874 25.6973 61.1971 25.7141 62.0651 26.4244ZM10.0167 29.9738C9.47865 30.3157 9.42487 31.2291 9.42487 40.0159C9.42487 48.8027 9.47865 49.7161 10.0167 50.058C10.1334 50.1323 18.9586 50.1941 29.6283 50.1958C48.1972 50.1983 49.0404 50.1845 49.3234 49.8717C49.8022 49.3428 49.7727 30.5637 49.2923 30.129C48.9926 29.8577 47.3714 29.8336 29.5972 29.8361C18.9446 29.8377 10.1334 29.8995 10.0167 29.9738ZM47.4328 38.9887C47.4586 42.7961 47.42 45.9111 47.3471 45.9111C47.2742 45.9111 44.6376 43.3386 41.4882 40.1946C37.1231 35.8372 35.6586 34.4781 35.3285 34.4781C34.9991 34.4781 33.6491 35.7214 29.7036 39.6586C26.8482 42.508 24.4325 44.8392 24.3349 44.8392C24.2376 44.8392 23.0346 43.7138 21.6618 42.3382C19.8085 40.4815 19.0527 39.8373 18.7276 39.8373C18.3984 39.8373 17.4768 40.6458 15.0183 43.0912L11.7472 46.345V39.2801C11.7472 35.3945 11.8012 32.1613 11.8671 32.0953C11.9332 32.0294 19.9518 31.9958 29.6865 32.0208L47.386 32.0664L47.4328 38.9887ZM23.3589 34.2497C20.4131 35.3566 21.0074 39.7948 24.1486 40.1488C27.411 40.5165 28.7618 35.8202 25.7982 34.4139C25.2008 34.1304 23.908 34.0432 23.3589 34.2497ZM24.9666 36.6217C25.1631 36.8182 25.3239 37.0594 25.3239 37.1577C25.3239 37.2559 25.1631 37.4971 24.9666 37.6936C24.7701 37.8901 24.529 38.0509 24.4307 38.0509C24.3324 38.0509 24.0913 37.8901 23.8948 37.6936C23.6983 37.4971 23.5375 37.2559 23.5375 37.1577C23.5375 37.0594 23.6983 36.8182 23.8948 36.6217C24.0913 36.4252 24.3324 36.2645 24.4307 36.2645C24.529 36.2645 24.7701 36.4252 24.9666 36.6217ZM45.8676 47.8304C45.8676 48.0076 43.9229 48.0548 36.6145 48.0548H27.3615L26.6669 47.3434C26.285 46.9522 26.0074 46.5911 26.0501 46.5411C26.0928 46.4911 28.2148 44.3567 30.7658 41.7982L35.4037 37.1466L40.6357 42.3761C43.5133 45.2526 45.8676 47.7069 45.8676 47.8304ZM21.4051 45.2015C22.7743 46.5797 23.8948 47.7855 23.8948 47.8811C23.8948 47.9895 21.9494 48.0548 18.7142 48.0548C15.8649 48.0548 13.5336 47.9954 13.5336 47.9231C13.5336 47.7407 18.5852 42.6955 18.7678 42.6955C18.8489 42.6955 20.0356 43.8233 21.4051 45.2015ZM10.1394 57.2155C9.8077 57.3834 9.6789 57.6085 9.63835 58.0904C9.52902 59.3951 8.11901 59.3091 29.6511 59.3091C48.6664 59.3091 48.909 59.3047 49.2618 58.9518C49.6805 58.5331 49.7227 57.9113 49.3656 57.4229C49.1176 57.0838 48.6849 57.0752 29.8491 57.0327C14.5978 56.9984 10.493 57.0365 10.1394 57.2155ZM61.2952 65.0256C60.6465 66.0012 60.4118 66.2332 60.2284 66.0809C59.9693 65.866 58.7297 64.0445 58.7297 63.8789C58.7297 63.8218 59.4941 63.7751 60.4282 63.7751H62.1268L61.2952 65.0256ZM9.88416 66.3781C9.55278 66.7097 9.51205 67.721 9.81788 68.0268C10.1871 68.396 48.9677 68.331 49.3384 67.9605C49.7173 67.5814 49.6932 66.7558 49.2923 66.3931C48.8039 65.9512 10.3259 65.9365 9.88416 66.3781Z" fill="#FF4F4F"/>
</svg>
