<svg width="70" height="80" viewBox="0 0 70 80" fill="none" xmlns="http://www.w3.org/2000/svg">
<path fill-rule="evenodd" clip-rule="evenodd" d="M5.08962 0.199027C3.15548 0.653132 1.3889 2.0928 0.537319 3.90904L0.0666007 4.913L0.02069 39.7824C-0.0252206 74.4984 -0.0237912 74.656 0.339028 75.6256C1.02947 77.4708 2.28728 78.7493 4.23322 79.584C5.05336 79.9357 5.50014 79.943 28.9171 79.99C44.8992 80.0222 53.0602 79.9768 53.6588 79.8525C55.8306 79.4014 57.4453 78.1425 58.4377 76.1267C58.9963 74.992 59.01 74.9045 59.079 72.0507C59.1176 70.4467 59.1855 69.1344 59.2294 69.1344C59.2735 69.1344 59.452 69.2106 59.6262 69.3039C60.4091 69.7228 60.5797 69.5395 63.8139 64.803L65.0025 63.0622V49.1273C65.0025 33.9759 64.9455 34.7641 65.9834 35.5804C67.0455 36.416 67.138 36.9422 67.1423 42.1766C67.146 46.6714 67.1652 46.9447 67.4976 47.2455C67.906 47.6151 68.6357 47.6607 69.0214 47.3407C69.4507 46.9843 69.4167 37.2386 68.9819 36.0254C68.4521 34.5472 67.0401 33.3031 65.3151 32.7949C65.0356 32.7125 65.0025 32.4224 65.0025 30.0528C65.0025 27.5655 64.9743 27.346 64.544 26.4823C63.7245 24.8381 62.1189 23.7737 60.2291 23.6221L59.1074 23.532V19.9342C59.1074 16.8316 59.0654 16.2754 58.8021 15.8946C58.6342 15.6516 56.923 13.6843 54.9995 11.5227C53.0761 9.36116 50.0353 5.93197 48.2419 3.90243C46.4485 1.87271 44.8572 0.164371 44.7055 0.106313C44.5537 0.048076 38.7062 0.000378806 31.7112 0.000378806C17.5586 0.000378806 18.1986 -0.0546426 18.1986 1.16154C18.1986 2.37434 17.625 2.32271 31.0904 2.32271H43.1882L43.243 7.45863L43.2977 12.5946L43.852 13.7641C44.6078 15.3594 45.2977 16.0881 46.824 16.9036L48.121 17.5965L52.453 17.6551L56.7851 17.7137V21.1995V24.6853L56.1868 25.3843C54.9813 26.7926 54.9986 26.5821 54.9986 39.8301C54.9986 52.9838 54.9433 52.3466 56.0846 52.3394C57.0902 52.333 57.0455 52.7078 57.1423 43.4614L57.2317 34.9247L60.0452 34.8755L62.8588 34.8262V48.1396V61.4528H60.0006H57.1423V59.6791C57.1423 57.7067 56.9758 57.3441 56.0705 57.3441C55.1017 57.3441 54.9986 57.6431 54.9986 60.4551V63.0045L55.9033 64.2927L56.8077 65.5807L56.7911 70.0403C56.78 73.0287 56.7052 74.661 56.5643 74.9881C56.1909 75.855 55.3336 76.8195 54.5763 77.2246L53.8375 77.6198L29.8194 77.667C2.87376 77.72 4.78736 77.812 3.397 76.3954C2.02111 74.9934 2.12097 77.8395 2.12097 40.02C2.12097 2.37058 2.03522 4.96516 3.32144 3.71378C4.60175 2.46812 5.16322 2.3311 9.00346 2.32664C12.804 2.32217 13.1967 2.22053 13.1967 1.24068C13.1967 0.0986314 12.8634 -0.00158617 9.13262 0.018243C7.29048 0.0282468 5.47102 0.109528 5.08962 0.199027ZM50.8899 10.264C53.2971 12.9781 55.2961 15.2838 55.332 15.3878C55.4438 15.7115 48.9761 15.5005 48.1973 15.1552C47.2397 14.7306 46.3319 13.8529 45.8705 12.905C45.4907 12.1251 45.4528 11.7744 45.3869 8.43919C45.3033 4.21344 45.3488 3.95531 46.0339 4.76384C46.2976 5.07485 48.4827 7.54992 50.8899 10.264ZM9.48097 12.005C9.17514 12.3109 9.21587 13.3222 9.54725 13.6537C10.0146 14.1209 36.0574 14.0764 36.4816 13.6076C36.855 13.195 36.8625 12.4374 36.4966 12.0713C36.1267 11.7015 9.84897 11.637 9.48097 12.005ZM9.80252 20.9508C9.47097 21.1191 9.34199 21.3446 9.30144 21.8264C9.19389 23.1079 8.48326 23.045 23.0618 23.045C35.8246 23.045 36.0693 23.0384 36.42 22.6878C36.8387 22.269 36.8809 21.6472 36.5238 21.1588C36.2773 20.8217 35.9059 20.8108 23.2597 20.7681C13.0322 20.7336 10.1536 20.7727 9.80252 20.9508ZM61.7282 26.4244C62.69 27.2111 62.8574 27.7901 62.8581 30.3291L62.8588 32.7008L60.0452 32.6515L57.2317 32.6023V30.1587C57.2317 27.5064 57.3258 27.209 58.4259 26.3878C59.3505 25.6973 60.8602 25.7141 61.7282 26.4244ZM9.6798 29.9738C9.14173 30.3157 9.08796 31.2291 9.08796 40.0159C9.08796 48.8027 9.14173 49.7161 9.6798 50.058C9.79645 50.1323 18.6217 50.1941 29.2913 50.1958C47.8603 50.1983 48.7035 50.1845 48.9865 49.8717C49.4652 49.3428 49.4358 30.5637 48.9554 30.129C48.6556 29.8577 47.0345 29.8336 29.2603 29.8361C18.6077 29.8377 9.79645 29.8995 9.6798 29.9738ZM47.0959 38.9887C47.1217 42.7961 47.0831 45.9111 47.0102 45.9111C46.9373 45.9111 44.3007 43.3386 41.1513 40.1946C36.7862 35.8372 35.3217 34.4781 34.9916 34.4781C34.6622 34.4781 33.3122 35.7214 29.3667 39.6586C26.5113 42.508 24.0956 44.8392 23.998 44.8392C23.9007 44.8392 22.6977 43.7138 21.3249 42.3382C19.4716 40.4815 18.7158 39.8373 18.3907 39.8373C18.0614 39.8373 17.1398 40.6458 14.6814 43.0912L11.4103 46.345V39.2801C11.4103 35.3945 11.4642 32.1613 11.5302 32.0953C11.5963 32.0294 19.6149 31.9958 29.3496 32.0208L47.0491 32.0664L47.0959 38.9887ZM23.0219 34.2497C20.0762 35.3566 20.6705 39.7948 23.8117 40.1488C27.0741 40.5165 28.4249 35.8202 25.4613 34.4139C24.8639 34.1304 23.5711 34.0432 23.0219 34.2497ZM24.6297 36.6217C24.8262 36.8182 24.987 37.0594 24.987 37.1577C24.987 37.2559 24.8262 37.4971 24.6297 37.6936C24.4332 37.8901 24.192 38.0509 24.0938 38.0509C23.9955 38.0509 23.7544 37.8901 23.5579 37.6936C23.3614 37.4971 23.2006 37.2559 23.2006 37.1577C23.2006 37.0594 23.3614 36.8182 23.5579 36.6217C23.7544 36.4252 23.9955 36.2645 24.0938 36.2645C24.192 36.2645 24.4332 36.4252 24.6297 36.6217ZM45.5307 47.8304C45.5307 48.0076 43.586 48.0548 36.2776 48.0548H27.0246L26.33 47.3434C25.9481 46.9522 25.6705 46.5911 25.7132 46.5411C25.7559 46.4911 27.8779 44.3567 30.4289 41.7982L35.0668 37.1466L40.2988 42.3761C43.1764 45.2526 45.5307 47.7069 45.5307 47.8304ZM21.0681 45.2015C22.4374 46.5797 23.5579 47.7855 23.5579 47.8811C23.5579 47.9895 21.6125 48.0548 18.3773 48.0548C15.528 48.0548 13.1967 47.9954 13.1967 47.9231C13.1967 47.7407 18.2483 42.6955 18.4309 42.6955C18.512 42.6955 19.6987 43.8233 21.0681 45.2015ZM9.80252 57.2155C9.47079 57.3834 9.34199 57.6085 9.30144 58.0904C9.19211 59.3951 7.7821 59.3091 29.3142 59.3091C48.3294 59.3091 48.572 59.3047 48.9249 58.9518C49.3436 58.5331 49.3857 57.9113 49.0286 57.4229C48.7807 57.0838 48.348 57.0752 29.5121 57.0327C14.2609 56.9984 10.1561 57.0365 9.80252 57.2155ZM60.9583 65.0256C60.3096 66.0012 60.0749 66.2332 59.8914 66.0809C59.6324 65.866 58.3928 64.0445 58.3928 63.8789C58.3928 63.8218 59.1572 63.7751 60.0913 63.7751H61.7899L60.9583 65.0256ZM9.54725 66.3781C9.21587 66.7097 9.17514 67.721 9.48097 68.0268C9.85022 68.396 48.6308 68.331 49.0015 67.9605C49.3804 67.5814 49.3563 66.7558 48.9554 66.3931C48.467 65.9512 9.98902 65.9365 9.54725 66.3781Z" fill="white"/>
</svg>
