<svg width="174" height="39" viewBox="0 0 174 39" fill="none" xmlns="http://www.w3.org/2000/svg">
<path fill-rule="evenodd" clip-rule="evenodd" d="M14.3516 7.58748C13.9731 7.70547 13.676 7.97351 11.3477 10.2972C8.57267 13.0666 8.61548 13.0277 8.33717 13.0297C7.58077 13.0349 7.20839 12.1485 7.72127 11.5634C8.93398 10.1799 7.72111 8.15528 5.98851 8.67073C5.6055 8.78466 5.36443 8.99722 3.45553 10.9051C2.06128 12.2987 1.31172 13.1099 1.2451 13.2972C0.768356 14.6386 1.91275 15.9733 3.26174 15.6492C3.63403 15.5597 3.81211 15.4302 4.60845 14.6692C5.42421 13.8896 5.5599 13.7922 5.82951 13.7922C6.40496 13.7922 6.83864 14.3454 6.67305 14.868C6.64519 14.9561 5.20104 16.4583 3.4638 18.2062C1.72665 19.9541 0.238842 21.5125 0.157612 21.6693C-0.222023 22.402 0.114464 23.507 0.84224 23.9174C1.54587 24.3142 2.20964 24.2508 2.90077 23.7205C3.52975 23.2381 4.22493 23.3972 4.39144 24.0617C4.48483 24.4346 4.37185 24.6395 3.71129 25.2954C2.92517 26.0761 2.73915 26.4062 2.73915 27.0205C2.73915 28.0593 3.42665 28.7633 4.44092 28.7633C5.22569 28.7633 5.16211 28.8199 11.4953 22.4821C14.8039 19.1712 17.5953 16.4309 17.6983 16.3927C18.1867 16.2117 18.7825 16.6784 18.7825 17.2421C18.7825 17.5359 18.5356 17.7974 13.177 23.1776C10.0941 26.273 7.53365 28.8818 7.48721 28.9748C7.21684 29.517 7.30702 30.3485 7.69147 30.8575C8.13874 31.4498 9.17488 31.6835 9.83561 31.3412C9.9914 31.2605 11.2696 30.048 12.676 28.6467C14.0824 27.2455 15.3072 26.0657 15.3979 26.0251C16.1501 25.6879 16.846 26.7312 16.3034 27.3824C15.8446 27.933 15.7065 28.4171 15.836 29.0216C16.0657 30.0948 17.2354 30.6743 18.2336 30.2094C18.449 30.109 19.3053 29.3142 20.5979 28.0149C22.3844 26.2191 22.6423 25.9258 22.7756 25.5395C23.2629 24.1266 21.7824 22.7939 20.429 23.4272C20.2432 23.5141 19.7873 23.8967 19.4158 24.2773C18.445 25.2718 18.1016 25.409 17.613 24.9971C17.3262 24.7554 17.2178 24.4078 17.3347 24.1049C17.3782 23.9921 18.8178 22.4915 20.5338 20.7703C22.2498 19.049 23.7116 17.5265 23.7822 17.387C24.6961 15.5807 22.5371 14.0421 20.9503 15.3689C20.4625 15.7767 19.7294 15.5423 19.5759 14.9295C19.4879 14.5783 19.6122 14.3614 20.3115 13.646C21.0711 12.8688 21.253 12.5487 21.2612 11.9738C21.2808 10.6176 19.8272 9.7478 18.6872 10.4336C18.4842 10.5558 15.6582 13.3253 12.4074 16.5881C9.15648 19.8509 6.40454 22.5564 6.29198 22.6004C5.79067 22.7963 5.18787 22.337 5.18787 21.7591C5.18787 21.4628 5.41999 21.2172 10.7572 15.866C15.0353 11.5766 16.366 10.1938 16.4971 9.90141C17.1102 8.53396 15.8108 7.13251 14.3516 7.58748Z" fill="#FF4F4F"/>
<path d="M48.9707 25.3691C48.6198 25.5195 48.2796 25.7201 47.9502 25.9707C47.6208 26.2142 47.2878 26.4827 46.9512 26.7764C46.6146 27.07 46.2637 27.3815 45.8984 27.7109C45.5404 28.0332 45.1501 28.3555 44.7275 28.6777C44.3122 28.9928 43.8574 29.2936 43.3633 29.5801C42.8691 29.8737 42.3213 30.1279 41.7197 30.3428C41.1253 30.5648 40.4665 30.7402 39.7432 30.8691C39.027 30.998 38.2321 31.0625 37.3584 31.0625C36.3916 31.0625 35.5179 30.8656 34.7373 30.4717C33.9639 30.085 33.3014 29.5622 32.75 28.9033C32.1986 28.2373 31.7725 27.4674 31.4717 26.5938C31.1781 25.7129 31.0312 24.7891 31.0312 23.8223C31.0312 23.1634 31.1029 22.458 31.2461 21.7061C31.3893 20.9469 31.5934 20.1771 31.8584 19.3965C32.1305 18.6087 32.46 17.8245 32.8467 17.0439C33.2334 16.2633 33.6702 15.515 34.1572 14.7988C34.6514 14.0827 35.1921 13.4202 35.7793 12.8115C36.3665 12.1956 36.9932 11.6621 37.6592 11.2109C38.3252 10.7526 39.027 10.3945 39.7646 10.1367C40.5023 9.87891 41.2686 9.75 42.0635 9.75C42.5791 9.75 43.1019 9.8431 43.6318 10.0293C44.1618 10.2083 44.638 10.4876 45.0605 10.8672C45.4831 11.2467 45.8268 11.7266 46.0918 12.3066C46.3639 12.8867 46.5 13.5706 46.5 14.3584C46.5 14.8883 46.4141 15.4255 46.2422 15.9697C46.0775 16.5068 45.8483 17.026 45.5547 17.5273C45.2611 18.0215 44.9137 18.487 44.5127 18.9238C44.1188 19.3607 43.6927 19.7402 43.2344 20.0625C42.776 20.3776 42.2998 20.6283 41.8057 20.8145C41.3115 21.0007 40.8174 21.0938 40.3232 21.0938C39.6715 21.0938 39.1846 21.0078 38.8623 20.8359C38.54 20.6569 38.3789 20.4027 38.3789 20.0732C38.3789 20.016 38.3753 19.9479 38.3682 19.8691C38.3682 19.7904 38.3682 19.708 38.3682 19.6221C38.3682 19.4932 38.3753 19.3607 38.3896 19.2246C38.404 19.0814 38.4326 18.9525 38.4756 18.8379C38.5186 18.7233 38.5794 18.6302 38.6582 18.5586C38.7441 18.487 38.8587 18.4512 39.002 18.4512C39.0879 18.4512 39.1631 18.4655 39.2275 18.4941C39.292 18.5156 39.3636 18.5407 39.4424 18.5693C39.5212 18.598 39.6143 18.6266 39.7217 18.6553C39.8363 18.6768 39.9795 18.6875 40.1514 18.6875C40.6097 18.6875 41.0716 18.5872 41.5371 18.3867C42.0098 18.1862 42.4323 17.9033 42.8047 17.5381C43.1842 17.1729 43.4922 16.7396 43.7285 16.2383C43.972 15.7298 44.0938 15.1712 44.0938 14.5625C44.0938 14.2402 44.0508 13.9359 43.9648 13.6494C43.8789 13.3558 43.7393 13.1016 43.5459 12.8867C43.3525 12.6647 43.1019 12.4893 42.7939 12.3604C42.4932 12.2243 42.1243 12.1562 41.6875 12.1562C41.1719 12.1562 40.667 12.2708 40.1729 12.5C39.6859 12.722 39.2168 13.0264 38.7656 13.4131C38.3145 13.7998 37.8848 14.2581 37.4766 14.7881C37.0755 15.318 36.7031 15.8874 36.3594 16.4961C36.0156 17.0977 35.7041 17.7279 35.4248 18.3867C35.1527 19.0384 34.9199 19.6901 34.7266 20.3418C34.5332 20.9935 34.3828 21.6273 34.2754 22.2432C34.1751 22.8519 34.125 23.4141 34.125 23.9297C34.125 24.6673 34.2145 25.3118 34.3936 25.8633C34.5798 26.4076 34.8411 26.8623 35.1777 27.2275C35.5143 27.5928 35.9261 27.8649 36.4131 28.0439C36.9001 28.223 37.4479 28.3125 38.0566 28.3125C38.8158 28.3125 39.5212 28.2194 40.1729 28.0332C40.8317 27.8398 41.4583 27.5892 42.0527 27.2812C42.6471 26.9733 43.2201 26.626 43.7715 26.2393C44.3301 25.8525 44.8851 25.4658 45.4365 25.0791C45.9951 24.6852 46.5609 24.3128 47.1338 23.9619C47.7139 23.6038 48.3262 23.3031 48.9707 23.0596V25.3691ZM47.2837 26.7549C47.2837 26.4398 47.3017 26.0745 47.3375 25.6592C47.3733 25.2367 47.4198 24.7926 47.4771 24.3271C47.5416 23.8617 47.6132 23.389 47.692 22.9092C47.7779 22.4222 47.8674 21.9603 47.9605 21.5234C48.0536 21.0866 48.1467 20.6855 48.2398 20.3203C48.3329 19.9551 48.426 19.6543 48.5191 19.418C48.5764 19.2604 48.6337 19.1351 48.691 19.042C48.7483 18.9489 48.8127 18.8773 48.8843 18.8271C48.9631 18.7699 49.0562 18.734 49.1636 18.7197C49.2782 18.6982 49.4179 18.6875 49.5826 18.6875C49.7688 18.6875 49.912 18.6982 50.0123 18.7197C50.1197 18.734 50.1985 18.777 50.2486 18.8486C50.2987 18.9131 50.3274 19.0098 50.3345 19.1387C50.3489 19.2676 50.356 19.443 50.356 19.665C50.356 19.93 50.356 20.2523 50.356 20.6318C50.356 21.0042 50.3632 21.373 50.3775 21.7383H50.4957C50.6389 21.4518 50.8 21.1331 50.9791 20.7822C51.1581 20.4242 51.3658 20.0911 51.6021 19.7832C51.8384 19.4753 52.107 19.2174 52.4078 19.0098C52.7086 18.7949 53.0559 18.6875 53.4498 18.6875C53.5858 18.6875 53.7183 18.7126 53.8472 18.7627C53.9761 18.8057 54.0871 18.8701 54.1802 18.9561C54.2805 19.042 54.3593 19.1494 54.4166 19.2783C54.4739 19.4001 54.5025 19.5397 54.5025 19.6973C54.5025 19.819 54.4846 19.9909 54.4488 20.2129C54.413 20.4277 54.3736 20.6569 54.3306 20.9004C54.2877 21.1367 54.2483 21.3695 54.2125 21.5986C54.1767 21.8206 54.1587 22.0068 54.1587 22.1572C54.1587 22.415 54.1838 22.6299 54.2339 22.8018C54.2841 22.9736 54.3485 23.1133 54.4273 23.2207C54.5132 23.321 54.6063 23.3926 54.7066 23.4355C54.814 23.4785 54.925 23.5 55.0396 23.5C55.3619 23.5 55.6949 23.4284 56.0386 23.2852C56.3824 23.1419 56.6975 22.9808 56.9839 22.8018C57.3205 22.5941 57.65 22.3577 57.9722 22.0928L57.8111 24.6064C57.6249 24.7282 57.4136 24.8643 57.1773 25.0146C56.941 25.165 56.6867 25.3083 56.4146 25.4443C56.1496 25.5732 55.8703 25.6842 55.5767 25.7773C55.2903 25.8633 54.9966 25.9062 54.6959 25.9062C54.1587 25.9062 53.7255 25.7988 53.3961 25.584C53.0666 25.362 52.8052 25.0755 52.6119 24.7246C52.4185 24.3665 52.2753 23.9691 52.1822 23.5322C52.0891 23.0882 52.0139 22.6406 51.9566 22.1895H51.7847L49.8619 27.5498C49.7616 27.8291 49.6649 28.0618 49.5718 28.248C49.4859 28.4271 49.3964 28.5739 49.3033 28.6885C49.2102 28.8031 49.1099 28.8854 49.0025 28.9355C48.8951 28.9785 48.7769 29 48.648 29C48.3544 29 48.1181 28.9391 47.939 28.8174C47.76 28.6885 47.6203 28.5202 47.5201 28.3125C47.427 28.0977 47.3625 27.8577 47.3267 27.5928C47.2981 27.3206 47.2837 27.0413 47.2837 26.7549ZM60.6359 29C59.9627 29 59.3719 28.8783 58.8634 28.6348C58.3621 28.3913 57.9432 28.0654 57.6066 27.6572C57.27 27.2419 57.0157 26.7656 56.8439 26.2285C56.6792 25.6842 56.5968 25.1149 56.5968 24.5205C56.5968 24.1195 56.6362 23.6969 56.715 23.2529C56.7937 22.8018 56.9119 22.3613 57.0695 21.9316C57.2342 21.502 57.4383 21.0938 57.6818 20.707C57.9252 20.3132 58.2081 19.9694 58.5304 19.6758C58.8598 19.375 59.2251 19.1387 59.6261 18.9668C60.0343 18.7878 60.4855 18.6982 60.9796 18.6982C61.3807 18.6982 61.753 18.7627 62.0968 18.8916C62.4405 19.0205 62.7377 19.2031 62.9884 19.4395C63.2462 19.6686 63.4467 19.9479 63.59 20.2773C63.7332 20.6068 63.8048 20.9756 63.8048 21.3838C63.8048 21.8278 63.6938 22.2718 63.4718 22.7158C63.257 23.1598 62.9562 23.5788 62.5695 23.9727C62.1827 24.3665 61.7208 24.7174 61.1837 25.0254C60.6538 25.3333 60.0773 25.5732 59.4542 25.7451C59.5616 25.9385 59.6655 26.0996 59.7657 26.2285C59.8732 26.3574 59.9806 26.4577 60.088 26.5293C60.1954 26.6009 60.3064 26.651 60.421 26.6797C60.5428 26.7083 60.6717 26.7227 60.8077 26.7227C61.2374 26.7227 61.6886 26.6367 62.1612 26.4648C62.6411 26.293 63.1066 26.0781 63.5577 25.8203C64.0089 25.5625 64.435 25.2832 64.8361 24.9824C65.2371 24.6745 65.5773 24.3844 65.8566 24.1123L67.2423 25.5518C66.6121 26.2035 65.9425 26.7799 65.2335 27.2812C64.9256 27.4961 64.5926 27.7074 64.2345 27.915C63.8836 28.1227 63.5112 28.3089 63.1173 28.4736C62.7306 28.6312 62.326 28.7601 61.9034 28.8604C61.4881 28.9535 61.0655 29 60.6359 29ZM59.2071 23.9512C59.465 23.9512 59.7443 23.8867 60.045 23.7578C60.353 23.6217 60.6359 23.4499 60.8937 23.2422C61.1586 23.0345 61.3807 22.8089 61.5597 22.5654C61.7387 22.3219 61.8282 22.0856 61.8282 21.8564C61.8282 21.5342 61.7674 21.2692 61.6456 21.0615C61.531 20.8538 61.3878 20.75 61.2159 20.75C60.908 20.75 60.643 20.8073 60.421 20.9219C60.2062 21.0365 60.0236 21.1868 59.8732 21.373C59.7299 21.5521 59.6118 21.7598 59.5187 21.9961C59.4327 22.2253 59.3647 22.458 59.3146 22.6943C59.2716 22.9307 59.243 23.1598 59.2286 23.3818C59.2143 23.6038 59.2071 23.7936 59.2071 23.9512ZM77.1462 26.3682C76.9815 26.5973 76.7595 26.8659 76.4802 27.1738C76.208 27.4818 75.9001 27.7754 75.5563 28.0547C75.2126 28.334 74.8438 28.5703 74.4499 28.7637C74.056 28.957 73.6621 29.0537 73.2682 29.0537C72.7956 29.0537 72.4017 28.9033 72.0866 28.6025C71.7715 28.2946 71.4994 27.8506 71.2702 27.2705C71.0983 27.471 70.8871 27.6751 70.6364 27.8828C70.3858 28.0905 70.11 28.2803 69.8093 28.4521C69.5156 28.6169 69.2077 28.7529 68.8854 28.8604C68.5632 28.9678 68.2409 29.0215 67.9186 29.0215C67.5749 29.0215 67.2383 28.9535 66.9089 28.8174C66.5866 28.6742 66.3001 28.4736 66.0495 28.2158C65.7988 27.9508 65.5983 27.6322 65.4479 27.2598C65.2975 26.8802 65.2223 26.4541 65.2223 25.9814C65.2223 25.4443 65.2975 24.8929 65.4479 24.3271C65.5983 23.7614 65.806 23.21 66.071 22.6729C66.336 22.1286 66.6475 21.6165 67.0055 21.1367C67.3708 20.6569 67.7682 20.238 68.1979 19.8799C68.6276 19.5218 69.0788 19.2389 69.5514 19.0312C70.0313 18.8164 70.5182 18.709 71.0124 18.709C71.1771 18.709 71.306 18.7412 71.3991 18.8057C71.4922 18.8701 71.5674 18.9453 71.6247 19.0312C71.6891 19.11 71.75 19.1888 71.8073 19.2676C71.8646 19.3464 71.9362 19.4036 72.0221 19.4395C72.1081 19.4753 72.194 19.5003 72.28 19.5146C72.3731 19.5218 72.4662 19.5254 72.5593 19.5254C72.638 19.5254 72.7168 19.5254 72.7956 19.5254C72.8815 19.5182 72.9639 19.5146 73.0427 19.5146C73.1501 19.5146 73.2503 19.5254 73.3434 19.5469C73.4365 19.5684 73.5189 19.6149 73.5905 19.6865C73.6621 19.7581 73.7158 19.8584 73.7516 19.9873C73.7946 20.1162 73.8161 20.2917 73.8161 20.5137C73.8161 20.8574 73.7803 21.2406 73.7087 21.6631C73.6371 22.0785 73.5583 22.5081 73.4723 22.9521C73.3864 23.389 73.3076 23.8294 73.236 24.2734C73.1644 24.7103 73.1286 25.1257 73.1286 25.5195C73.1286 25.8561 73.1572 26.1211 73.2145 26.3145C73.279 26.5007 73.4115 26.5938 73.612 26.5938C73.7624 26.5938 73.9199 26.5579 74.0846 26.4863C74.2494 26.4076 74.4141 26.3073 74.5788 26.1855C74.7507 26.0638 74.919 25.9277 75.0837 25.7773C75.2555 25.6198 75.4167 25.4587 75.5671 25.2939C75.918 24.9072 76.2725 24.4704 76.6305 23.9834L77.1462 26.3682ZM67.9723 25.5195C67.9723 25.6986 67.9831 25.874 68.0046 26.0459C68.0332 26.2106 68.0798 26.361 68.1442 26.4971C68.2087 26.626 68.2946 26.7334 68.402 26.8193C68.5095 26.8981 68.6455 26.9375 68.8102 26.9375C69.0752 26.9375 69.3151 26.8229 69.53 26.5938C69.7448 26.3646 69.931 26.0889 70.0886 25.7666C70.2461 25.4443 70.3714 25.1113 70.4645 24.7676C70.5648 24.4238 70.6292 24.1374 70.6579 23.9082L71.3132 20.75C71.0195 20.75 70.7331 20.8252 70.4538 20.9756C70.1745 21.1188 69.9095 21.3158 69.6589 21.5664C69.4154 21.8171 69.1898 22.1035 68.9821 22.4258C68.7744 22.748 68.5954 23.0882 68.445 23.4463C68.2946 23.7972 68.1764 24.1517 68.0905 24.5098C68.0117 24.8678 67.9723 25.2044 67.9723 25.5195ZM85.2561 26.5938C84.5686 26.9948 83.9563 27.3457 83.4192 27.6465C82.8821 27.9473 82.4023 28.1979 81.9797 28.3984C81.5644 28.599 81.192 28.7493 80.8625 28.8496C80.5403 28.9499 80.2467 29 79.9817 29C79.4374 29 78.9576 28.8353 78.5422 28.5059C78.1269 28.1764 77.7795 27.7038 77.5002 27.0879C77.2209 26.4648 77.0097 25.7129 76.8664 24.832C76.7304 23.9512 76.6623 22.9593 76.6623 21.8564C76.6623 21.4268 76.6802 20.9684 76.7161 20.4814C76.7519 19.9945 76.802 19.5111 76.8664 19.0312C76.6516 19.0026 76.4833 18.9775 76.3616 18.9561C76.247 18.9274 76.1217 18.9023 75.9856 18.8809C75.8567 18.8522 75.6884 18.8236 75.4807 18.7949C75.2802 18.7663 74.9866 18.7305 74.5998 18.6875C74.428 18.666 74.2955 18.6266 74.2024 18.5693C74.1093 18.5049 74.0412 18.4333 73.9983 18.3545C73.9553 18.2686 73.9302 18.1826 73.9231 18.0967C73.9159 18.0036 73.9123 17.9248 73.9123 17.8604C73.9123 17.7171 73.984 17.6097 74.1272 17.5381C74.2633 17.4593 74.4423 17.402 74.6643 17.3662C74.8791 17.3304 75.1155 17.3125 75.3733 17.3125C75.6383 17.3053 75.8889 17.3053 76.1252 17.3125C76.3687 17.3197 76.5836 17.3268 76.7698 17.334C76.9631 17.334 77.0956 17.3268 77.1672 17.3125C77.3606 16.3457 77.6041 15.4111 77.8977 14.5088C78.1985 13.5993 78.5315 12.7936 78.8967 12.0918C79.2691 11.3828 79.6737 10.8171 80.1106 10.3945C80.5474 9.96484 81.0058 9.75 81.4856 9.75C81.7935 9.75 82.0728 9.83594 82.3235 10.0078C82.5813 10.1797 82.7997 10.4089 82.9787 10.6953C83.1578 10.9818 83.2939 11.3184 83.387 11.7051C83.4872 12.0846 83.5373 12.4821 83.5373 12.8975C83.5373 13.2484 83.4872 13.6208 83.387 14.0146C83.2867 14.4014 83.1506 14.7988 82.9787 15.207C82.8069 15.6081 82.6028 16.0163 82.3664 16.4316C82.1373 16.847 81.8938 17.2588 81.636 17.667C81.7004 17.6742 81.8078 17.6813 81.9582 17.6885C82.1086 17.6885 82.2805 17.6921 82.4739 17.6992C82.6744 17.7064 82.8892 17.7171 83.1184 17.7314C83.3476 17.7386 83.5696 17.7458 83.7844 17.7529C83.9993 17.7601 84.1998 17.7673 84.386 17.7744C84.5722 17.7816 84.7261 17.7887 84.8479 17.7959C84.9911 17.8031 85.095 17.8747 85.1594 18.0107C85.2239 18.1468 85.2561 18.3187 85.2561 18.5264C85.2561 18.777 85.1845 18.9811 85.0412 19.1387C84.898 19.2962 84.7405 19.375 84.5686 19.375H80.4436C80.2359 19.6615 80.0246 19.9443 79.8098 20.2236C79.6021 20.4958 79.4088 20.7428 79.2297 20.9648C79.2011 21.4089 79.176 21.8457 79.1545 22.2754C79.1474 22.4616 79.1402 22.6549 79.133 22.8555C79.1259 23.0488 79.1187 23.2422 79.1116 23.4355C79.1044 23.6289 79.0972 23.8151 79.0901 23.9941C79.0901 24.1732 79.0901 24.3379 79.0901 24.4883C79.0901 24.875 79.1259 25.2008 79.1975 25.4658C79.2691 25.7308 79.373 25.9492 79.509 26.1211C79.6451 26.2858 79.8098 26.4076 80.0032 26.4863C80.2037 26.5579 80.4257 26.5938 80.6692 26.5938C80.8196 26.5938 81.0058 26.5579 81.2278 26.4863C81.4569 26.4147 81.704 26.318 81.969 26.1963C82.2411 26.0674 82.524 25.917 82.8176 25.7451C83.1184 25.5732 83.412 25.387 83.6985 25.1865C83.9921 24.9788 84.2714 24.764 84.5364 24.542C84.8013 24.3128 85.0412 24.0801 85.2561 23.8438V26.5938ZM81.8186 12.9941C81.8186 12.9154 81.8114 12.8294 81.7971 12.7363C81.7899 12.6361 81.7685 12.543 81.7327 12.457C81.6968 12.3711 81.6396 12.2995 81.5608 12.2422C81.4892 12.1849 81.3853 12.1562 81.2493 12.1562C81.0631 12.1562 80.8733 12.321 80.6799 12.6504C80.4937 12.9798 80.3111 13.4023 80.1321 13.918C79.9602 14.4264 79.7955 14.9886 79.6379 15.6045C79.4875 16.2204 79.3479 16.8184 79.219 17.3984C79.3264 17.4128 79.4338 17.4271 79.5412 17.4414C79.6487 17.4486 79.7597 17.4593 79.8743 17.4736C80.0891 17.1084 80.3111 16.7145 80.5403 16.292C80.7766 15.8623 80.9879 15.4434 81.1741 15.0352C81.3603 14.6198 81.5142 14.2331 81.636 13.875C81.7577 13.5169 81.8186 13.2233 81.8186 12.9941ZM91.9051 26.7119C91.6473 26.9482 91.325 27.2025 90.9383 27.4746C90.5587 27.7396 90.1469 27.9867 89.7029 28.2158C89.2589 28.4378 88.8042 28.624 88.3387 28.7744C87.8803 28.9248 87.4435 29 87.0281 29C86.6557 29 86.3406 28.9499 86.0828 28.8496C85.8322 28.7422 85.6281 28.5954 85.4705 28.4092C85.313 28.223 85.1984 27.9974 85.1268 27.7324C85.0623 27.4603 85.0301 27.1631 85.0301 26.8408C85.0301 26.3896 85.0802 25.8669 85.1805 25.2725C85.2879 24.6709 85.4168 24.0514 85.5672 23.4141C85.7176 22.7695 85.8751 22.1286 86.0398 21.4912C86.2117 20.8538 86.3621 20.2666 86.491 19.7295C86.5411 19.5433 86.6414 19.3857 86.7918 19.2568C86.9422 19.1208 87.1105 19.0133 87.2967 18.9346C87.49 18.8486 87.687 18.7878 87.8875 18.752C88.0952 18.709 88.2814 18.6875 88.4461 18.6875C88.7469 18.6875 88.951 18.7448 89.0584 18.8594C89.1658 18.9668 89.2195 19.1136 89.2195 19.2998C89.2195 19.4574 89.1837 19.6865 89.1121 19.9873C89.0405 20.2809 88.951 20.6175 88.8436 20.9971C88.7361 21.3695 88.6216 21.7741 88.4998 22.2109C88.3781 22.6406 88.2635 23.0739 88.1561 23.5107C88.0486 23.9404 87.9591 24.363 87.8875 24.7783C87.8159 25.1865 87.7801 25.5553 87.7801 25.8848C87.7801 26.207 87.8159 26.4648 87.8875 26.6582C87.9591 26.8444 88.1059 26.9375 88.3279 26.9375C88.5857 26.9375 88.8722 26.848 89.1873 26.6689C89.5024 26.4899 89.8211 26.2751 90.1434 26.0244C90.4656 25.7666 90.7807 25.5016 91.0887 25.2295C91.3966 24.9574 91.6688 24.7246 91.9051 24.5312V26.7119ZM87.1033 15.6689C87.1033 15.5042 87.1391 15.318 87.2107 15.1104C87.2824 14.9027 87.3969 14.7093 87.5545 14.5303C87.7192 14.3441 87.9341 14.1901 88.199 14.0684C88.4712 13.9395 88.8077 13.875 89.2088 13.875C89.4594 13.875 89.6958 13.9036 89.9178 13.9609C90.1398 14.0182 90.3331 14.1077 90.4979 14.2295C90.6626 14.3441 90.7915 14.498 90.8846 14.6914C90.9848 14.8848 91.035 15.1139 91.035 15.3789C91.035 15.6224 90.9956 15.8587 90.9168 16.0879C90.838 16.3171 90.7127 16.5212 90.5408 16.7002C90.3689 16.8792 90.1505 17.026 89.8855 17.1406C89.6277 17.248 89.3162 17.3018 88.951 17.3018C88.3208 17.3018 87.8553 17.1549 87.5545 16.8613C87.2537 16.5605 87.1033 16.1631 87.1033 15.6689ZM91.5931 25.5195C91.5716 24.9824 91.5502 24.5169 91.5287 24.123C91.5072 23.722 91.4857 23.3604 91.4642 23.0381C91.4499 22.7158 91.4392 22.4186 91.432 22.1465C91.4248 21.8743 91.4212 21.5951 91.4212 21.3086C91.4212 20.571 91.4535 19.998 91.5179 19.5898C91.5895 19.1745 91.7399 18.9489 91.9691 18.9131L93.2582 18.709C93.294 18.7018 93.3262 18.6982 93.3548 18.6982C93.3907 18.6911 93.4265 18.6875 93.4623 18.6875C93.7058 18.6875 93.892 18.7591 94.0209 18.9023C94.1569 19.0456 94.2285 19.2103 94.2357 19.3965L93.8168 26.1963L93.9671 26.1855L96.7923 19.4502C96.8138 19.3499 96.8604 19.2533 96.932 19.1602C97.0036 19.0671 97.0967 18.9883 97.2113 18.9238C97.3259 18.8522 97.4512 18.7949 97.5873 18.752C97.7305 18.709 97.8809 18.6875 98.0384 18.6875C98.4538 18.6875 98.7868 18.7734 99.0375 18.9453C99.2881 19.11 99.4134 19.3249 99.4134 19.5898C99.4134 19.7904 99.3848 19.9801 99.3275 20.1592C99.2774 20.3382 99.2022 20.5352 99.1019 20.75C99.0088 20.9577 98.8942 21.1904 98.7582 21.4482C98.6293 21.7061 98.486 22.0104 98.3285 22.3613C98.2783 22.4902 98.2354 22.6227 98.1996 22.7588C98.1638 22.8805 98.1315 23.0202 98.1029 23.1777C98.0814 23.3281 98.0707 23.4857 98.0707 23.6504C98.0707 23.8223 98.0921 23.9906 98.1351 24.1553C98.1781 24.32 98.2533 24.4704 98.3607 24.6064C98.4681 24.7354 98.6149 24.8392 98.8011 24.918C98.9873 24.9967 99.2272 25.0361 99.5209 25.0361C99.7357 25.0361 99.9828 24.9824 100.262 24.875C100.549 24.7604 100.817 24.6315 101.068 24.4883C101.361 24.3236 101.662 24.1374 101.97 23.9297V26.4541C101.497 26.7549 101.007 26.9948 100.498 27.1738C99.9971 27.3529 99.5173 27.4424 99.0589 27.4424C98.6722 27.4424 98.3249 27.3851 98.017 27.2705C97.7162 27.1488 97.4584 26.9876 97.2435 26.7871C97.0358 26.5866 96.8711 26.361 96.7494 26.1104C96.6348 25.8597 96.5739 25.5983 96.5668 25.3262C96.3591 25.7559 96.1227 26.1963 95.8578 26.6475C95.5928 27.0986 95.3171 27.5068 95.0306 27.8721C94.7513 28.2373 94.4684 28.5381 94.182 28.7744C93.9027 29.0036 93.6377 29.1182 93.3871 29.1182C92.9717 29.1182 92.6494 29.0143 92.4203 28.8066C92.1911 28.5918 92.0192 28.3232 91.9046 28.001C91.7972 27.6787 91.7256 27.3278 91.6898 26.9482C91.6612 26.5687 91.6361 26.207 91.6146 25.8633L91.5931 25.5195ZM105.418 29C104.745 29 104.154 28.8783 103.645 28.6348C103.144 28.3913 102.725 28.0654 102.389 27.6572C102.052 27.2419 101.798 26.7656 101.626 26.2285C101.461 25.6842 101.379 25.1149 101.379 24.5205C101.379 24.1195 101.418 23.6969 101.497 23.2529C101.576 22.8018 101.694 22.3613 101.851 21.9316C102.016 21.502 102.22 21.0938 102.464 20.707C102.707 20.3132 102.99 19.9694 103.312 19.6758C103.642 19.375 104.007 19.1387 104.408 18.9668C104.816 18.7878 105.268 18.6982 105.762 18.6982C106.163 18.6982 106.535 18.7627 106.879 18.8916C107.223 19.0205 107.52 19.2031 107.77 19.4395C108.028 19.6686 108.229 19.9479 108.372 20.2773C108.515 20.6068 108.587 20.9756 108.587 21.3838C108.587 21.8278 108.476 22.2718 108.254 22.7158C108.039 23.1598 107.738 23.5788 107.351 23.9727C106.965 24.3665 106.503 24.7174 105.966 25.0254C105.436 25.3333 104.859 25.5732 104.236 25.7451C104.344 25.9385 104.448 26.0996 104.548 26.2285C104.655 26.3574 104.763 26.4577 104.87 26.5293C104.977 26.6009 105.088 26.651 105.203 26.6797C105.325 26.7083 105.454 26.7227 105.59 26.7227C106.019 26.7227 106.471 26.6367 106.943 26.4648C107.423 26.293 107.889 26.0781 108.34 25.8203C108.791 25.5625 109.217 25.2832 109.618 24.9824C110.019 24.6745 110.359 24.3844 110.639 24.1123L112.024 25.5518C111.394 26.2035 110.725 26.7799 110.016 27.2812C109.708 27.4961 109.375 27.7074 109.017 27.915C108.666 28.1227 108.293 28.3089 107.899 28.4736C107.513 28.6312 107.108 28.7601 106.685 28.8604C106.27 28.9535 105.848 29 105.418 29ZM103.989 23.9512C104.247 23.9512 104.526 23.8867 104.827 23.7578C105.135 23.6217 105.418 23.4499 105.676 23.2422C105.941 23.0345 106.163 22.8089 106.342 22.5654C106.521 22.3219 106.61 22.0856 106.61 21.8564C106.61 21.5342 106.549 21.2692 106.428 21.0615C106.313 20.8538 106.17 20.75 105.998 20.75C105.69 20.75 105.425 20.8073 105.203 20.9219C104.988 21.0365 104.806 21.1868 104.655 21.373C104.512 21.5521 104.394 21.7598 104.301 21.9961C104.215 22.2253 104.147 22.458 104.097 22.6943C104.054 22.9307 104.025 23.1598 104.011 23.3818C103.996 23.6038 103.989 23.7936 103.989 23.9512Z" fill="#FF4F4F"/>
<path d="M120.478 20.3525C120.879 19.8512 121.244 19.4502 121.573 19.1494C121.91 18.8415 122.243 18.6875 122.572 18.6875C122.995 18.6875 123.371 18.7806 123.7 18.9668C124.03 19.153 124.309 19.4001 124.538 19.708C124.767 20.016 124.943 20.3704 125.064 20.7715C125.186 21.1725 125.247 21.5915 125.247 22.0283C125.247 22.3936 125.233 22.7409 125.204 23.0703C125.175 23.3926 125.122 23.7113 125.043 24.0264C124.971 24.3343 124.868 24.6423 124.731 24.9502C124.603 25.2581 124.431 25.5768 124.216 25.9062C124.474 25.7559 124.735 25.609 125 25.4658C125.265 25.3226 125.53 25.165 125.795 24.9932C126.067 24.8213 126.339 24.6315 126.611 24.4238C126.884 24.209 127.163 23.9583 127.449 23.6719L128.276 25.4443C127.883 25.8024 127.489 26.1139 127.095 26.3789C126.708 26.6439 126.307 26.8766 125.892 27.0771C125.483 27.2705 125.054 27.4388 124.603 27.582C124.159 27.7253 123.686 27.8542 123.185 27.9688C123.063 28.0905 122.895 28.2122 122.68 28.334C122.472 28.4557 122.264 28.5667 122.057 28.667C121.82 28.7816 121.566 28.8926 121.294 29H121.025C120.417 29 119.812 28.9176 119.21 28.7529C118.616 28.5811 118.075 28.3913 117.588 28.1836C117.022 27.9473 116.481 27.6751 115.966 27.3672C115.987 26.7871 116.03 26.1318 116.095 25.4014C116.152 24.7712 116.231 24.0299 116.331 23.1777C116.431 22.3184 116.567 21.3623 116.739 20.3096C116.854 19.6077 116.997 18.8271 117.169 17.9678C117.341 17.1012 117.541 16.2275 117.771 15.3467C118.007 14.4587 118.268 13.5993 118.555 12.7686C118.848 11.9307 119.171 11.1859 119.522 10.5342C119.88 9.88249 120.266 9.3597 120.682 8.96582C121.104 8.57194 121.559 8.375 122.046 8.375C122.59 8.375 123.027 8.4681 123.356 8.6543C123.686 8.84049 123.94 9.09473 124.119 9.41699C124.298 9.7321 124.416 10.1045 124.474 10.5342C124.531 10.9639 124.56 11.4222 124.56 11.9092C124.56 12.5895 124.431 13.2913 124.173 14.0146C123.922 14.738 123.593 15.4613 123.185 16.1846C122.776 16.9007 122.318 17.6025 121.81 18.29C121.308 18.9775 120.807 19.6257 120.306 20.2344L120.478 20.3525ZM121.444 21.1367C121.194 21.1367 120.943 21.1904 120.692 21.2979C120.442 21.3981 120.209 21.5592 119.994 21.7812C119.779 21.9961 119.59 22.2754 119.425 22.6191C119.26 22.9557 119.138 23.3639 119.06 23.8438C118.995 24.2305 118.941 24.5885 118.898 24.918C118.856 25.2402 118.82 25.5267 118.791 25.7773C118.762 26.0638 118.737 26.3324 118.716 26.583C118.952 26.6546 119.189 26.7155 119.425 26.7656C119.633 26.8086 119.851 26.848 120.08 26.8838C120.309 26.9196 120.528 26.9375 120.735 26.9375C120.979 26.9375 121.201 26.8659 121.401 26.7227C121.602 26.5794 121.781 26.3896 121.939 26.1533C122.096 25.9098 122.232 25.6341 122.347 25.3262C122.461 25.0182 122.554 24.6995 122.626 24.3701C122.698 24.0335 122.751 23.7041 122.787 23.3818C122.823 23.0524 122.841 22.7516 122.841 22.4795C122.841 22.3005 122.819 22.1322 122.776 21.9746C122.741 21.8099 122.669 21.6667 122.562 21.5449C122.461 21.4232 122.318 21.3265 122.132 21.2549C121.953 21.1761 121.724 21.1367 121.444 21.1367ZM122.497 11.2969C122.497 11.2682 122.49 11.2074 122.476 11.1143C122.468 11.0212 122.443 10.9245 122.4 10.8242C122.365 10.724 122.311 10.6344 122.239 10.5557C122.168 10.4769 122.071 10.4375 121.949 10.4375C121.806 10.4375 121.656 10.5413 121.498 10.749C121.348 10.9495 121.197 11.2253 121.047 11.5762C120.897 11.9199 120.75 12.321 120.606 12.7793C120.463 13.2305 120.324 13.7067 120.188 14.208C120.051 14.7021 119.923 15.207 119.801 15.7227C119.686 16.2383 119.579 16.7288 119.479 17.1943C119.385 17.6527 119.303 18.0752 119.231 18.4619C119.16 18.8415 119.103 19.1494 119.06 19.3857C119.253 19.0133 119.468 18.6266 119.704 18.2256C119.948 17.8245 120.191 17.4092 120.435 16.9795C120.678 16.5426 120.914 16.0986 121.144 15.6475C121.38 15.1891 121.591 14.7236 121.777 14.251C121.971 13.7712 122.128 13.2878 122.25 12.8008C122.379 12.3066 122.461 11.8053 122.497 11.2969ZM130.038 29C129.651 29 129.289 28.8317 128.953 28.4951C128.623 28.1514 128.333 27.693 128.083 27.1201C127.839 26.5472 127.646 25.8848 127.503 25.1328C127.366 24.3737 127.298 23.5788 127.298 22.748C127.298 22.1107 127.345 21.4196 127.438 20.6748C127.531 19.9229 127.667 19.1494 127.846 18.3545C128.025 17.5596 128.237 16.7611 128.48 15.959C128.731 15.1569 129.01 14.387 129.318 13.6494C129.633 12.9118 129.973 12.2243 130.338 11.5869C130.704 10.9424 131.087 10.3838 131.488 9.91113C131.889 9.43132 132.308 9.05534 132.745 8.7832C133.182 8.51107 133.626 8.375 134.077 8.375C134.385 8.375 134.639 8.44661 134.839 8.58984C135.04 8.72591 135.198 8.90853 135.312 9.1377C135.427 9.36686 135.505 9.62826 135.548 9.92188C135.599 10.2083 135.624 10.502 135.624 10.8027C135.624 11.4759 135.545 12.1634 135.387 12.8652C135.237 13.5599 135.029 14.2617 134.764 14.9707C134.506 15.6725 134.206 16.3779 133.862 17.0869C133.518 17.7959 133.16 18.5013 132.788 19.2031C132.415 19.8978 132.039 20.5853 131.66 21.2656C131.287 21.9388 130.936 22.5977 130.607 23.2422C130.571 23.3138 130.532 23.4069 130.489 23.5215C130.453 23.6361 130.417 23.7614 130.381 23.8975C130.346 24.0264 130.31 24.166 130.274 24.3164C130.238 24.4668 130.21 24.6136 130.188 24.7568V24.9072C130.188 25.0934 130.206 25.276 130.242 25.4551C130.285 25.627 130.335 25.7845 130.392 25.9277C130.449 26.0638 130.51 26.1748 130.575 26.2607C130.639 26.3395 130.7 26.3789 130.757 26.3789C130.893 26.3789 131.047 26.3503 131.219 26.293C131.398 26.2357 131.585 26.1605 131.778 26.0674C131.978 25.9671 132.183 25.8561 132.39 25.7344C132.598 25.6055 132.798 25.4766 132.992 25.3477C133.443 25.0469 133.916 24.6995 134.41 24.3057L135.291 26.5615C134.653 27.0199 134.023 27.4281 133.4 27.7861C133.128 27.9365 132.845 28.0869 132.551 28.2373C132.265 28.3805 131.975 28.5094 131.681 28.624C131.388 28.7386 131.101 28.8317 130.822 28.9033C130.543 28.9678 130.281 29 130.038 29ZM130.048 20.4062C130.371 19.8333 130.711 19.1888 131.069 18.4727C131.434 17.7565 131.778 17.0189 132.1 16.2598C132.422 15.5007 132.702 14.7451 132.938 13.9932C133.174 13.234 133.325 12.5286 133.389 11.877C133.389 11.6693 133.382 11.4938 133.368 11.3506C133.361 11.2002 133.328 11.125 133.271 11.125C133.063 11.125 132.838 11.2611 132.594 11.5332C132.358 11.7982 132.118 12.1598 131.875 12.6182C131.638 13.0765 131.409 13.61 131.187 14.2188C130.972 14.8275 130.779 15.4756 130.607 16.1631C130.435 16.8506 130.299 17.5596 130.199 18.29C130.099 19.0133 130.048 19.7188 130.048 20.4062ZM145.506 26.3682C145.341 26.5973 145.119 26.8659 144.84 27.1738C144.568 27.4818 144.26 27.7754 143.916 28.0547C143.572 28.334 143.204 28.5703 142.81 28.7637C142.416 28.957 142.022 29.0537 141.628 29.0537C141.155 29.0537 140.762 28.9033 140.446 28.6025C140.131 28.2946 139.859 27.8506 139.63 27.2705C139.458 27.471 139.247 27.6751 138.996 27.8828C138.746 28.0905 138.47 28.2803 138.169 28.4521C137.875 28.6169 137.568 28.7529 137.245 28.8604C136.923 28.9678 136.601 29.0215 136.278 29.0215C135.935 29.0215 135.598 28.9535 135.269 28.8174C134.946 28.6742 134.66 28.4736 134.409 28.2158C134.159 27.9508 133.958 27.6322 133.808 27.2598C133.657 26.8802 133.582 26.4541 133.582 25.9814C133.582 25.4443 133.657 24.8929 133.808 24.3271C133.958 23.7614 134.166 23.21 134.431 22.6729C134.696 22.1286 135.007 21.6165 135.365 21.1367C135.731 20.6569 136.128 20.238 136.558 19.8799C136.987 19.5218 137.439 19.2389 137.911 19.0312C138.391 18.8164 138.878 18.709 139.372 18.709C139.537 18.709 139.666 18.7412 139.759 18.8057C139.852 18.8701 139.927 18.9453 139.985 19.0312C140.049 19.11 140.11 19.1888 140.167 19.2676C140.224 19.3464 140.296 19.4036 140.382 19.4395C140.468 19.4753 140.554 19.5003 140.64 19.5146C140.733 19.5218 140.826 19.5254 140.919 19.5254C140.998 19.5254 141.077 19.5254 141.155 19.5254C141.241 19.5182 141.324 19.5146 141.402 19.5146C141.51 19.5146 141.61 19.5254 141.703 19.5469C141.796 19.5684 141.879 19.6149 141.95 19.6865C142.022 19.7581 142.076 19.8584 142.111 19.9873C142.154 20.1162 142.176 20.2917 142.176 20.5137C142.176 20.8574 142.14 21.2406 142.069 21.6631C141.997 22.0785 141.918 22.5081 141.832 22.9521C141.746 23.389 141.667 23.8294 141.596 24.2734C141.524 24.7103 141.488 25.1257 141.488 25.5195C141.488 25.8561 141.517 26.1211 141.574 26.3145C141.639 26.5007 141.771 26.5938 141.972 26.5938C142.122 26.5938 142.28 26.5579 142.444 26.4863C142.609 26.4076 142.774 26.3073 142.939 26.1855C143.111 26.0638 143.279 25.9277 143.444 25.7773C143.615 25.6198 143.777 25.4587 143.927 25.2939C144.278 24.9072 144.632 24.4704 144.99 23.9834L145.506 26.3682ZM136.332 25.5195C136.332 25.6986 136.343 25.874 136.364 26.0459C136.393 26.2106 136.44 26.361 136.504 26.4971C136.569 26.626 136.654 26.7334 136.762 26.8193C136.869 26.8981 137.005 26.9375 137.17 26.9375C137.435 26.9375 137.675 26.8229 137.89 26.5938C138.105 26.3646 138.291 26.0889 138.448 25.7666C138.606 25.4443 138.731 25.1113 138.824 24.7676C138.925 24.4238 138.989 24.1374 139.018 23.9082L139.673 20.75C139.379 20.75 139.093 20.8252 138.814 20.9756C138.534 21.1188 138.269 21.3158 138.019 21.5664C137.775 21.8171 137.55 22.1035 137.342 22.4258C137.134 22.748 136.955 23.0882 136.805 23.4463C136.654 23.7972 136.536 24.1517 136.45 24.5098C136.372 24.8678 136.332 25.2044 136.332 25.5195ZM148.159 20.3525C148.56 19.8512 148.925 19.4502 149.255 19.1494C149.591 18.8415 149.924 18.6875 150.254 18.6875C150.676 18.6875 151.052 18.7806 151.382 18.9668C151.711 19.153 151.99 19.4001 152.219 19.708C152.449 20.016 152.624 20.3704 152.746 20.7715C152.868 21.1725 152.928 21.5915 152.928 22.0283C152.928 22.3936 152.914 22.7409 152.885 23.0703C152.857 23.3926 152.803 23.7113 152.724 24.0264C152.653 24.3343 152.549 24.6423 152.413 24.9502C152.284 25.2581 152.112 25.5768 151.897 25.9062C152.155 25.7559 152.416 25.609 152.681 25.4658C152.946 25.3226 153.211 25.165 153.476 24.9932C153.748 24.8213 154.021 24.6315 154.293 24.4238C154.565 24.209 154.844 23.9583 155.131 23.6719L155.958 25.4443C155.564 25.8024 155.17 26.1139 154.776 26.3789C154.389 26.6439 153.988 26.8766 153.573 27.0771C153.165 27.2705 152.735 27.4388 152.284 27.582C151.84 27.7253 151.367 27.8542 150.866 27.9688C150.744 28.0905 150.576 28.2122 150.361 28.334C150.153 28.4557 149.946 28.5667 149.738 28.667C149.502 28.7816 149.247 28.8926 148.975 29H148.707C148.098 29 147.493 28.9176 146.891 28.7529C146.297 28.5811 145.756 28.3913 145.269 28.1836C144.704 27.9473 144.163 27.6751 143.647 27.3672C143.669 26.7871 143.712 26.1318 143.776 25.4014C143.833 24.7712 143.912 24.0299 144.012 23.1777C144.113 22.3184 144.249 21.3623 144.421 20.3096C144.535 19.6077 144.678 18.8271 144.85 17.9678C145.022 17.1012 145.223 16.2275 145.452 15.3467C145.688 14.4587 145.95 13.5993 146.236 12.7686C146.53 11.9307 146.852 11.1859 147.203 10.5342C147.561 9.88249 147.948 9.3597 148.363 8.96582C148.786 8.57194 149.24 8.375 149.727 8.375C150.272 8.375 150.708 8.4681 151.038 8.6543C151.367 8.84049 151.621 9.09473 151.801 9.41699C151.98 9.7321 152.098 10.1045 152.155 10.5342C152.212 10.9639 152.241 11.4222 152.241 11.9092C152.241 12.5895 152.112 13.2913 151.854 14.0146C151.604 14.738 151.274 15.4613 150.866 16.1846C150.458 16.9007 149.999 17.6025 149.491 18.29C148.99 18.9775 148.488 19.6257 147.987 20.2344L148.159 20.3525ZM149.126 21.1367C148.875 21.1367 148.624 21.1904 148.374 21.2979C148.123 21.3981 147.89 21.5592 147.676 21.7812C147.461 21.9961 147.271 22.2754 147.106 22.6191C146.941 22.9557 146.82 23.3639 146.741 23.8438C146.676 24.2305 146.623 24.5885 146.58 24.918C146.537 25.2402 146.501 25.5267 146.472 25.7773C146.444 26.0638 146.419 26.3324 146.397 26.583C146.634 26.6546 146.87 26.7155 147.106 26.7656C147.314 26.8086 147.532 26.848 147.761 26.8838C147.991 26.9196 148.209 26.9375 148.417 26.9375C148.66 26.9375 148.882 26.8659 149.083 26.7227C149.283 26.5794 149.462 26.3896 149.62 26.1533C149.777 25.9098 149.913 25.6341 150.028 25.3262C150.143 25.0182 150.236 24.6995 150.307 24.3701C150.379 24.0335 150.433 23.7041 150.468 23.3818C150.504 23.0524 150.522 22.7516 150.522 22.4795C150.522 22.3005 150.501 22.1322 150.458 21.9746C150.422 21.8099 150.35 21.6667 150.243 21.5449C150.143 21.4232 149.999 21.3265 149.813 21.2549C149.634 21.1761 149.405 21.1367 149.126 21.1367ZM150.178 11.2969C150.178 11.2682 150.171 11.2074 150.157 11.1143C150.15 11.0212 150.125 10.9245 150.082 10.8242C150.046 10.724 149.992 10.6344 149.921 10.5557C149.849 10.4769 149.752 10.4375 149.631 10.4375C149.487 10.4375 149.337 10.5413 149.179 10.749C149.029 10.9495 148.879 11.2253 148.728 11.5762C148.578 11.9199 148.431 12.321 148.288 12.7793C148.145 13.2305 148.005 13.7067 147.869 14.208C147.733 14.7021 147.604 15.207 147.482 15.7227C147.368 16.2383 147.26 16.7288 147.16 17.1943C147.067 17.6527 146.984 18.0752 146.913 18.4619C146.841 18.8415 146.784 19.1494 146.741 19.3857C146.934 19.0133 147.149 18.6266 147.385 18.2256C147.629 17.8245 147.872 17.4092 148.116 16.9795C148.359 16.5426 148.596 16.0986 148.825 15.6475C149.061 15.1891 149.273 14.7236 149.459 14.251C149.652 13.7712 149.81 13.2878 149.931 12.8008C150.06 12.3066 150.143 11.8053 150.178 11.2969ZM157.719 29C157.332 29 156.971 28.8317 156.634 28.4951C156.305 28.1514 156.015 27.693 155.764 27.1201C155.52 26.5472 155.327 25.8848 155.184 25.1328C155.048 24.3737 154.98 23.5788 154.98 22.748C154.98 22.1107 155.026 21.4196 155.119 20.6748C155.213 19.9229 155.349 19.1494 155.528 18.3545C155.707 17.5596 155.918 16.7611 156.161 15.959C156.412 15.1569 156.691 14.387 156.999 13.6494C157.314 12.9118 157.655 12.2243 158.02 11.5869C158.385 10.9424 158.768 10.3838 159.169 9.91113C159.57 9.43132 159.989 9.05534 160.426 8.7832C160.863 8.51107 161.307 8.375 161.758 8.375C162.066 8.375 162.32 8.44661 162.521 8.58984C162.721 8.72591 162.879 8.90853 162.993 9.1377C163.108 9.36686 163.187 9.62826 163.23 9.92188C163.28 10.2083 163.305 10.502 163.305 10.8027C163.305 11.4759 163.226 12.1634 163.069 12.8652C162.918 13.5599 162.711 14.2617 162.446 14.9707C162.188 15.6725 161.887 16.3779 161.543 17.0869C161.199 17.7959 160.841 18.5013 160.469 19.2031C160.097 19.8978 159.721 20.5853 159.341 21.2656C158.969 21.9388 158.618 22.5977 158.288 23.2422C158.253 23.3138 158.213 23.4069 158.17 23.5215C158.134 23.6361 158.099 23.7614 158.063 23.8975C158.027 24.0264 157.991 24.166 157.955 24.3164C157.92 24.4668 157.891 24.6136 157.869 24.7568V24.9072C157.869 25.0934 157.887 25.276 157.923 25.4551C157.966 25.627 158.016 25.7845 158.074 25.9277C158.131 26.0638 158.192 26.1748 158.256 26.2607C158.321 26.3395 158.381 26.3789 158.439 26.3789C158.575 26.3789 158.729 26.3503 158.901 26.293C159.08 26.2357 159.266 26.1605 159.459 26.0674C159.66 25.9671 159.864 25.8561 160.072 25.7344C160.279 25.6055 160.48 25.4766 160.673 25.3477C161.124 25.0469 161.597 24.6995 162.091 24.3057L162.972 26.5615C162.335 27.0199 161.704 27.4281 161.081 27.7861C160.809 27.9365 160.526 28.0869 160.233 28.2373C159.946 28.3805 159.656 28.5094 159.363 28.624C159.069 28.7386 158.783 28.8317 158.503 28.9033C158.224 28.9678 157.963 29 157.719 29ZM157.73 20.4062C158.052 19.8333 158.392 19.1888 158.75 18.4727C159.116 17.7565 159.459 17.0189 159.782 16.2598C160.104 15.5007 160.383 14.7451 160.619 13.9932C160.856 13.234 161.006 12.5286 161.071 11.877C161.071 11.6693 161.063 11.4938 161.049 11.3506C161.042 11.2002 161.01 11.125 160.952 11.125C160.745 11.125 160.519 11.2611 160.276 11.5332C160.039 11.7982 159.799 12.1598 159.556 12.6182C159.32 13.0765 159.09 13.61 158.868 14.2188C158.654 14.8275 158.46 15.4756 158.288 16.1631C158.116 16.8506 157.98 17.5596 157.88 18.29C157.78 19.0133 157.73 19.7188 157.73 20.4062ZM173.187 26.3682C173.023 26.5973 172.801 26.8659 172.521 27.1738C172.249 27.4818 171.941 27.7754 171.598 28.0547C171.254 28.334 170.885 28.5703 170.491 28.7637C170.097 28.957 169.703 29.0537 169.309 29.0537C168.837 29.0537 168.443 28.9033 168.128 28.6025C167.813 28.2946 167.541 27.8506 167.311 27.2705C167.139 27.471 166.928 27.6751 166.678 27.8828C166.427 28.0905 166.151 28.2803 165.85 28.4521C165.557 28.6169 165.249 28.7529 164.927 28.8604C164.604 28.9678 164.282 29.0215 163.96 29.0215C163.616 29.0215 163.279 28.9535 162.95 28.8174C162.628 28.6742 162.341 28.4736 162.091 28.2158C161.84 27.9508 161.639 27.6322 161.489 27.2598C161.339 26.8802 161.264 26.4541 161.264 25.9814C161.264 25.4443 161.339 24.8929 161.489 24.3271C161.639 23.7614 161.847 23.21 162.112 22.6729C162.377 22.1286 162.689 21.6165 163.047 21.1367C163.412 20.6569 163.809 20.238 164.239 19.8799C164.669 19.5218 165.12 19.2389 165.593 19.0312C166.072 18.8164 166.559 18.709 167.054 18.709C167.218 18.709 167.347 18.7412 167.44 18.8057C167.533 18.8701 167.609 18.9453 167.666 19.0312C167.73 19.11 167.791 19.1888 167.848 19.2676C167.906 19.3464 167.977 19.4036 168.063 19.4395C168.149 19.4753 168.235 19.5003 168.321 19.5146C168.414 19.5218 168.507 19.5254 168.6 19.5254C168.679 19.5254 168.758 19.5254 168.837 19.5254C168.923 19.5182 169.005 19.5146 169.084 19.5146C169.191 19.5146 169.292 19.5254 169.385 19.5469C169.478 19.5684 169.56 19.6149 169.632 19.6865C169.703 19.7581 169.757 19.8584 169.793 19.9873C169.836 20.1162 169.857 20.2917 169.857 20.5137C169.857 20.8574 169.821 21.2406 169.75 21.6631C169.678 22.0785 169.599 22.5081 169.514 22.9521C169.428 23.389 169.349 23.8294 169.277 24.2734C169.206 24.7103 169.17 25.1257 169.17 25.5195C169.17 25.8561 169.198 26.1211 169.256 26.3145C169.32 26.5007 169.453 26.5938 169.653 26.5938C169.804 26.5938 169.961 26.5579 170.126 26.4863C170.291 26.4076 170.455 26.3073 170.62 26.1855C170.792 26.0638 170.96 25.9277 171.125 25.7773C171.297 25.6198 171.458 25.4587 171.608 25.2939C171.959 24.9072 172.314 24.4704 172.672 23.9834L173.187 26.3682ZM164.014 25.5195C164.014 25.6986 164.024 25.874 164.046 26.0459C164.074 26.2106 164.121 26.361 164.185 26.4971C164.25 26.626 164.336 26.7334 164.443 26.8193C164.551 26.8981 164.687 26.9375 164.851 26.9375C165.116 26.9375 165.356 26.8229 165.571 26.5938C165.786 26.3646 165.972 26.0889 166.13 25.7666C166.287 25.4443 166.413 25.1113 166.506 24.7676C166.606 24.4238 166.67 24.1374 166.699 23.9082L167.354 20.75C167.061 20.75 166.774 20.8252 166.495 20.9756C166.216 21.1188 165.951 21.3158 165.7 21.5664C165.457 21.8171 165.231 22.1035 165.023 22.4258C164.816 22.748 164.637 23.0882 164.486 23.4463C164.336 23.7972 164.218 24.1517 164.132 24.5098C164.053 24.8678 164.014 25.2044 164.014 25.5195Z" fill="#090E36"/>
</svg>
