<svg width="206" height="38" viewBox="0 0 206 38" fill="none" xmlns="http://www.w3.org/2000/svg">
<path fill-rule="evenodd" clip-rule="evenodd" d="M1.90539 0.584948C0.00297883 1.61606 3.09624e-06 1.64215 3.09624e-06 17.9027C3.09624e-06 34.122 -0.0142146 33.9903 1.88423 35.2757C3.28674 36.2249 32.3863 36.249 33.7836 35.3018C35.9313 33.8453 35.8632 34.3661 35.969 18.5636C36.0764 2.51671 36.014 1.96911 33.9337 0.701863C32.5222 -0.157834 3.47156 -0.26385 1.90539 0.584948ZM7.52733 3.34469C9.20658 5.25036 11.4819 6.67581 13.6816 7.20029C14.5756 7.41331 14.5386 7.33933 13.0752 5.99182C11.6453 4.67536 10.2494 2.5712 10.2494 1.73264C10.2494 1.51268 11.7848 1.38916 14.5217 1.38916H18.7944L19.1885 2.62768C19.7535 4.40388 21.2221 6.60943 22.9817 8.32486C24.4272 9.73413 24.4871 9.76022 24.1353 8.82786C23.6169 7.45393 22.8131 3.52106 22.8131 2.3585C22.8131 1.40732 22.8462 1.38916 24.5763 1.38916C26.7558 1.38916 26.7125 1.34094 26.4315 3.44972C25.9392 7.14282 27.7427 12.5005 30.5742 15.756L31.7231 17.0771L30.918 15.0776C29.374 11.2435 29.1723 6.69926 30.3616 2.54511C30.7408 1.22072 33.7141 0.0680724 34.8515 1.38916L34.9412 2.53817L35.2059 17.9669V32.1044L34.7083 34.6317L32.2941 34.9412L17.5747 34.8487C0.48704 34.7414 1.05882 37.5882 1.24613 31.2353V28.9668L2.35901 30.0045C4.53188 32.0314 8.64584 33.3433 10.129 32.4822C10.7119 32.1437 10.7073 32.1239 10.0457 32.1143C9.66119 32.109 8.29207 31.5776 7.00363 30.9336C2.90256 28.8843 1.3225 26.0284 1.3225 20.6664V17.4922L6.38436 17.6279C12.8349 17.801 14.4734 18.4331 15.9771 21.3283C18.3675 25.9303 22.1813 27.6117 27.4399 26.3825C29.8534 25.818 29.9523 25.8372 29.4524 26.7702C28.8024 27.9836 29.0166 29.9342 29.8905 30.7539C33.359 34.0094 34.4858 22.013 31.0751 18.1418C28.2525 14.9389 24.4037 14.0792 14.247 14.383C5.9529 14.6314 5.19974 14.4914 2.89528 12.2726L1.3225 10.7583V7.89022C1.3225 6.31285 1.39425 5.02214 1.48219 5.02214C1.57014 5.02214 2.00359 5.7352 2.44563 6.60646C4.5084 10.6724 9.13219 12.7363 14.0952 11.8063L15.3549 11.5701L13.6495 10.9703C9.68433 9.57527 6.34733 7.02227 3.99196 3.58117C2.77725 1.80695 2.92702 1.40369 4.80332 1.39411C5.61368 1.39015 6.1321 1.76137 7.52733 3.34469ZM23.6208 17.3647C24.5892 17.9985 24.7433 19.2433 23.9362 19.9124C23.4565 20.3104 23.4757 20.4078 24.1382 20.9439C24.5409 21.2692 25.1311 21.5357 25.4502 21.5357C26.2099 21.5357 27.7725 20.2975 27.7725 19.6951C27.7725 18.6465 29.0255 19.4748 30.0568 21.2054C31.0126 22.8092 30.9428 23.0745 29.3525 23.8849C26.0694 25.5578 21.5908 24.8193 18.8383 22.151C17.3836 20.7408 15.9454 18.017 16.4175 17.5665C17.452 16.5803 22.2183 16.4466 23.6208 17.3647ZM6.61944 19.1264C6.62341 19.2707 7.25589 19.8322 8.0246 20.3742C8.79363 20.9161 10.9632 22.947 12.8454 24.8876C17.0394 29.2102 19.1415 30.4679 22.584 30.714C24.2298 30.8315 25.0686 31.0548 25.506 31.4918C25.8433 31.8286 26.5244 32.1044 27.0196 32.1044H27.9196L27.185 31.5902C26.4136 31.0505 26.246 30.1297 26.7485 29.1917C27.0193 28.6868 26.8034 28.6455 24.4418 28.7528C20.583 28.9279 18.5477 27.8908 14.488 23.6815C12.7932 21.9241 10.8858 20.2226 10.2494 19.8999C8.92522 19.2284 6.60919 18.735 6.61944 19.1264ZM6.94312 23.4916C6.94312 26.8356 11.273 30.4689 15.2087 30.4276C16.7792 30.4111 16.9144 30.3619 16.2006 30.0686C11.6545 28.2009 10.2163 27.2184 8.37175 24.7195C7.29424 23.2597 6.94312 22.9579 6.94312 23.4916Z" fill="white"/>
<rect x="0.65" y="0.65" width="34.7" height="34.7" rx="1.35" stroke="white" stroke-width="1.3"/>
<path d="M42.1601 9.112C41.4881 10.408 41.1761 11.896 41.1761 13.6C41.1761 15.328 41.4881 16.816 42.1601 18.112C42.8321 19.408 43.7681 20.392 45.0161 21.088C46.2641 21.808 47.7281 22.144 49.4081 22.144C50.7041 22.144 51.8801 21.904 52.9361 21.376C53.9681 20.872 54.8081 20.152 55.4561 19.216C56.0801 18.304 56.4641 17.224 56.6081 16H53.0081C52.7921 16.96 52.3601 17.728 51.6881 18.28C51.0161 18.832 50.2001 19.096 49.2161 19.096C47.8721 19.096 46.7921 18.592 46.0241 17.584C45.2321 16.576 44.8481 15.232 44.8481 13.6C44.8481 11.968 45.2321 10.624 46.0241 9.616C46.7921 8.608 47.8721 8.104 49.2161 8.104C50.2001 8.104 51.0161 8.392 51.6881 8.944C52.3601 9.496 52.7921 10.24 53.0081 11.2H56.6081C56.4641 10 56.0801 8.92 55.4561 7.984C54.8081 7.072 53.9681 6.352 52.9361 5.824C51.8801 5.32 50.7041 5.056 49.4081 5.056C47.7281 5.056 46.2641 5.416 45.0161 6.112C43.7681 6.832 42.8321 7.816 42.1601 9.112ZM66.4277 9.664H65.8517C64.9397 9.664 64.1957 9.832 63.6677 10.144C63.1157 10.456 62.6597 10.912 62.2997 11.512L61.9877 9.664H58.9157V22H62.2997V15.952C62.2997 14.968 62.5157 14.176 62.9717 13.6C63.4037 13.024 64.1237 12.736 65.0837 12.736H66.4277V9.664ZM68.3087 12.52C67.7807 13.48 67.5407 14.584 67.5407 15.856C67.5407 17.128 67.8047 18.232 68.3327 19.192C68.8607 20.152 69.6287 20.872 70.6367 21.376C71.6447 21.904 72.8207 22.144 74.2127 22.144C75.2687 22.144 76.2047 21.976 77.0207 21.592C77.8367 21.208 78.4847 20.704 78.9887 20.032C79.4687 19.384 79.7807 18.64 79.9247 17.824H76.5887C76.4447 18.4 76.1327 18.856 75.6767 19.144C75.2207 19.432 74.6447 19.576 73.9727 19.576C73.1087 19.576 72.4127 19.336 71.9327 18.808C71.4287 18.304 71.1407 17.608 71.0687 16.696V16.6H80.0207C80.0687 16.264 80.1167 15.88 80.1167 15.448C80.0927 14.248 79.8047 13.216 79.2767 12.328C78.7487 11.44 78.0047 10.744 77.0447 10.264C76.0847 9.784 75.0047 9.52 73.7567 9.52C72.5087 9.52 71.4287 9.784 70.4927 10.312C69.5567 10.84 68.8367 11.56 68.3087 12.52ZM76.7327 14.392H71.1407C71.2367 13.672 71.5247 13.12 72.0287 12.688C72.5327 12.256 73.1567 12.04 73.9007 12.04C74.6687 12.04 75.2927 12.256 75.7967 12.664C76.3007 13.072 76.6127 13.648 76.7327 14.392ZM94.59 19.144H94.206C93.918 19.144 93.726 19.096 93.606 18.976C93.462 18.88 93.414 18.664 93.414 18.352V14.008C93.414 12.568 92.934 11.44 91.974 10.672C91.014 9.904 89.67 9.52 87.942 9.52C86.262 9.52 84.942 9.88 83.934 10.576C82.926 11.272 82.35 12.256 82.254 13.504H85.518C85.59 13.048 85.83 12.688 86.238 12.4C86.622 12.136 87.15 11.992 87.774 11.992C88.47 11.992 89.022 12.16 89.454 12.496C89.862 12.832 90.078 13.264 90.078 13.816V14.416H87.63C85.782 14.416 84.366 14.776 83.406 15.496C82.446 16.216 81.966 17.224 81.966 18.52C81.966 19.672 82.374 20.584 83.214 21.208C84.054 21.832 85.158 22.144 86.55 22.144C87.462 22.144 88.254 21.976 88.926 21.592C89.574 21.232 90.126 20.704 90.582 19.984C90.534 21.328 91.302 22 92.862 22H94.59V19.144ZM90.078 16.672V16.912C90.054 17.776 89.79 18.448 89.286 18.952C88.758 19.456 88.062 19.696 87.198 19.696C86.622 19.696 86.19 19.576 85.854 19.312C85.518 19.072 85.374 18.712 85.374 18.28C85.374 17.776 85.566 17.392 85.95 17.104C86.334 16.816 86.886 16.672 87.606 16.672H90.078ZM97.1711 12.52V18.472C97.1711 20.824 98.3471 22 100.699 22H103.507V19.144H101.755C101.323 19.144 101.011 19.048 100.819 18.856C100.627 18.664 100.555 18.352 100.555 17.92V12.52H103.363V9.664H100.555V6.208H97.1711V9.664H95.1311V12.52H97.1711ZM108.51 5.08C108.126 4.72 107.67 4.528 107.118 4.528C106.542 4.528 106.086 4.72 105.702 5.08C105.318 5.44 105.15 5.896 105.15 6.424C105.15 6.976 105.318 7.432 105.702 7.792C106.086 8.176 106.542 8.344 107.118 8.344C107.67 8.344 108.126 8.176 108.51 7.792C108.87 7.432 109.062 6.976 109.062 6.424C109.062 5.896 108.87 5.44 108.51 5.08ZM105.414 9.664V22H108.798V9.664H105.414ZM110.436 9.664L114.876 22H119.076L123.516 9.664H119.964L117.036 18.544L114.06 9.664H110.436ZM124.943 12.52C124.415 13.48 124.175 14.584 124.175 15.856C124.175 17.128 124.439 18.232 124.967 19.192C125.495 20.152 126.263 20.872 127.271 21.376C128.279 21.904 129.455 22.144 130.847 22.144C131.903 22.144 132.839 21.976 133.655 21.592C134.471 21.208 135.119 20.704 135.623 20.032C136.103 19.384 136.415 18.64 136.559 17.824H133.223C133.079 18.4 132.767 18.856 132.311 19.144C131.855 19.432 131.279 19.576 130.607 19.576C129.743 19.576 129.047 19.336 128.567 18.808C128.063 18.304 127.775 17.608 127.703 16.696V16.6H136.655C136.703 16.264 136.751 15.88 136.751 15.448C136.727 14.248 136.439 13.216 135.911 12.328C135.383 11.44 134.639 10.744 133.679 10.264C132.719 9.784 131.639 9.52 130.391 9.52C129.143 9.52 128.063 9.784 127.127 10.312C126.191 10.84 125.471 11.56 124.943 12.52ZM133.367 14.392H127.775C127.871 13.672 128.159 13.12 128.663 12.688C129.167 12.256 129.791 12.04 130.535 12.04C131.303 12.04 131.927 12.256 132.431 12.664C132.935 13.072 133.247 13.648 133.367 14.392ZM140.236 6.41406C140.236 5.75781 140.369 5.1875 140.635 4.70312C140.908 4.21094 141.287 3.79297 141.772 3.44922C142.264 3.10547 142.85 2.82422 143.529 2.60547C144.217 2.37891 144.971 2.20313 145.791 2.07812C146.611 1.95312 147.49 1.86719 148.428 1.82031C149.365 1.77344 150.334 1.75 151.334 1.75C152.693 1.75 154.115 1.80469 155.6 1.91406C157.092 2.02344 158.647 2.22266 160.264 2.51172C160.639 2.58984 160.9 2.73047 161.049 2.93359C161.205 3.13672 161.283 3.36328 161.283 3.61328C161.283 3.76953 161.248 3.92187 161.178 4.07031C161.107 4.21875 161.014 4.35547 160.897 4.48047C160.779 4.60547 160.643 4.70703 160.486 4.78516C160.33 4.85547 160.166 4.89062 159.994 4.89062C159.393 4.89062 158.764 4.85937 158.107 4.79688C157.459 4.73438 156.779 4.66406 156.068 4.58594C155.365 4.50781 154.639 4.42969 153.889 4.35156C153.139 4.27344 152.365 4.21484 151.568 4.17578C151.428 5.05078 151.248 5.99219 151.029 7C150.811 8.00781 150.568 9.03906 150.303 10.0938C150.045 11.1406 149.772 12.1875 149.482 13.2344C149.201 14.2734 148.928 15.2695 148.662 16.2227C148.397 17.168 148.147 18.043 147.912 18.8477C147.686 19.6523 147.498 20.3438 147.35 20.9219C147.287 21.1875 147.19 21.4336 147.057 21.6602C146.932 21.8789 146.787 22.0703 146.623 22.2344C146.467 22.3984 146.303 22.5234 146.131 22.6094C145.959 22.7031 145.799 22.75 145.65 22.75C145.205 22.75 144.838 22.6445 144.549 22.4336C144.26 22.2227 144.115 21.8828 144.115 21.4141C144.115 21.2656 144.139 21.1016 144.186 20.9219C144.287 20.2109 144.42 19.5117 144.584 18.8242C144.756 18.1367 144.955 17.4219 145.182 16.6797C145.408 15.9297 145.666 15.1367 145.955 14.3008C146.244 13.4648 146.565 12.5469 146.916 11.5469C147.268 10.5391 147.647 9.42969 148.053 8.21875C148.467 7.00781 148.912 5.66016 149.389 4.17578C148.975 4.20703 148.553 4.24219 148.123 4.28125C147.701 4.32031 147.287 4.375 146.881 4.44531C146.482 4.50781 146.107 4.58984 145.756 4.69141C145.412 4.79297 145.107 4.92188 144.842 5.07812C144.584 5.23437 144.377 5.42187 144.221 5.64062C144.072 5.85938 143.998 6.11719 143.998 6.41406C143.998 6.42969 143.986 6.51563 143.963 6.67188C143.947 6.82812 143.881 7 143.764 7.1875C143.647 7.36719 143.459 7.53516 143.201 7.69141C142.951 7.83984 142.592 7.91406 142.123 7.91406C141.654 7.91406 141.291 7.83594 141.033 7.67969C140.775 7.52344 140.588 7.35156 140.471 7.16406C140.33 6.94531 140.252 6.69531 140.236 6.41406ZM164.529 19.5039C164.248 19.7617 163.897 20.0391 163.475 20.3359C163.061 20.625 162.611 20.8945 162.127 21.1445C161.643 21.3867 161.147 21.5898 160.639 21.7539C160.139 21.918 159.662 22 159.209 22C158.803 22 158.459 21.9453 158.178 21.8359C157.904 21.7188 157.682 21.5586 157.51 21.3555C157.338 21.1523 157.213 20.9062 157.135 20.6172C157.065 20.3203 157.029 19.9961 157.029 19.6445C157.029 19.1523 157.084 18.582 157.193 17.9336C157.311 17.2773 157.451 16.6016 157.615 15.9062C157.779 15.2031 157.951 14.5039 158.131 13.8086C158.318 13.1133 158.482 12.4727 158.623 11.8867C158.678 11.6836 158.787 11.5117 158.951 11.3711C159.115 11.2227 159.299 11.1055 159.502 11.0195C159.713 10.9258 159.928 10.8594 160.147 10.8203C160.373 10.7734 160.576 10.75 160.756 10.75C161.084 10.75 161.307 10.8125 161.424 10.9375C161.541 11.0547 161.6 11.2148 161.6 11.418C161.6 11.5898 161.561 11.8398 161.482 12.168C161.404 12.4883 161.307 12.8555 161.19 13.2695C161.072 13.6758 160.947 14.1172 160.815 14.5938C160.682 15.0625 160.557 15.5352 160.44 16.0117C160.322 16.4805 160.225 16.9414 160.147 17.3945C160.068 17.8398 160.029 18.2422 160.029 18.6016C160.029 18.9531 160.068 19.2344 160.147 19.4453C160.225 19.6484 160.385 19.75 160.627 19.75C160.908 19.75 161.221 19.6523 161.565 19.457C161.908 19.2617 162.256 19.0273 162.607 18.7539C162.959 18.4727 163.303 18.1836 163.639 17.8867C163.975 17.5898 164.272 17.3359 164.529 17.125V19.5039ZM159.291 7.45703C159.291 7.27734 159.33 7.07422 159.408 6.84766C159.486 6.62109 159.611 6.41016 159.783 6.21484C159.963 6.01172 160.197 5.84375 160.486 5.71094C160.783 5.57031 161.15 5.5 161.588 5.5C161.861 5.5 162.119 5.53125 162.361 5.59375C162.604 5.65625 162.815 5.75391 162.994 5.88672C163.174 6.01172 163.315 6.17969 163.416 6.39062C163.525 6.60156 163.58 6.85156 163.58 7.14062C163.58 7.40625 163.537 7.66406 163.451 7.91406C163.365 8.16406 163.229 8.38672 163.041 8.58203C162.854 8.77734 162.615 8.9375 162.326 9.0625C162.045 9.17969 161.705 9.23828 161.307 9.23828C160.619 9.23828 160.111 9.07812 159.783 8.75781C159.455 8.42969 159.291 7.99609 159.291 7.45703ZM168.549 20.7695C168.127 21.1445 167.686 21.4492 167.225 21.6836C166.772 21.9102 166.33 22.0234 165.9 22.0234C165.525 22.0234 165.158 21.9492 164.799 21.8008C164.447 21.6445 164.135 21.4258 163.861 21.1445C163.588 20.8555 163.369 20.5078 163.205 20.1016C163.041 19.6875 162.959 19.2227 162.959 18.707C162.959 18.1211 163.041 17.5195 163.205 16.9023C163.369 16.2852 163.596 15.6836 163.885 15.0977C164.174 14.5039 164.514 13.9453 164.904 13.4219C165.303 12.8984 165.736 12.4414 166.205 12.0508C166.674 11.6602 167.166 11.3516 167.682 11.125C168.205 10.8906 168.736 10.7734 169.275 10.7734C169.455 10.7734 169.596 10.8086 169.697 10.8789C169.799 10.9492 169.881 11.0312 169.943 11.125C170.014 11.2109 170.08 11.2969 170.143 11.3828C170.205 11.4688 170.283 11.5312 170.377 11.5703C170.471 11.6094 170.565 11.6367 170.658 11.6523C170.76 11.6602 170.861 11.6641 170.963 11.6641C171.049 11.6641 171.135 11.6641 171.221 11.6641C171.315 11.6562 171.404 11.6523 171.49 11.6523C171.607 11.6523 171.717 11.6641 171.818 11.6875C171.92 11.7109 172.01 11.7617 172.088 11.8398C172.166 11.918 172.225 12.0273 172.264 12.168C172.311 12.3086 172.334 12.5 172.334 12.7422C172.334 12.9453 172.318 13.2188 172.287 13.5625C172.256 13.9062 172.213 14.2891 172.158 14.7109C172.104 15.1328 172.041 15.582 171.971 16.0586C171.908 16.5273 171.842 16.9883 171.772 17.4414C171.607 18.5195 171.42 19.6719 171.209 20.8984C171.443 20.7656 171.697 20.6016 171.971 20.4062C172.244 20.2109 172.549 19.9492 172.885 19.6211C173.221 19.293 173.596 18.8828 174.01 18.3906C174.424 17.8906 174.889 17.2695 175.404 16.5273L175.967 19.1289C175.826 19.3711 175.643 19.6211 175.416 19.8789C175.197 20.1289 174.951 20.3828 174.678 20.6406C174.412 20.8906 174.131 21.1367 173.834 21.3789C173.545 21.6133 173.26 21.8359 172.979 22.0469C172.315 22.5469 171.6 23.0312 170.834 23.5C170.686 24.3359 170.51 25.1484 170.307 25.9375C170.104 26.7344 169.861 27.4766 169.58 28.1641C169.307 28.8594 168.99 29.4961 168.631 30.0742C168.279 30.6523 167.877 31.1484 167.424 31.5625C166.979 31.9766 166.479 32.2969 165.924 32.5234C165.369 32.7578 164.756 32.875 164.084 32.875C163.818 32.875 163.529 32.8477 163.217 32.793C162.912 32.7383 162.627 32.6289 162.361 32.4648C162.104 32.3008 161.889 32.0664 161.717 31.7617C161.545 31.457 161.459 31.0508 161.459 30.543C161.459 30.1914 161.549 29.793 161.729 29.3477C161.908 28.9102 162.154 28.4453 162.467 27.9531C162.779 27.4688 163.15 26.9609 163.58 26.4297C164.01 25.9062 164.475 25.3828 164.975 24.8594C165.482 24.3359 166.01 23.8203 166.557 23.3125C167.111 22.8047 167.67 22.3203 168.232 21.8594L168.549 20.7695ZM165.959 18.2031C165.959 18.3984 165.971 18.5898 165.994 18.7773C166.025 18.957 166.076 19.1211 166.147 19.2695C166.217 19.4102 166.311 19.5273 166.428 19.6211C166.545 19.707 166.693 19.75 166.873 19.75C167.162 19.75 167.424 19.625 167.658 19.375C167.893 19.125 168.096 18.8242 168.268 18.4727C168.44 18.1211 168.576 17.7578 168.678 17.3828C168.787 17.0078 168.857 16.6953 168.889 16.4453L169.604 13C169.283 13 168.971 13.082 168.666 13.2461C168.361 13.4023 168.072 13.6172 167.799 13.8906C167.533 14.1641 167.287 14.4766 167.061 14.8281C166.834 15.1797 166.639 15.5508 166.475 15.9414C166.311 16.3242 166.182 16.7109 166.088 17.1016C166.002 17.4922 165.959 17.8594 165.959 18.2031ZM164.225 30.625C164.553 30.625 164.861 30.5273 165.15 30.332C165.447 30.1445 165.717 29.8945 165.959 29.582C166.209 29.2695 166.436 28.9141 166.639 28.5156C166.842 28.1172 167.022 27.707 167.178 27.2852C167.334 26.8711 167.467 26.4648 167.576 26.0664C167.686 25.668 167.772 25.3125 167.834 25C167.529 25.2031 167.217 25.4453 166.897 25.7266C166.584 26.0078 166.275 26.3086 165.971 26.6289C165.674 26.957 165.389 27.293 165.115 27.6367C164.85 27.9805 164.615 28.3086 164.412 28.6211C164.209 28.9414 164.049 29.2383 163.932 29.5117C163.815 29.7852 163.756 30.0117 163.756 30.1914C163.756 30.4805 163.912 30.625 164.225 30.625ZM178.545 22C177.811 22 177.166 21.8672 176.611 21.6016C176.065 21.3359 175.607 20.9805 175.24 20.5352C174.873 20.082 174.596 19.5625 174.408 18.9766C174.229 18.3828 174.139 17.7617 174.139 17.1133C174.139 16.6758 174.182 16.2148 174.268 15.7305C174.354 15.2383 174.482 14.7578 174.654 14.2891C174.834 13.8203 175.057 13.375 175.322 12.9531C175.588 12.5234 175.897 12.1484 176.248 11.8281C176.607 11.5 177.006 11.2422 177.443 11.0547C177.889 10.8594 178.381 10.7617 178.92 10.7617C179.357 10.7617 179.764 10.832 180.139 10.9727C180.514 11.1133 180.838 11.3125 181.111 11.5703C181.393 11.8203 181.611 12.125 181.768 12.4844C181.924 12.8438 182.002 13.2461 182.002 13.6914C182.002 14.1758 181.881 14.6602 181.639 15.1445C181.404 15.6289 181.076 16.0859 180.654 16.5156C180.232 16.9453 179.729 17.3281 179.143 17.6641C178.565 18 177.936 18.2617 177.256 18.4492C177.373 18.6602 177.486 18.8359 177.596 18.9766C177.713 19.1172 177.83 19.2266 177.947 19.3047C178.065 19.3828 178.186 19.4375 178.311 19.4688C178.443 19.5 178.584 19.5156 178.732 19.5156C179.201 19.5156 179.693 19.4219 180.209 19.2344C180.732 19.0469 181.24 18.8125 181.732 18.5312C182.225 18.25 182.69 17.9453 183.127 17.6172C183.565 17.2812 183.936 16.9648 184.24 16.668L185.752 18.2383C185.065 18.9492 184.334 19.5781 183.561 20.125C183.225 20.3594 182.861 20.5898 182.471 20.8164C182.088 21.043 181.682 21.2461 181.252 21.4258C180.83 21.5977 180.389 21.7383 179.928 21.8477C179.475 21.9492 179.014 22 178.545 22ZM176.986 16.4922C177.268 16.4922 177.572 16.4219 177.9 16.2812C178.236 16.1328 178.545 15.9453 178.826 15.7188C179.115 15.4922 179.357 15.2461 179.553 14.9805C179.748 14.7148 179.846 14.457 179.846 14.207C179.846 13.8555 179.779 13.5664 179.647 13.3398C179.522 13.1133 179.365 13 179.178 13C178.842 13 178.553 13.0625 178.311 13.1875C178.076 13.3125 177.877 13.4766 177.713 13.6797C177.557 13.875 177.428 14.1016 177.326 14.3594C177.232 14.6094 177.158 14.8633 177.104 15.1211C177.057 15.3789 177.025 15.6289 177.01 15.8711C176.994 16.1133 176.986 16.3203 176.986 16.4922ZM183.818 19.5508C183.818 19.207 183.838 18.8086 183.877 18.3555C183.916 17.8945 183.967 17.4102 184.029 16.9023C184.1 16.3945 184.178 15.8789 184.264 15.3555C184.357 14.8242 184.455 14.3203 184.557 13.8438C184.658 13.3672 184.76 12.9297 184.861 12.5312C184.963 12.1328 185.065 11.8047 185.166 11.5469C185.229 11.375 185.291 11.2383 185.354 11.1367C185.416 11.0352 185.486 10.957 185.565 10.9023C185.65 10.8398 185.752 10.8008 185.869 10.7852C185.994 10.7617 186.147 10.75 186.326 10.75C186.529 10.75 186.686 10.7617 186.795 10.7852C186.912 10.8008 186.998 10.8477 187.053 10.9258C187.107 10.9961 187.139 11.1016 187.147 11.2422C187.162 11.3828 187.17 11.5742 187.17 11.8164C187.17 12.1055 187.17 12.457 187.17 12.8711C187.17 13.2773 187.178 13.6797 187.193 14.0781H187.322C187.479 13.7656 187.654 13.418 187.85 13.0352C188.045 12.6445 188.272 12.2812 188.529 11.9453C188.787 11.6094 189.08 11.3281 189.408 11.1016C189.736 10.8672 190.115 10.75 190.545 10.75C190.693 10.75 190.838 10.7773 190.979 10.832C191.119 10.8789 191.24 10.9492 191.342 11.043C191.451 11.1367 191.537 11.2539 191.6 11.3945C191.662 11.5273 191.693 11.6797 191.693 11.8516C191.693 11.9844 191.674 12.1719 191.635 12.4141C191.596 12.6484 191.553 12.8984 191.506 13.1641C191.459 13.4219 191.416 13.6758 191.377 13.9258C191.338 14.168 191.318 14.3711 191.318 14.5352C191.318 14.8164 191.346 15.0508 191.4 15.2383C191.455 15.4258 191.525 15.5781 191.611 15.6953C191.705 15.8047 191.807 15.8828 191.916 15.9297C192.033 15.9766 192.154 16 192.279 16C192.631 16 192.994 15.9219 193.369 15.7656C193.744 15.6094 194.088 15.4336 194.4 15.2383C194.768 15.0117 195.127 14.7539 195.479 14.4648L195.303 17.207C195.1 17.3398 194.869 17.4883 194.611 17.6523C194.354 17.8164 194.076 17.9727 193.779 18.1211C193.49 18.2617 193.186 18.3828 192.865 18.4844C192.553 18.5781 192.232 18.625 191.904 18.625C191.318 18.625 190.846 18.5078 190.486 18.2734C190.127 18.0312 189.842 17.7188 189.631 17.3359C189.42 16.9453 189.264 16.5117 189.162 16.0352C189.061 15.5508 188.979 15.0625 188.916 14.5703H188.729L186.631 20.418C186.522 20.7227 186.416 20.9766 186.315 21.1797C186.221 21.375 186.123 21.5352 186.022 21.6602C185.92 21.7852 185.811 21.875 185.693 21.9297C185.576 21.9766 185.447 22 185.307 22C184.986 22 184.729 21.9336 184.533 21.8008C184.338 21.6602 184.186 21.4766 184.076 21.25C183.975 21.0156 183.904 20.7539 183.865 20.4648C183.834 20.168 183.818 19.8633 183.818 19.5508ZM193.568 17.5C194.006 17.125 194.361 16.8125 194.635 16.5625C194.908 16.3125 195.143 16.0859 195.338 15.8828C195.533 15.6719 195.709 15.4609 195.865 15.25C196.029 15.0391 196.221 14.7891 196.44 14.5C196.658 14.2109 196.924 13.8594 197.236 13.4453C197.549 13.0234 197.955 12.5 198.455 11.875C198.557 11.7344 198.67 11.5977 198.795 11.4648C198.92 11.332 199.057 11.2148 199.205 11.1133C199.361 11.0039 199.529 10.918 199.709 10.8555C199.897 10.7852 200.104 10.75 200.33 10.75C200.705 10.75 200.994 10.793 201.197 10.8789C201.4 10.957 201.549 11.0547 201.643 11.1719C201.736 11.2891 201.791 11.4141 201.807 11.5469C201.822 11.6719 201.83 11.7812 201.83 11.875C201.83 12.0625 201.756 12.2695 201.607 12.4961C201.459 12.7227 201.295 12.9414 201.115 13.1523C200.936 13.3633 200.764 13.5586 200.6 13.7383C200.443 13.9102 200.354 14.0391 200.33 14.125C200.33 14.3672 200.346 14.5898 200.377 14.793C200.416 14.9883 200.463 15.1836 200.518 15.3789C200.58 15.5664 200.643 15.7695 200.705 15.9883C200.768 16.1992 200.826 16.4453 200.881 16.7266C200.943 17.0078 200.99 17.332 201.022 17.6992C201.061 18.0664 201.08 18.5 201.08 19C201.361 18.8125 201.662 18.6445 201.982 18.4961C202.311 18.3398 202.65 18.1797 203.002 18.0156C203.354 17.8516 203.713 17.6719 204.08 17.4766C204.455 17.2734 204.83 17.0312 205.205 16.75L205.217 19.375C204.732 19.75 204.17 20.1016 203.529 20.4297C202.897 20.7578 202.229 21.0469 201.525 21.2969C200.83 21.5469 200.123 21.7461 199.404 21.8945C198.693 22.0352 198.018 22.1055 197.377 22.1055C196.916 22.1055 196.486 22.0625 196.088 21.9766C195.69 21.8906 195.338 21.7578 195.033 21.5781C194.736 21.3906 194.494 21.1484 194.307 20.8516C194.119 20.5547 194.006 20.1953 193.967 19.7734C193.857 19.7969 193.748 19.8125 193.639 19.8203C193.537 19.8281 193.436 19.832 193.334 19.832C193.209 19.832 193.092 19.8281 192.982 19.8203C192.873 19.8125 192.779 19.7852 192.701 19.7383C192.623 19.6836 192.561 19.6016 192.514 19.4922C192.467 19.375 192.443 19.2109 192.443 19C192.443 18.8125 192.49 18.6406 192.584 18.4844C192.678 18.3203 192.787 18.1758 192.912 18.0508C193.037 17.9258 193.162 17.8164 193.287 17.7227C193.412 17.6289 193.506 17.5547 193.568 17.5ZM195.068 19C195.162 19 195.264 19.0586 195.373 19.1758C195.49 19.293 195.623 19.4219 195.772 19.5625C195.92 19.7031 196.092 19.832 196.287 19.9492C196.482 20.0664 196.705 20.125 196.955 20.125C197.26 20.125 197.51 20.0742 197.705 19.9727C197.908 19.8711 198.068 19.7383 198.186 19.5742C198.303 19.4023 198.385 19.207 198.432 18.9883C198.479 18.7617 198.502 18.5273 198.502 18.2852C198.502 18.0742 198.486 17.8594 198.455 17.6406C198.432 17.4219 198.397 17.2148 198.35 17.0195C198.311 16.8164 198.264 16.6289 198.209 16.457C198.162 16.2773 198.119 16.125 198.08 16L195.068 19Z" fill="white"/>
<path d="M40.768 26.6V35H43.444C44.296 35 45.04 34.832 45.688 34.472C46.324 34.124 46.816 33.632 47.164 32.996C47.5 32.36 47.68 31.628 47.68 30.8C47.68 29.972 47.5 29.24 47.164 28.604C46.816 27.98 46.324 27.488 45.688 27.128C45.04 26.78 44.296 26.6 43.444 26.6H40.768ZM43.444 33.8H42.148V27.8H43.444C44.344 27.8 45.04 28.076 45.532 28.616C46.012 29.156 46.264 29.888 46.264 30.8C46.264 31.724 46.012 32.456 45.532 32.996C45.04 33.536 44.344 33.8 43.444 33.8ZM49.9691 26.624C49.8131 26.48 49.6211 26.396 49.4051 26.396C49.1771 26.396 48.9851 26.48 48.8411 26.624C48.6851 26.768 48.6131 26.96 48.6131 27.176C48.6131 27.404 48.6851 27.596 48.8411 27.74C48.9851 27.884 49.1771 27.956 49.4051 27.956C49.6211 27.956 49.8131 27.884 49.9691 27.74C50.1131 27.596 50.1971 27.404 50.1971 27.176C50.1971 26.96 50.1131 26.768 49.9691 26.624ZM48.7571 28.856V35H50.0531V28.856H48.7571ZM57.2875 28.856H56.1595L56.0155 29.816C55.7995 29.504 55.5355 29.252 55.1995 29.06C54.8635 28.88 54.4555 28.784 53.9995 28.784C53.4475 28.784 52.9435 28.916 52.5115 29.18C52.0675 29.444 51.7195 29.804 51.4675 30.272C51.2155 30.752 51.0955 31.292 51.0955 31.904C51.0955 32.552 51.2155 33.104 51.4675 33.572C51.7075 34.04 52.0555 34.4 52.4995 34.652C52.9315 34.904 53.4355 35.024 53.9995 35.024C54.8875 35.024 55.5475 34.688 56.0035 34.016V34.7C56.0035 35.852 55.4155 36.416 54.2395 36.416C53.7835 36.416 53.4115 36.332 53.1235 36.14C52.8355 35.948 52.6435 35.684 52.5715 35.336H51.2515C51.2995 36.02 51.5875 36.548 52.1155 36.92C52.6315 37.292 53.3035 37.472 54.1435 37.472C55.2115 37.472 56.0035 37.244 56.5195 36.764C57.0235 36.284 57.2875 35.612 57.2875 34.748V28.856ZM55.5115 33.38C55.1755 33.752 54.7435 33.932 54.2155 33.932C53.6755 33.932 53.2435 33.752 52.9195 33.368C52.5835 32.996 52.4275 32.504 52.4275 31.904C52.4275 31.304 52.5835 30.824 52.9195 30.44C53.2435 30.068 53.6755 29.876 54.2155 29.876C54.7435 29.876 55.1755 30.068 55.5115 30.452C55.8355 30.836 56.0035 31.328 56.0035 31.928C56.0035 32.528 55.8355 33.008 55.5115 33.38ZM59.766 26.624C59.61 26.48 59.418 26.396 59.202 26.396C58.974 26.396 58.782 26.48 58.638 26.624C58.482 26.768 58.41 26.96 58.41 27.176C58.41 27.404 58.482 27.596 58.638 27.74C58.782 27.884 58.974 27.956 59.202 27.956C59.418 27.956 59.61 27.884 59.766 27.74C59.91 27.596 59.994 27.404 59.994 27.176C59.994 26.96 59.91 26.768 59.766 26.624ZM58.554 28.856V35H59.85V28.856H58.554ZM61.5164 29.996V33.332C61.5164 33.908 61.6484 34.328 61.9124 34.592C62.1764 34.868 62.6084 35 63.1964 35H64.4444V33.86H63.4604C63.2204 33.86 63.0644 33.812 62.9684 33.716C62.8724 33.62 62.8244 33.44 62.8244 33.2V29.996H64.3004V28.856H62.8244V27.14H61.5164V28.856H60.4484V29.996H61.5164ZM70.9496 33.872H70.6976C70.4216 33.872 70.2896 33.728 70.2896 33.44V31.016C70.2896 30.296 70.0616 29.744 69.6176 29.36C69.1616 28.976 68.5256 28.784 67.7096 28.784C66.9296 28.784 66.3056 28.964 65.8256 29.3C65.3456 29.636 65.0696 30.116 65.0096 30.728H66.2816C66.3296 30.464 66.4736 30.248 66.7136 30.08C66.9536 29.912 67.2656 29.828 67.6496 29.828C68.0696 29.828 68.4056 29.936 68.6456 30.128C68.8856 30.32 69.0056 30.596 69.0056 30.932V31.304H67.4576C66.5936 31.304 65.9456 31.484 65.5016 31.82C65.0456 32.156 64.8296 32.648 64.8296 33.272C64.8296 33.836 65.0336 34.28 65.4536 34.592C65.8616 34.916 66.4136 35.072 67.1096 35.072C67.9976 35.072 68.6696 34.724 69.1376 34.016C69.1376 34.34 69.2216 34.58 69.4016 34.748C69.5696 34.916 69.8576 35 70.2656 35H70.9496V33.872ZM69.0056 32.264V32.48C68.9936 32.96 68.8376 33.344 68.5376 33.632C68.2376 33.92 67.8176 34.064 67.2896 34.064C66.9296 34.064 66.6536 33.992 66.4496 33.824C66.2456 33.668 66.1496 33.452 66.1496 33.188C66.1496 32.888 66.2576 32.66 66.4736 32.504C66.6896 32.348 66.9896 32.264 67.3976 32.264H69.0056ZM71.6555 26.6V35H72.9515V26.6H71.6555ZM83.1723 33.872H82.9203C82.6443 33.872 82.5123 33.728 82.5123 33.44V31.016C82.5123 30.296 82.2843 29.744 81.8403 29.36C81.3843 28.976 80.7483 28.784 79.9323 28.784C79.1523 28.784 78.5283 28.964 78.0483 29.3C77.5683 29.636 77.2923 30.116 77.2323 30.728H78.5043C78.5523 30.464 78.6963 30.248 78.9363 30.08C79.1763 29.912 79.4883 29.828 79.8723 29.828C80.2923 29.828 80.6283 29.936 80.8683 30.128C81.1083 30.32 81.2283 30.596 81.2283 30.932V31.304H79.6803C78.8163 31.304 78.1683 31.484 77.7243 31.82C77.2683 32.156 77.0522 32.648 77.0522 33.272C77.0522 33.836 77.2563 34.28 77.6763 34.592C78.0843 34.916 78.6363 35.072 79.3323 35.072C80.2203 35.072 80.8923 34.724 81.3603 34.016C81.3603 34.34 81.4443 34.58 81.6243 34.748C81.7923 34.916 82.0803 35 82.4883 35H83.1723V33.872ZM81.2283 32.264V32.48C81.2163 32.96 81.0603 33.344 80.7603 33.632C80.4603 33.92 80.0403 34.064 79.5123 34.064C79.1523 34.064 78.8763 33.992 78.6723 33.824C78.4683 33.668 78.3723 33.452 78.3723 33.188C78.3723 32.888 78.4803 32.66 78.6963 32.504C78.9123 32.348 79.2123 32.264 79.6203 32.264H81.2283ZM89.8422 28.856H88.7142L88.5702 29.816C88.3542 29.504 88.0902 29.252 87.7542 29.06C87.4182 28.88 87.0102 28.784 86.5542 28.784C86.0022 28.784 85.4982 28.916 85.0662 29.18C84.6222 29.444 84.2742 29.804 84.0222 30.272C83.7702 30.752 83.6502 31.292 83.6502 31.904C83.6502 32.552 83.7702 33.104 84.0222 33.572C84.2622 34.04 84.6102 34.4 85.0542 34.652C85.4862 34.904 85.9902 35.024 86.5542 35.024C87.4422 35.024 88.1022 34.688 88.5582 34.016V34.7C88.5582 35.852 87.9702 36.416 86.7942 36.416C86.3382 36.416 85.9662 36.332 85.6782 36.14C85.3902 35.948 85.1982 35.684 85.1262 35.336H83.8062C83.8542 36.02 84.1422 36.548 84.6702 36.92C85.1862 37.292 85.8582 37.472 86.6982 37.472C87.7662 37.472 88.5582 37.244 89.0742 36.764C89.5782 36.284 89.8422 35.612 89.8422 34.748V28.856ZM88.0662 33.38C87.7302 33.752 87.2982 33.932 86.7702 33.932C86.2302 33.932 85.7982 33.752 85.4742 33.368C85.1382 32.996 84.9822 32.504 84.9822 31.904C84.9822 31.304 85.1382 30.824 85.4742 30.44C85.7982 30.068 86.2302 29.876 86.7702 29.876C87.2982 29.876 87.7302 30.068 88.0662 30.452C88.3902 30.836 88.5582 31.328 88.5582 31.928C88.5582 32.528 88.3902 33.008 88.0662 33.38ZM91.2527 30.284C91.0007 30.764 90.8807 31.316 90.8807 31.94C90.8807 32.564 91.0007 33.116 91.2647 33.584C91.5287 34.064 91.8887 34.424 92.3687 34.688C92.8487 34.952 93.4007 35.072 94.0487 35.072C94.7807 35.072 95.3927 34.88 95.8847 34.472C96.3767 34.076 96.6767 33.56 96.7967 32.936H95.5007C95.4047 33.284 95.2247 33.548 94.9607 33.74C94.6847 33.932 94.3487 34.016 93.9527 34.016C93.4487 34.016 93.0407 33.86 92.7407 33.548C92.4287 33.236 92.2607 32.816 92.2367 32.276V32.204H96.8687C96.8927 32.036 96.9047 31.88 96.9047 31.712C96.8927 31.124 96.7607 30.608 96.4967 30.164C96.2327 29.732 95.8847 29.384 95.4287 29.144C94.9727 28.904 94.4567 28.784 93.8687 28.784C93.2807 28.784 92.7647 28.916 92.3087 29.18C91.8527 29.444 91.5047 29.804 91.2527 30.284ZM95.5847 31.256H92.2847C92.3327 30.824 92.5007 30.488 92.8127 30.224C93.1247 29.96 93.4847 29.828 93.9167 29.828C94.3727 29.828 94.7447 29.96 95.0447 30.212C95.3447 30.464 95.5247 30.812 95.5847 31.256ZM102.968 29.456C102.512 29.012 101.912 28.784 101.192 28.784C100.34 28.784 99.6804 29.084 99.2244 29.66L99.0804 28.856H97.9524V35H99.2484V31.904C99.2484 31.28 99.3924 30.8 99.6804 30.44C99.9684 30.08 100.376 29.9 100.892 29.9C101.372 29.9 101.732 30.056 101.984 30.356C102.224 30.668 102.356 31.112 102.356 31.688V35H103.664V31.616C103.664 30.632 103.424 29.912 102.968 29.456ZM109.583 34.472C110.075 34.064 110.387 33.512 110.507 32.792H109.187C109.103 33.152 108.935 33.44 108.671 33.656C108.407 33.872 108.071 33.968 107.675 33.968C107.147 33.968 106.727 33.788 106.415 33.404C106.103 33.02 105.947 32.528 105.947 31.916C105.947 31.316 106.103 30.836 106.415 30.452C106.727 30.08 107.147 29.888 107.675 29.888C108.059 29.888 108.383 29.996 108.647 30.2C108.911 30.416 109.079 30.692 109.175 31.04H110.507C110.387 30.344 110.075 29.804 109.595 29.396C109.103 28.988 108.479 28.784 107.711 28.784C107.087 28.784 106.547 28.916 106.079 29.18C105.611 29.444 105.251 29.804 104.999 30.272C104.735 30.752 104.615 31.292 104.615 31.916C104.615 32.54 104.735 33.092 104.987 33.572C105.239 34.052 105.599 34.424 106.067 34.688C106.523 34.952 107.063 35.072 107.675 35.072C108.443 35.072 109.079 34.88 109.583 34.472ZM112.056 28.856H110.676L113.076 35.048L112.824 35.636C112.716 35.9 112.62 36.08 112.524 36.152C112.428 36.224 112.248 36.26 112.008 36.26H111.096V37.4H112.488C112.776 37.4 113.016 37.352 113.196 37.256C113.364 37.16 113.52 37.004 113.64 36.812C113.76 36.62 113.892 36.332 114.036 35.96L116.82 28.856H115.44L113.772 33.596L112.056 28.856Z" fill="white"/>
</svg>
