<svg width="32" height="32" viewBox="0 0 32 32" fill="none" xmlns="http://www.w3.org/2000/svg">
<path fill-rule="evenodd" clip-rule="evenodd" d="M11.0871 0.0586475C7.80838 0.151731 4.33619 0.379998 3.7604 0.540371C2.27281 0.954633 0.959511 2.26868 0.542404 3.76026C0.358805 4.41659 0.164517 7.71188 0.0416859 12.2504C-0.109676 17.8433 0.172964 26.9558 0.538181 28.2605C0.958822 29.7633 2.24005 31.0424 3.7604 31.4774C6.18124 32.1699 25.7668 32.176 28.2403 31.4849C29.7423 31.0653 31.0371 29.7702 31.4639 28.2605C31.6499 27.6028 31.8331 24.4835 31.9569 19.8709C32.1104 14.1519 31.8323 5.06317 31.4639 3.76026C31.0372 2.25082 29.7445 0.957566 28.2403 0.535195C26.8252 0.137756 17.4629 -0.122344 11.0871 0.0586475ZM21.517 1.08757C25.5824 1.2187 27.6658 1.37761 28.2621 1.60199C29.1959 1.95345 30.0459 2.80604 30.4006 3.74706C31.1748 5.80103 31.1748 26.2198 30.4006 28.2737C30.046 29.2143 29.1967 30.0666 28.2621 30.4193C26.1985 31.1984 5.80223 31.1984 3.73867 30.4193C2.8037 30.0664 1.95388 29.2135 1.60073 28.2737C0.828578 26.2191 0.828578 5.80172 1.60073 3.74706C1.95405 2.8069 2.80447 1.95362 3.73867 1.60199C4.96241 1.1414 14.5685 0.863447 21.517 1.08757ZM7.73356 8.87434C7.33481 9.00297 6.92202 9.43604 6.79556 9.85841C6.72333 10.0997 6.69109 11.0485 6.69109 12.9363C6.69109 15.5503 6.69833 15.6726 6.86349 15.8379C7.0664 16.0409 7.28309 16.0577 7.51505 15.8881C7.66926 15.7754 7.68572 15.6197 7.72546 13.8982L7.76856 12.0306L11.5181 14.8338C14.2791 16.8979 15.3643 17.6617 15.634 17.7308C16.3452 17.9128 16.4557 17.8469 20.4799 14.8409C22.5407 13.3016 24.2377 12.042 24.2511 12.042C24.2644 12.042 24.2753 14.1665 24.2753 16.763V21.484L22.0519 19.2648C20.829 18.0443 19.7605 17.0456 19.6775 17.0456C19.4247 17.0456 19.084 17.4501 19.1496 17.6725C19.1809 17.7785 20.1818 18.8454 21.3739 20.0434L23.5413 22.2217H16.0019H8.46253L10.6799 19.9965C11.8995 18.7726 12.8973 17.7032 12.8973 17.6202C12.8973 17.3671 12.4931 17.0261 12.2709 17.0918C12.165 17.1231 11.0989 18.1248 9.90193 19.3179L7.72546 21.4872V19.439C7.72546 17.5057 7.7158 17.381 7.55306 17.2182C7.45825 17.1233 7.30309 17.0456 7.20828 17.0456C7.11346 17.0456 6.9583 17.1233 6.86349 17.2182C6.69945 17.3823 6.69144 17.501 6.69764 19.6552C6.7048 22.1284 6.73307 22.3085 7.18707 22.7732C7.67115 23.2688 7.46204 23.2575 16.0535 23.2504C24.6323 23.2433 24.3148 23.2611 24.8298 22.7572C25.3205 22.277 25.3193 22.2943 25.2918 15.7947L25.2665 9.84219L25.0683 9.523C24.9592 9.34753 24.7264 9.1146 24.5511 9.00539L24.2322 8.80697L16.1297 8.79334C10.4486 8.78376 7.9394 8.808 7.73356 8.87434ZM24.1176 9.94183C24.2187 10.0334 24.2753 10.2046 24.2753 10.4192V10.7539L20.2456 13.771C16.9843 16.2128 16.1712 16.7839 15.9816 16.7659C15.8288 16.7514 14.352 15.7007 11.7364 13.7456C7.87234 10.8573 7.72546 10.7372 7.72546 10.465C7.72546 10.3097 7.78588 10.0963 7.85967 9.99083L7.99379 9.79906H15.9769C23.2843 9.79906 23.9733 9.81113 24.1176 9.94183Z" fill="white"/>
</svg>
