<svg width="57" height="56" viewBox="0 0 57 56" fill="none" xmlns="http://www.w3.org/2000/svg">
<path fill-rule="evenodd" clip-rule="evenodd" d="M46.8846 0.42169C44.0559 2.0115 40.8026 3.06217 37.1144 3.577C34.5 3.94188 33.8358 4.22868 33.5419 5.11924C33.2661 5.95521 33.6899 6.86803 34.8716 7.98245C37.5113 10.4721 41.8331 12.0501 45.6133 11.9047L46.9976 11.8515V19.4616V27.0719H43.7823C40.3773 27.0719 40.1146 27.1073 39.8909 27.5981C39.713 27.9889 39.713 55.083 39.8909 55.4738C40.1299 55.9981 40.1588 56 47.9016 56C55.6444 56 55.6732 55.9981 55.9122 55.4738C56.0901 55.083 56.0901 27.9889 55.9122 27.5981C55.6885 27.1073 55.4258 27.0719 52.0208 27.0719H48.8056V13.8068C48.8056 1.33948 48.7937 0.527459 48.6078 0.303605C48.2456 -0.132691 47.8187 -0.103424 46.8846 0.42169ZM46.9708 6.2515L46.9411 10.0653L45.02 10.0613C42.3983 10.056 40.4731 9.53564 38.1441 8.20314C36.6406 7.34286 35.0784 5.94968 35.3324 5.69565C35.3805 5.64751 36.3087 5.48016 37.395 5.32377C40.6204 4.85945 43.1477 4.14913 45.6415 3.0059C46.2941 2.70679 46.8668 2.4566 46.9143 2.44982C46.9617 2.44316 46.9872 4.15399 46.9708 6.2515ZM14.0278 6.4184C13.8592 6.49976 13.482 7.11415 12.9225 8.21884L12.073 9.89577H10.9981C10.1167 9.89577 9.59527 9.81328 8.10163 9.43778C6.60731 9.06217 6.22752 9.00205 5.98795 9.10375C5.5459 9.29122 1.38748 14.7765 0.868125 15.857C0.0889864 17.4784 0.0674033 17.6373 0.017005 22.1398C-0.0314722 26.4704 -0.00706421 26.7083 0.510817 26.9442C0.671052 27.0173 1.39301 27.0719 2.19814 27.0719H3.60534V28.4737V29.8756L3.08045 30.0545C1.4459 30.6114 0.308546 32.004 0.043221 33.7731C-0.0580275 34.4484 0.126277 34.9176 0.564041 35.099L0.893324 35.2354V36.6288C0.893324 38.1307 0.98768 38.5016 1.41957 38.6985C1.61336 38.7867 4.13633 38.8239 9.93337 38.8239C15.7304 38.8239 18.2534 38.7867 18.4472 38.6985C18.8791 38.5016 18.9734 38.1307 18.9734 36.6288V35.2354L19.3027 35.099C20.6257 34.5509 19.4178 31.3697 17.5044 30.3624L16.9959 30.0947L15.7677 26.1721C15.0242 23.7972 14.5673 22.162 14.6099 22.0276C14.6487 21.9056 14.8811 21.6096 15.1265 21.3701L15.5728 20.9343L16.8897 21.6018C19.0006 22.6718 19.3182 22.5925 21.0035 20.5743C22.3469 18.9655 22.5246 18.629 22.5246 17.6928C22.5246 16.3646 22.4396 16.2647 19.1411 13.7147L16.9959 12.0563L16.2747 9.8743C15.2208 6.68554 15.1683 6.55886 14.842 6.41015C14.4997 6.25421 14.3657 6.25557 14.0278 6.4184ZM14.8978 11.28C15.2148 12.2278 15.5113 13.0585 15.557 13.126C15.6026 13.1935 16.7711 14.1248 18.1539 15.1957C21.329 17.6548 21.2671 17.4887 19.7045 19.3539L18.7389 20.5064L17.1142 19.7065C15.1688 18.7485 15.1585 18.7489 14.0985 19.8278C12.4949 21.4598 12.4901 21.6365 13.9249 26.1962C14.5264 28.1074 15.0184 29.6964 15.0184 29.7275C15.0184 29.7584 12.8573 29.7839 10.2159 29.7839H5.41335L5.41504 25.0661C5.4173 18.7226 5.20328 19.4721 8.36357 14.7365L10.3874 11.7038H11.5676C13.1128 11.7038 13.2164 11.648 13.8026 10.5001C14.0674 9.98188 14.2924 9.55756 14.3028 9.55733C14.3132 9.55699 14.581 10.3322 14.8978 11.28ZM7.61686 11.1251C8.08073 11.2465 8.39566 11.387 8.37848 11.4649C8.36232 11.5379 7.52827 12.8273 6.52505 14.3303C3.74535 18.4944 3.70828 18.5995 3.63404 22.5236L3.58217 25.2638H2.68969H1.79733V21.9184C1.79733 17.5017 1.88502 17.1582 3.58229 14.9243C5.56126 12.3195 6.67138 10.9129 6.74619 10.9154C6.79003 10.9167 7.18181 11.0111 7.61686 11.1251ZM13.5494 15.3198V16.2238H14.4534H15.3574V15.3198V14.4158H14.4534H13.5494V15.3198ZM37.6768 22.3932C35.7515 22.8231 33.9618 23.7995 32.6459 25.1377C31.9159 25.8803 30.9515 27.2008 30.9515 27.4579C30.9515 27.5966 32.3732 28.4111 32.4449 28.3134C32.467 28.2831 32.6734 27.9677 32.9034 27.6125C35.0438 24.3072 39.1763 23.1201 43.0008 24.7123C43.4653 24.9056 43.8592 25.0453 43.8763 25.0226C43.8933 24.9999 44.0274 24.7779 44.1743 24.5293C44.3211 24.2807 44.5141 23.9624 44.6031 23.8221C44.7607 23.5734 44.7432 23.5567 43.9286 23.1803C42.0637 22.3187 39.4719 21.9925 37.6768 22.3932ZM19.6662 25.1553C19.2704 25.209 18.9194 25.2802 18.8862 25.3135C18.853 25.3466 18.8973 25.7177 18.9846 26.138L19.1433 26.9024L20.2731 26.8646C22.1099 26.8034 23.7071 27.2645 25.0837 28.2535L25.6198 28.6386L26.1955 27.9768L26.7711 27.3149L26.347 26.9612C24.8167 25.6851 21.7886 24.8665 19.6662 25.1553ZM28.2388 28.9789C26.9725 29.3935 26.2695 30.3263 26.2695 31.5919C26.2695 33.1454 27.3636 34.239 28.9175 34.239C31.7341 34.239 32.6272 30.4892 30.1178 29.1989C29.6306 28.9483 28.6739 28.8364 28.2388 28.9789ZM54.2296 41.5359V54.192H47.9016H41.5735V41.5359V28.8799H47.9016H54.2296V41.5359ZM29.5441 30.9653C29.719 31.1401 29.8215 31.3718 29.8215 31.5919C29.8215 31.812 29.719 32.0437 29.5441 32.2185C29.3692 32.3934 29.1376 32.4959 28.9175 32.4959C28.6973 32.4959 28.4657 32.3934 28.2909 32.2185C28.1159 32.0437 28.0135 31.812 28.0135 31.5919C28.0135 31.3718 28.1159 31.1401 28.2909 30.9653C28.4657 30.7904 28.6973 30.6879 28.9175 30.6879C29.1376 30.6879 29.3692 30.7904 29.5441 30.9653ZM16.5602 31.8429C17.0126 32.0904 17.5755 32.6521 17.7931 33.0729L17.9622 33.3999H9.93224H1.90242L2.03621 33.1456C2.38651 32.4802 2.93931 31.9822 3.58861 31.7471C4.28684 31.4945 16.0826 31.5815 16.5602 31.8429ZM17.1654 36.1119V37.0159H9.93337H2.70133V36.1119V35.2079H9.93337H17.1654V36.1119ZM21.2746 36.2441C21.1418 36.3083 20.9766 36.4853 20.9073 36.6372C20.7297 37.0271 20.7292 55.0839 20.9069 55.4738C21.1459 55.9981 21.1747 56 28.9175 56C36.6603 56 36.6891 55.9981 36.9281 55.4738C37.1053 55.0847 37.1053 37.0272 36.9281 36.6381C36.859 36.4867 36.6787 36.3064 36.5273 36.2373C36.1566 36.0685 21.624 36.075 21.2746 36.2441ZM35.2455 46.056V54.192H28.9175H22.5894V46.056V37.9199H28.9175H35.2455V46.056ZM2.29046 40.7641C2.15769 40.8283 1.99248 41.0053 1.92321 41.1573C1.74637 41.5454 1.74603 55.0856 1.92276 55.4738C2.16176 55.9981 2.19057 56 9.93337 56C15.0679 56 17.3504 55.9624 17.5432 55.8746C18.0656 55.6365 18.0694 55.582 18.0694 48.316C18.0694 41.0499 18.0656 40.9954 17.5432 40.7574C17.1725 40.5885 2.63986 40.595 2.29046 40.7641ZM16.2614 48.316V54.192H9.93337H3.60534V48.316V42.4399H9.93337H16.2614V48.316ZM12.6454 51.48V52.384H13.5494H14.4534V51.48V50.576H13.5494H12.6454V51.48ZM28.0135 51.48V52.384H28.9175H29.8215V51.48V50.576H28.9175H28.0135V51.48ZM31.6295 51.48V52.384H32.5335H33.4375V51.48V50.576H32.5335H31.6295V51.48ZM43.3815 51.48V52.384H44.2855H45.1895V51.48V50.576H44.2855H43.3815V51.48ZM46.9976 51.48V52.384H47.9016H48.8056V51.48V50.576H47.9016H46.9976V51.48ZM50.6136 51.48V52.384H51.5176H52.4216V51.48V50.576H51.5176H50.6136V51.48Z" fill="#FF4F4F"/>
</svg>
