<svg width="40" height="40" viewBox="0 0 40 40" fill="none" xmlns="http://www.w3.org/2000/svg">
<path fill-rule="evenodd" clip-rule="evenodd" d="M18.0632 0.0915383C6.23859 1.21919 -2.02068 12.4853 0.432844 24.1402C2.68608 34.8437 13.2382 41.7783 23.9571 39.5998C35.6972 37.2136 42.751 25.0639 38.9793 13.7251C36.0259 4.84622 27.3698 -0.796 18.0632 0.0915383ZM24.8364 10.151C24.9684 10.2832 25.0003 10.5767 25.0003 11.6634C25.0003 13.4304 25.0013 13.4291 23.5137 13.4294C21.5901 13.4296 21.3496 13.7166 21.3494 16.0108L21.3492 17.4972H23.0542C25.2917 17.4972 25.173 17.3785 24.9451 19.3886C24.7093 21.4677 24.8243 21.3565 22.9115 21.3565H21.3492V25.56C21.3492 28.6903 21.3173 29.7954 21.224 29.8887C21.0487 30.0639 17.8942 30.0639 17.719 29.8887C17.6257 29.7954 17.5938 28.6903 17.5938 25.56V21.3565H16.4284C14.8203 21.3565 14.8815 21.4333 14.8815 19.4166C14.8815 17.4335 14.8289 17.4972 16.4696 17.4972H17.5938L17.5955 15.8543C17.5976 14.0298 17.7437 13.1053 18.1665 12.2413C18.6607 11.2311 19.8532 10.3153 20.9579 10.0975C21.8165 9.9281 24.6526 9.96732 24.8364 10.151Z" fill="#282B47"/>
<path d="M25.0002 11.6636C25.0002 10.5768 24.9684 10.2833 24.8364 10.1512C24.6526 9.96749 21.8165 9.92827 20.9579 10.0977C19.8532 10.3155 18.6607 11.2313 18.1665 12.2415C17.7437 13.1054 17.5976 14.03 17.5955 15.8545L17.5938 17.4973H16.4695C14.8289 17.4973 14.8815 17.4337 14.8815 19.4168C14.8815 21.4335 14.8203 21.3566 16.4284 21.3566H17.5938V25.5602C17.5938 28.6905 17.6257 29.7956 17.7189 29.8889C17.8942 30.0641 21.0487 30.0641 21.224 29.8889C21.3172 29.7956 21.3492 28.6905 21.3492 25.5602V21.3566H22.9115C24.8243 21.3566 24.7093 21.4678 24.9451 19.3888C25.173 17.3786 25.2917 17.4973 23.0542 17.4973H21.3492L21.3494 16.011C21.3496 13.7168 21.5901 13.4298 23.5137 13.4296C25.0013 13.4293 25.0002 13.4305 25.0002 11.6636Z" fill="white"/>
</svg>
