<svg width="14" height="28" viewBox="0 0 14 28" fill="none" xmlns="http://www.w3.org/2000/svg">
<path d="M13.9156 2.33983C13.9156 0.82068 13.8719 0.410383 13.6903 0.225648C13.4375 -0.031116 9.53736 -0.0859389 8.35657 0.150849C6.83738 0.455291 5.19754 1.73546 4.51784 3.14759C3.93642 4.3553 3.73558 5.64772 3.73271 8.19815L3.73027 10.4946H2.18425C-0.0720224 10.4946 0.000421707 10.4056 0.000421707 13.1777C0.000421707 15.9969 -0.0837877 15.8894 2.12773 15.8894H3.73027V21.7654C3.73027 26.1411 3.77417 27.6859 3.90242 27.8163C4.14342 28.0612 8.48152 28.0612 8.72253 27.8163C8.85078 27.6859 8.89468 26.1411 8.89468 21.7654V15.8894H11.0432C13.6736 15.8894 13.5155 16.0448 13.8397 13.1386C14.1532 10.3287 14.3164 10.4946 11.2395 10.4946H8.89468L8.89496 8.41686C8.89525 5.20986 9.22606 4.80875 11.8714 4.80846C13.9171 4.80802 13.9156 4.80977 13.9156 2.33983Z" fill="white"/>
</svg>
