<svg width="32" height="32" viewBox="0 0 32 32" fill="none" xmlns="http://www.w3.org/2000/svg">
<path fill-rule="evenodd" clip-rule="evenodd" d="M2 1.50001C0.308968 2.41655 0.500021 1.54615 0.500021 16C0.500021 30.4172 0.312492 29.8574 2 31C3.24668 31.8437 28.758 31.842 30 31C31.9091 29.7053 31.406 30.5467 31.5 16.5C31.5955 2.23609 31.8492 2.12645 30 1C28.7454 0.235826 3.39215 0.745528 2 1.50001ZM6.69097 2.97307C8.18363 4.667 10.2062 5.93407 12.1614 6.40026C12.9561 6.58962 12.9232 6.52386 11.6224 5.32607C10.3513 4.15589 9.11055 2.28552 9.11055 1.54014C9.11055 1.34462 10.4754 1.23482 12.9082 1.23482H16.7061L17.0564 2.33572C17.5587 3.91457 18.8641 5.87506 20.4282 7.39989C21.7131 8.65257 21.7663 8.67576 21.4536 7.847C20.9928 6.62573 20.2783 3.12984 20.2783 2.09646C20.2783 1.25097 20.3077 1.23482 21.8456 1.23482C23.7829 1.23482 23.7444 1.19196 23.4946 3.06643C23.057 6.34918 24.6602 11.1116 27.1771 14.0053L28.1983 15.1796L27.4827 13.4023C26.1102 9.99421 25.931 5.95491 26.9881 2.26233C27.3252 1.0851 29.489 0.325703 30.5 1.5L31.0588 2.25616L31.2941 15.9706V28.5373L30.5 30.5L28.7059 31.0588L15.622 30.9766C0.432926 30.8812 1.00002 31.5 1.10767 27.7647V25.7483L2.0969 26.6707C4.02834 28.4724 7.68519 29.6385 9.00358 28.8731C9.5217 28.5722 9.51759 28.5546 8.92952 28.5461C8.58772 28.5414 7.37073 28.069 6.22545 27.4965C2.58005 25.6749 1.17556 23.1364 1.17556 18.3702V15.5486L5.67499 15.6693C11.4088 15.8231 12.8653 16.385 14.2019 18.9585C16.3267 23.0492 19.7167 24.5438 24.391 23.4511C26.5364 22.9494 26.6243 22.9664 26.1799 23.7957C25.6021 24.8743 25.7926 26.6082 26.5693 27.3368C29.6525 30.2306 30.6541 19.5671 27.6223 16.1261C25.1134 13.279 21.6922 12.5148 12.664 12.7849C5.29147 13.0057 4.62199 12.8812 2.57359 10.909L1.17556 9.56294V7.01354C1.17556 5.61143 1.23933 4.46414 1.31751 4.46414C1.39568 4.46414 1.78097 5.09797 2.1739 5.87242C4.00747 9.48661 8.1175 11.3212 12.5291 10.4945L13.6488 10.2846L12.1329 9.75142C8.60829 8.51136 5.64208 6.24203 3.54842 3.18327C2.46867 1.60619 2.6018 1.24774 4.26962 1.23922C4.98994 1.2357 5.45076 1.56568 6.69097 2.97307ZM20.9963 15.4353C21.8571 15.9987 21.994 17.1052 21.2767 17.7C20.8502 18.0537 20.8673 18.1403 21.4562 18.6168C21.8142 18.906 22.3388 19.1429 22.6224 19.1429C23.2977 19.1429 24.6866 18.0423 24.6866 17.5068C24.6866 16.5747 25.8005 17.311 26.7171 18.8493C27.5668 20.2749 27.5047 20.5106 26.0911 21.2311C23.1728 22.718 19.1918 22.0616 16.7452 19.6898C15.4521 18.4362 14.1737 16.0151 14.5933 15.6147C15.5129 14.7381 19.7496 14.6192 20.9963 15.4353ZM5.88395 17.0013C5.88748 17.1295 6.44969 17.6286 7.13298 18.1104C7.81656 18.5921 9.74505 20.3973 11.4182 22.1224C15.1461 25.9647 17.0147 27.0826 20.0747 27.3013C21.5376 27.4058 22.2832 27.6043 22.672 27.9927C22.9718 28.2921 23.5772 28.5373 24.0175 28.5373H24.8174L24.1644 28.0802C23.4788 27.6005 23.3298 26.782 23.7765 25.9482C24.0172 25.4994 23.8253 25.4627 21.726 25.5581C18.296 25.7137 16.4869 24.7918 12.8782 21.0502C11.3717 19.4881 9.67629 17.9756 9.11055 17.6888C7.93353 17.092 5.87484 16.6534 5.88395 17.0013ZM6.17167 20.8814C6.17167 23.8539 10.0204 27.0835 13.5189 27.0468C14.9148 27.0321 15.035 26.9884 14.4005 26.7277C10.3596 25.0675 9.08116 24.1941 7.44156 21.9729C6.48378 20.6753 6.17167 20.407 6.17167 20.8814Z" fill="#FF4F4F"/>
<rect x="0.8" y="0.8" width="30.4" height="30.4" rx="3.2" stroke="#FF4F4F" stroke-width="1.6"/>
</svg>
