<svg width="16" height="16" viewBox="0 0 16 16" fill="none" xmlns="http://www.w3.org/2000/svg">
<path fill-rule="evenodd" clip-rule="evenodd" d="M1 0.749977C0.154484 1.20825 0.25001 0.773043 0.25001 7.99997C0.25001 15.2085 0.156246 14.9287 1 15.5C1.62334 15.9218 14.379 15.921 15 15.5C15.9546 14.8526 15.703 15.2733 15.75 8.24997C15.7978 1.11801 15.9246 1.06319 15 0.49997C14.3727 0.117883 1.69608 0.372734 1 0.749977ZM3.34548 1.48651C4.09181 2.33347 5.10308 2.967 6.0807 3.2001C6.47804 3.29478 6.46158 3.2619 5.81121 2.66301C5.17567 2.07791 4.55527 1.14273 4.55527 0.770038C4.55527 0.672278 5.23768 0.617379 6.45409 0.617379H8.35305L8.52821 1.16783C8.77934 1.95725 9.43206 2.9375 10.2141 3.69991C10.8565 4.32625 10.8831 4.33785 10.7268 3.92347C10.4964 3.31283 10.1392 1.56489 10.1392 1.0482C10.1392 0.625452 10.1539 0.617379 10.9228 0.617379C11.8915 0.617379 11.8722 0.595948 11.7473 1.53319C11.5285 3.17456 12.3301 5.55574 13.5885 7.00263L14.0992 7.58978L13.7414 6.70113C13.0551 4.99707 12.9655 2.97743 13.494 1.13113C13.6626 0.542518 14.7445 0.162821 15.25 0.74997L15.5294 1.12805L15.6471 7.98527V14.2686L15.25 15.25L14.3529 15.5294L7.81098 15.4883C0.216463 15.4406 0.50001 15.75 0.553835 13.8823V12.8741L1.04845 13.3353C2.01417 14.2362 3.8426 14.8192 4.50179 14.4365C4.76085 14.2861 4.75879 14.2773 4.46476 14.273C4.29386 14.2707 3.68537 14.0345 3.11272 13.7482C1.29003 12.8374 0.58778 11.5682 0.58778 9.18506V7.77429L2.8375 7.83462C5.70438 7.91154 6.43263 8.19249 7.10094 9.47922C8.16334 11.5246 9.85835 12.2719 12.1955 11.7255C13.2682 11.4747 13.3121 11.4832 13.0899 11.8978C12.8011 12.4371 12.8963 13.3041 13.2846 13.6684C14.8262 15.1153 15.327 9.78351 13.8111 8.06302C12.5567 6.63948 10.8461 6.25739 6.33198 6.39243C2.64573 6.50282 2.311 6.44058 1.28679 5.45446L0.58778 4.78144V3.50674C0.58778 2.80568 0.619667 2.23204 0.658754 2.23204C0.697842 2.23204 0.890486 2.54895 1.08695 2.93618C2.00374 4.74328 4.05875 5.66055 6.26453 5.2472L6.82439 5.14224L6.06645 4.87568C4.30415 4.25565 2.82104 3.12098 1.77421 1.59161C1.23433 0.803065 1.3009 0.623838 2.13481 0.619581C2.49497 0.61782 2.72538 0.782808 3.34548 1.48651ZM10.4981 7.71763C10.9285 7.99931 10.997 8.55256 10.6383 8.84995C10.4251 9.02683 10.4336 9.07013 10.7281 9.30836C10.9071 9.45295 11.1694 9.57141 11.3112 9.57141C11.6489 9.57141 12.3433 9.0211 12.3433 8.75336C12.3433 8.28731 12.9002 8.65545 13.3586 9.42462C13.7834 10.1374 13.7524 10.2553 13.0456 10.6155C11.5864 11.359 9.59591 11.0308 8.37259 9.84487C7.72604 9.21809 7.08683 8.00753 7.29667 7.80731C7.75646 7.36901 9.8748 7.30956 10.4981 7.71763ZM2.94197 8.5006C2.94374 8.56474 3.22484 8.81428 3.56649 9.05516C3.90828 9.29603 4.87253 10.1986 5.70908 11.0612C7.57307 12.9823 8.50734 13.5413 10.0373 13.6506C10.7688 13.7029 11.1416 13.8021 11.336 13.9963C11.4859 14.146 11.7886 14.2686 12.0087 14.2686H12.4087L12.0822 14.0401C11.7394 13.8002 11.6649 13.391 11.8882 12.9741C12.0086 12.7496 11.9126 12.7313 10.863 12.779C9.14802 12.8568 8.24343 12.3959 6.4391 10.5251C5.68586 9.74403 4.83814 8.98778 4.55527 8.84437C3.96676 8.54595 2.93742 8.32665 2.94197 8.5006ZM3.08583 10.4407C3.08583 11.9269 5.01021 13.5417 6.75944 13.5234C7.45742 13.516 7.51752 13.4942 7.20027 13.3638C5.17979 12.5337 4.54058 12.097 3.72078 10.9864C3.24189 10.3376 3.08583 10.2035 3.08583 10.4407Z" fill="#FF4F4F"/>
<rect x="0.4" y="0.4" width="15.2" height="15.2" rx="1.6" stroke="#FF4F4F" stroke-width="0.8"/>
</svg>
