<svg width="40" height="40" viewBox="0 0 40 40" fill="none" xmlns="http://www.w3.org/2000/svg">
<path d="M29.7572 14.1593C29.1291 12.3397 27.7908 10.9747 25.9391 10.265C25.3862 10.0532 25.1792 10.0445 20.2538 10.0276C17.4425 10.0179 15.0249 10.031 14.8815 10.0564C12.8024 10.4259 10.9553 12.0547 10.2288 14.1593C10.0445 14.6932 10.0308 15.0978 10.0308 20.0004C10.0308 24.903 10.0445 25.3076 10.2288 25.8415C10.8696 27.6978 12.3028 29.1313 14.1513 29.7649C14.6837 29.9474 15.104 29.9616 19.993 29.9616C25.2089 29.9616 25.2678 29.9592 25.9504 29.7234C27.6918 29.1214 29.1144 27.7011 29.7141 25.9657C29.9537 25.2723 29.9552 25.2338 29.9552 20.0004C29.9552 15.0978 29.9415 14.6932 29.7572 14.1593Z" fill="white"/>
<path fill-rule="evenodd" clip-rule="evenodd" d="M18.0632 0.0915383C6.23859 1.21919 -2.02068 12.4853 0.432844 24.1402C2.68608 34.8437 13.2382 41.7783 23.9571 39.5998C35.6972 37.2136 42.751 25.0639 38.9793 13.7251C36.0259 4.84622 27.3698 -0.796 18.0632 0.0915383ZM25.9391 10.2651C27.7908 10.9748 29.1291 12.3398 29.7573 14.1594C29.9415 14.6933 29.9553 15.0979 29.9553 20.0005C29.9553 25.2339 29.9537 25.2724 29.7141 25.9657C29.1145 27.7012 27.6918 29.1215 25.9505 29.7235C25.2678 29.9593 25.209 29.9617 19.9931 29.9617C15.104 29.9617 14.6838 29.9475 14.1513 29.765C12.3028 29.1314 10.8696 27.6978 10.2288 25.8416C10.0446 25.3077 10.0308 24.9031 10.0308 20.0005C10.0308 15.0979 10.0446 14.6933 10.2288 14.1594C10.9554 12.0548 12.8024 10.426 14.8815 10.0565C15.025 10.031 17.4425 10.018 20.2538 10.0277C25.1793 10.0446 25.3862 10.0533 25.9391 10.2651ZM14.6811 12.2446C13.6336 12.6114 12.6729 13.528 12.2914 14.5254C12.0707 15.1017 12.065 15.2407 12.065 20.0005C12.065 25.7878 12.0357 25.6136 13.2075 26.7854C14.3794 27.957 14.2051 27.9277 19.9931 27.9277C25.7789 27.9277 25.6032 27.9573 26.7831 26.7854C27.9541 25.6224 27.9269 25.7815 27.9385 20.041C27.9502 14.2818 27.971 14.4045 26.7799 13.2156C25.6052 12.0432 25.7785 12.0723 20.0098 12.0783C15.8939 12.0824 15.0711 12.1081 14.6811 12.2446ZM25.88 13.7365C27.1855 14.597 26.0789 16.6628 24.6704 15.9944C23.7388 15.5524 23.6798 14.1745 24.5718 13.6897C24.957 13.4804 25.522 13.5007 25.88 13.7365ZM20.9438 14.8894C23.7836 15.4159 25.7628 18.4561 25.0492 21.1956C23.8222 25.9057 17.5009 26.6178 15.3621 22.287C13.4795 18.475 16.7689 14.1153 20.9438 14.8894ZM19.1585 16.9627C16.893 17.7081 16.1295 20.4251 17.7052 22.1344C18.8799 23.4087 20.9254 23.4513 22.1943 22.228C23.4123 21.0538 23.4123 18.9472 22.1943 17.7729C21.4369 17.0427 20.0447 16.6711 19.1585 16.9627Z" fill="#282B47"/>
</svg>
