<svg width="28" height="28" viewBox="0 0 28 28" fill="none" xmlns="http://www.w3.org/2000/svg">
<path fill-rule="evenodd" clip-rule="evenodd" d="M6.77822 0.0308387C3.67451 0.461275 0.413836 3.72383 0.0676011 6.74533C-0.024648 7.5503 -0.0215324 20.4757 0.0711186 21.2534C0.337063 23.4867 2.16154 25.9224 4.50219 27.1692C5.73011 27.8233 6.0862 27.8951 8.44639 27.9644C10.8177 28.0341 20.5361 27.9936 21.2536 27.911C24.1423 27.5785 27.2186 24.6837 27.8482 21.7055C28.0495 20.7533 28.0511 7.35153 27.8501 6.30942C27.6422 5.23174 26.8766 3.80466 25.9348 2.73914C24.7312 1.3774 22.7425 0.238749 21.2839 0.0761482C20.6917 0.0101435 7.23067 -0.0319009 6.77822 0.0308387ZM20.6307 2.94017C21.3284 3.02471 21.9092 3.17435 22.2551 3.3586C22.8623 3.68219 24.3165 5.13856 24.642 5.74898C25.0095 6.43821 25.0933 7.06305 25.1522 9.54937C25.2049 11.7763 25.1332 19.9762 25.0552 20.6377C24.8866 22.0684 24.6414 22.5138 23.3377 23.7575C21.8542 25.1727 21.8942 25.1672 13.2422 25.132C5.71132 25.1014 6.06379 25.1649 4.44591 23.5458C3.57427 22.6735 3.35867 22.3837 3.17121 21.8326C2.88366 20.9872 2.87959 20.8902 2.85708 14.3465C2.83156 6.90657 2.83316 6.87875 3.34943 5.85181C4.04788 4.46239 5.67691 3.17264 6.98929 2.96996C7.80205 2.84443 19.6274 2.81866 20.6307 2.94017ZM20.9667 4.95743C19.3165 5.20125 19.0304 7.5409 20.5535 8.33562C20.9925 8.56473 21.6752 8.56995 22.0771 8.34732C23.1253 7.76679 23.3984 6.36944 22.6283 5.52706C22.2766 5.14233 21.9984 5.00887 21.3844 4.9303C21.3153 4.92146 21.1273 4.93367 20.9667 4.95743ZM12.7674 6.78913C10.138 7.27733 8.02127 9.09945 7.12104 11.6497C6.61035 13.0963 6.5997 14.7761 7.09179 16.2465C8.25908 19.7343 11.6068 21.7479 15.2119 21.1306C19.5631 20.3855 22.2906 15.9751 20.9328 11.8799C20.1855 9.62608 18.3916 7.77684 16.2594 7.06219C15.2981 6.74001 13.7036 6.61533 12.7674 6.78913ZM14.5571 9.64823C16.9684 10.0704 18.4605 11.8565 18.3548 14.1942C18.245 16.6205 16.4088 18.3709 13.9733 18.3709C10.3484 18.3709 8.31841 14.2996 10.4858 11.3767C10.9507 10.7497 11.5302 10.2882 12.313 9.92149C13.0514 9.57554 13.6947 9.49723 14.5571 9.64823Z" fill="white"/>
</svg>
