<svg width="28" height="28" viewBox="0 0 28 28" fill="none" xmlns="http://www.w3.org/2000/svg">
<path d="M7.22975 5.52607C8.19759 3.68539 7.4186 1.34814 5.51197 0.371455C4.92504 0.0706778 3.33667 -0.102966 2.72407 0.0664492C-0.0022006 0.820651 -0.922207 4.40417 1.0754 6.48817C2.84542 8.33453 6.0135 7.83926 7.22975 5.52607Z" fill="white"/>
<path d="M27.6222 14.2132C26.8604 11.1445 25.4343 9.63285 22.7721 9.07212C20.1785 8.52596 17.7973 9.09938 16.1867 10.6581L15.4163 11.4037V10.5057C15.4163 9.194 15.3277 9.15376 12.4424 9.15376C10.173 9.15376 10.1126 9.16178 9.76058 9.51169L9.40035 9.86947V18.6239C9.40035 27.1839 9.40681 27.3847 9.69381 27.6698C10.1143 28.0877 14.7877 28.1189 15.1623 27.7063C15.3623 27.486 15.4005 26.734 15.4419 22.199L15.4897 16.9468L15.9788 15.9604C16.5986 14.7096 17.2647 14.2276 18.4954 14.1393C19.6181 14.0585 20.2933 14.299 20.8906 14.9924C21.7427 15.9815 21.7659 16.155 21.8341 22.0567C21.8876 26.7001 21.9284 27.4867 22.1272 27.7063C22.4401 28.052 27.2116 28.0929 27.6771 27.754C28.1384 27.418 28.0925 16.1078 27.6222 14.2132Z" fill="white"/>
<path d="M6.75919 18.65C6.75919 11.2366 6.72529 9.74657 6.55127 9.50965C6.22582 9.06687 1.70795 8.99397 1.17473 9.42305L0.816561 9.71114V18.5295C0.816561 26.9964 0.827712 27.3599 1.09608 27.6545C1.46805 28.0629 5.86647 28.1288 6.433 27.7344L6.75919 27.5076V18.65Z" fill="white"/>
</svg>
