<svg width="40" height="40" viewBox="0 0 40 40" fill="none" xmlns="http://www.w3.org/2000/svg">
<path fill-rule="evenodd" clip-rule="evenodd" d="M18.0632 0.0915383C6.23859 1.21919 -2.02068 12.4853 0.432844 24.1402C2.68608 34.8437 13.2382 41.7783 23.9571 39.5998C35.6972 37.2136 42.751 25.0639 38.9793 13.7251C36.0259 4.84622 27.3698 -0.796 18.0632 0.0915383ZM13.9948 10.2753C15.3503 10.9741 15.9042 12.6462 15.2161 13.9631C14.3514 15.618 12.0991 15.9723 10.8407 14.6514C9.42056 13.1604 10.0746 10.5967 12.0128 10.0571C12.4484 9.93592 13.5776 10.0601 13.9948 10.2753ZM26.2657 16.5C28.1583 16.9011 29.1722 17.9826 29.7138 20.178C30.0481 21.5335 30.0808 29.6251 29.7528 29.8654C29.4219 30.1079 26.0296 30.0786 25.8072 29.8313C25.6659 29.6742 25.6369 29.1115 25.5988 25.7895C25.5503 21.5673 25.5338 21.4431 24.9281 20.7355C24.5034 20.2395 24.0234 20.0674 23.2252 20.1251C22.3503 20.1883 21.8767 20.5332 21.4361 21.428L21.0884 22.1338L21.0544 25.8913C21.025 29.1357 20.9978 29.6737 20.8556 29.8313C20.5893 30.1265 17.2668 30.1042 16.9679 29.8052C16.7638 29.6012 16.7592 29.4576 16.7592 23.3336V17.0704L17.0153 16.8145C17.2656 16.5641 17.3086 16.5584 18.9219 16.5584C20.9732 16.5584 21.0362 16.5872 21.0362 17.5256V18.168L21.5839 17.6346C22.729 16.5195 24.4218 16.1093 26.2657 16.5ZM14.7337 16.813C14.8574 16.9825 14.8815 18.0485 14.8815 23.3523V29.6891L14.6496 29.8514C14.2469 30.1336 11.1199 30.0864 10.8554 29.7943C10.6646 29.5835 10.6567 29.3235 10.6567 23.266V16.9572L10.9113 16.7511C11.2904 16.4441 14.5023 16.4962 14.7337 16.813Z" fill="#282B47"/>
<path d="M15.2159 13.963C15.904 12.6461 15.3502 10.974 13.9947 10.2753C13.5774 10.0601 12.4482 9.93586 12.0127 10.0571C10.0745 10.5966 9.42042 13.1604 10.8406 14.6513C12.099 15.9722 14.3513 15.6179 15.2159 13.963Z" fill="white"/>
<path d="M29.7137 20.178C29.1721 17.9825 28.1582 16.9011 26.2656 16.4999C24.4217 16.1092 22.7288 16.5194 21.5837 17.6346L21.0361 18.168V17.5256C21.0361 16.5871 20.9731 16.5583 18.9218 16.5583C17.3084 16.5583 17.2655 16.5641 17.0152 16.8144L16.7591 17.0704V23.3335C16.7591 29.4575 16.7637 29.6012 16.9677 29.8052C17.2667 30.1041 20.5892 30.1264 20.8555 29.8313C20.9977 29.6736 21.0248 29.1356 21.0542 25.8912L21.0882 22.1337L21.4359 21.428C21.8766 20.5331 22.3502 20.1883 23.2251 20.1251C24.0233 20.0673 24.5033 20.2394 24.9279 20.7355C25.5337 21.4431 25.5502 21.5672 25.5987 25.7894C25.6368 29.1114 25.6658 29.6742 25.8071 29.8313C26.0295 30.0786 29.4218 30.1079 29.7527 29.8654C30.0806 29.625 30.048 21.5334 29.7137 20.178Z" fill="white"/>
<path d="M14.8814 23.3522C14.8814 18.0485 14.8573 16.9824 14.7336 16.8129C14.5022 16.4962 11.2903 16.444 10.9112 16.751L10.6566 16.9571V23.2659C10.6566 29.3234 10.6645 29.5834 10.8553 29.7942C11.1197 30.0864 14.2467 30.1335 14.6495 29.8514L14.8814 29.6891V23.3522Z" fill="white"/>
</svg>
