<svg width="32" height="32" viewBox="0 0 32 32" fill="none" xmlns="http://www.w3.org/2000/svg">
<path fill-rule="evenodd" clip-rule="evenodd" d="M12.4232 0.0325402C8.18902 0.133542 4.55746 0.349249 3.80349 0.544532C2.30143 0.933632 0.965804 2.25261 0.542404 3.76523C0.358805 4.42088 0.164517 7.71276 0.0416859 12.2466C-0.109676 17.8337 0.172964 26.9368 0.538181 28.2402C0.957874 29.7379 2.26893 31.048 3.7604 31.4598C4.43351 31.6457 7.66478 31.8383 12.1031 31.9571C17.8329 32.1104 26.9132 31.8314 28.2403 31.4611C29.7421 31.0423 31.0371 29.7484 31.4639 28.2402C31.6499 27.5831 31.8331 24.4671 31.9569 19.8592C32.1104 14.1461 31.8323 5.0668 31.4639 3.76523C31.0372 2.25735 29.7445 0.965432 28.2403 0.543498C26.9854 0.191369 17.9715 -0.0997452 12.4232 0.0325402ZM21.517 1.0953C25.5824 1.2263 27.6658 1.38504 28.2621 1.60919C29.1959 1.96029 30.0459 2.812 30.4006 3.75204C31.174 5.80173 31.174 26.2037 30.4006 28.2534C30.046 29.193 29.1967 30.0443 28.2621 30.3967C26.197 31.1755 5.8037 31.1755 3.73867 30.3967C2.8037 30.0442 1.95388 29.1922 1.60073 28.2534C0.828578 26.2008 0.828578 5.80458 1.60073 3.75204C1.95405 2.81286 2.80447 1.96046 3.73867 1.60919C4.96241 1.14908 14.5685 0.87141 21.517 1.0953ZM14.8367 6.81908C13.3424 7.1158 12.3198 7.66062 11.238 8.7364C10.6229 9.3481 10.5123 9.64163 10.7916 9.92094C11.0508 10.1801 11.2942 10.0783 11.9619 9.43152C13.2418 8.19166 14.2509 7.77955 16.0004 7.78222C17.0394 7.78377 17.2314 7.80833 17.7938 8.01172C19.5587 8.64988 20.841 9.94446 21.4468 11.6993C21.7487 12.574 21.7259 14.683 21.4016 15.8688C20.7593 18.2181 19.2899 20.4777 16.424 23.5236L15.9999 23.9743L15.6014 23.5446C11.8341 19.4829 10.4736 16.9974 10.3408 13.9344C10.3049 13.105 10.3268 12.7183 10.4361 12.2539C10.6835 11.203 10.6822 11.2269 10.4983 11.0606C9.73618 10.371 9.14383 12.0533 9.34984 14.3222C9.58318 16.8925 10.4887 18.9519 12.4915 21.4674C13.1284 22.2674 15.6352 25.1493 15.7767 25.2441C16.0413 25.4216 16.2062 25.3222 16.8192 24.6161C18.2286 22.9925 18.8069 22.3302 18.8469 22.2938C18.8729 22.2701 19.1295 21.9599 19.417 21.6044C23.7259 16.278 23.8177 10.5608 19.6385 7.80842C18.2637 6.90302 16.3744 6.51375 14.8367 6.81908ZM15.1815 9.91723C13.3733 10.3568 12.1289 12.216 12.4557 13.9895C12.9914 16.896 16.4697 18.019 18.5364 15.9528C21.0642 13.4255 18.6458 9.07491 15.1815 9.91723ZM17.164 11.1125C17.4011 11.2341 17.7169 11.4631 17.8658 11.6214C18.8305 12.6463 18.7985 14.34 17.7966 15.2824C16.7946 16.2251 15.2061 16.2251 14.2041 15.2824C13.2023 14.34 13.1703 12.6459 14.1349 11.6215C14.8781 10.8323 16.1891 10.612 17.164 11.1125Z" fill="white"/>
</svg>
