<svg width="56" height="56" viewBox="0 0 56 56" fill="none" xmlns="http://www.w3.org/2000/svg">
<path fill-rule="evenodd" clip-rule="evenodd" d="M40.6461 1.35508V2.71016H41.5493H42.4525V1.35508V0H41.5493H40.6461V1.35508ZM31.3578 3.36173L30.712 4.01454L31.646 4.9439L32.5799 5.87315L33.2258 5.22045L33.8716 4.56764L32.9376 3.63828L32.0037 2.70903L31.3578 3.36173ZM50.1541 3.64517L49.2251 4.57927L49.8776 5.22531L50.5303 5.87123L51.4594 4.93701L52.3885 4.00291L51.7359 3.35688L51.0833 2.71095L50.1541 3.64517ZM40.1381 4.63449C32.227 5.86592 28.9257 15.3726 34.2839 21.4924C35.9288 23.3712 36.1303 23.8546 36.1303 25.9225C36.1303 27.3102 36.2312 27.686 36.656 27.8797C37.0436 28.0563 46.0594 28.0543 46.4473 27.8774C46.8613 27.6888 46.9511 27.3193 46.9933 25.6336C47.041 23.7241 47.2727 23.1746 48.6925 21.6029C52.0475 17.889 52.381 12.6487 49.5169 8.64677C47.4234 5.72149 43.6166 4.09302 40.1381 4.63449ZM43.2769 6.50326C47.5945 7.45746 50.4132 11.9188 49.4981 16.3502C49.153 18.0216 48.5267 19.1709 47.1407 20.6764C45.8112 22.1206 45.169 23.6854 45.1639 25.4925L45.162 26.1982H41.5663H37.9707L37.9008 25.1537C37.777 23.3012 37.2514 22.0847 35.9824 20.7129C34.0538 18.6282 33.3149 16.7228 33.4512 14.1858C33.7256 9.0813 38.401 5.42575 43.2769 6.50326ZM41.1386 9.166C40.9865 9.23974 40.6566 9.79001 40.2461 10.6547C39.888 11.4091 39.5784 12.0467 39.558 12.0715C39.5255 12.111 37.0082 12.5283 36.7743 12.5328C36.7249 12.5337 36.5598 12.6593 36.4074 12.8117C35.9194 13.2998 36.0244 13.5559 37.2421 14.8479L38.3538 16.0275L38.102 17.5267C37.8296 19.1487 37.8558 19.4035 38.3259 19.7117C38.7041 19.9596 38.9505 19.8876 40.2938 19.1371C40.9018 18.7975 41.4669 18.5194 41.5493 18.5194C41.6317 18.5194 42.1968 18.7975 42.8048 19.1371C44.148 19.8876 44.3945 19.9596 44.7727 19.7117C45.2428 19.4035 45.269 19.1487 44.9966 17.5267L44.7448 16.0275L45.8565 14.8479C46.9655 13.6712 47.0936 13.4313 46.8528 12.9813C46.6726 12.6446 46.413 12.5547 44.9356 12.3176C44.1775 12.196 43.5453 12.0807 43.5304 12.0614C43.5156 12.0422 43.2107 11.4096 42.8529 10.6556C42.1034 9.07667 41.8242 8.834 41.1386 9.166ZM41.8969 12.7816C42.2621 13.5644 42.481 13.745 43.1697 13.8323C44.23 13.9666 44.2236 13.9551 43.6032 14.6112C42.9221 15.3315 42.859 15.5148 43.0105 16.3344C43.196 17.3377 43.1993 17.3336 42.5234 16.9468C41.7596 16.5097 41.3657 16.5102 40.588 16.9492C39.8969 17.3394 39.9013 17.3447 40.0881 16.3344C40.2396 15.5148 40.1765 15.3315 39.4954 14.6112C38.875 13.9551 38.8686 13.9666 39.9289 13.8323C40.6176 13.745 40.8365 13.5644 41.2017 12.7816C41.3519 12.4593 41.5084 12.1957 41.5493 12.1957C41.5902 12.1957 41.7466 12.4593 41.8969 12.7816ZM27.0986 13.5508V14.4542H28.4533H29.8081V13.5508V12.6474H28.4533H27.0986V13.5508ZM53.2905 13.5508V14.4542H54.6452H56V13.5508V12.6474H54.6452H53.2905V13.5508ZM13.551 20.7779V21.6813H14.4542H15.3574V20.7779V19.8745H14.4542H13.551V20.7779ZM17.1637 20.7779V21.6813L17.9822 21.683C20.8213 21.6888 23.2785 23.5025 24.1755 26.2547C24.2894 26.6042 24.338 28.8521 24.3909 36.192C24.4515 44.6339 24.48 45.7472 24.6493 46.3113C25.529 49.2409 27.6143 51.3222 30.4728 52.1234C31.3204 52.361 34.341 52.4649 35.4369 52.2942C38.7311 51.7809 41.2702 49.5286 42.1815 46.3113C42.3015 45.8876 42.3807 44.9946 42.4205 43.6167L42.48 41.5558H41.5631H40.6461L40.6444 43.2779C40.6418 45.9583 40.1698 47.3406 38.7838 48.7269C37.4119 50.0992 36.0067 50.5863 33.4208 50.5863C31.4934 50.5863 30.6879 50.4286 29.5375 49.8253C28.1391 49.0922 26.9328 47.6234 26.409 46.0163C26.2951 45.6668 26.2464 43.419 26.1936 36.079C26.133 27.6371 26.1045 26.5238 25.9352 25.9597C24.8174 22.2371 21.6927 19.8799 17.8693 19.8754L17.1637 19.8745V20.7779ZM8.67799 22.907C7.54429 23.2827 6.51693 24.143 6.00619 25.1443C5.88099 25.3897 4.47848 30.4437 2.88924 36.3755L0 47.1603L0.850673 51.3222C1.69536 55.4548 1.76355 55.691 2.17404 55.9108C2.68151 56.1825 2.97662 55.9454 5.04533 53.6049C6.15318 52.3515 7.42495 50.9159 7.87157 50.4148L8.68363 49.5036L11.5747 38.7261C14.4207 28.1169 14.4653 27.9335 14.4313 26.9887C14.3692 25.2678 13.4387 23.8464 11.9039 23.128C10.9408 22.6772 9.64009 22.5881 8.67799 22.907ZM11.0427 24.6795C11.8696 25.0244 12.5659 25.928 12.7127 26.8464C12.7691 27.1993 12.5282 28.6228 12.3905 28.7499C12.3461 28.7909 7.28779 27.4188 7.20661 27.3438C7.04709 27.1963 7.64307 25.7394 8.02906 25.3336C8.77576 24.5483 10.0602 24.2696 11.0427 24.6795ZM37.0334 29.8118V30.7152H41.5493H46.0651V29.8118V28.9084H41.5493H37.0334V29.8118ZM7.73689 29.3442C8.29956 29.5035 8.40794 29.5737 8.37689 29.7586C8.32214 30.0856 3.81691 46.9113 3.76938 46.9668C3.69498 47.0535 2.03563 46.5937 2.03563 46.4864C2.03563 46.3921 6.08397 31.2035 6.50259 29.7271C6.69305 29.0555 6.70479 29.0518 7.73689 29.3442ZM11.3684 30.3324C11.9466 30.4984 11.9508 30.503 11.8518 30.8481C11.797 31.0396 10.7531 34.9373 9.53228 39.5097C8.31142 44.082 7.28101 47.855 7.24252 47.894C7.1373 48.0005 5.53541 47.5351 5.53541 47.3982C5.53541 47.2759 9.8573 31.068 10.0692 30.3954C10.2002 29.9798 10.149 29.9823 11.3684 30.3324ZM37.5213 31.7528C36.8771 32.0644 36.9739 33.0063 37.7721 34.1917C39.1693 36.2671 42.2846 36.73 44.3955 35.1761C45.3917 34.4428 46.2266 32.8458 45.9557 32.1917C45.8834 32.0167 45.6981 31.8163 45.5441 31.7462C45.1718 31.5764 37.8735 31.5824 37.5213 31.7528ZM43.4685 33.6573C42.3713 34.5394 40.7279 34.56 39.6865 33.7046L39.3478 33.4265L41.5493 33.4284L43.7508 33.4303L43.4685 33.6573ZM40.6461 38.8457V39.7491H41.5493H42.4525V38.8457V37.9423H41.5493H40.6461V38.8457ZM4.16993 48.9708C5.26243 49.2605 6.17915 49.5161 6.20703 49.5391C6.23492 49.5619 6.09515 49.7431 5.89668 49.9417L5.53564 50.3029L4.00093 49.9099C3.15692 49.6938 2.42309 49.4903 2.37014 49.4576C2.25973 49.3897 2.02784 48.4442 2.12155 48.4442C2.15564 48.4442 3.07744 48.6812 4.16993 48.9708ZM4.09655 51.8189C4.14329 51.8638 3.93195 52.1773 3.62668 52.5156C3.22646 52.9591 3.05531 53.0833 3.01275 52.9611C2.9432 52.7614 2.71301 51.6381 2.71301 51.4983C2.71301 51.3946 3.9543 51.6822 4.09655 51.8189Z" fill="#FF4F4F"/>
</svg>
