<svg width="100" height="100" viewBox="0 0 100 100" fill="none" xmlns="http://www.w3.org/2000/svg">
<path d="M33.3333 41.6667H20.8333V29.1667H12.5V41.6667H0V50H12.5V62.5H20.8333V50H33.3333V41.6667ZM75 45.8334C81.9167 45.8334 87.4583 40.25 87.4583 33.3334C87.4583 26.4167 81.9167 20.8334 75 20.8334C73.6667 20.8334 72.375 21.0417 71.2083 21.4167C73.5833 24.7917 74.9583 28.875 74.9583 33.3334C74.9583 37.7917 73.5417 41.8334 71.2083 45.25C72.375 45.625 73.6667 45.8334 75 45.8334ZM54.1667 45.8334C61.0833 45.8334 66.625 40.25 66.625 33.3334C66.625 26.4167 61.0833 20.8334 54.1667 20.8334C47.25 20.8334 41.6667 26.4167 41.6667 33.3334C41.6667 40.25 47.25 45.8334 54.1667 45.8334ZM81.75 54.8334C85.2083 57.875 87.5 61.75 87.5 66.6667V75H100V66.6667C100 60.25 90.125 56.2917 81.75 54.8334ZM54.1667 54.1667C45.8333 54.1667 29.1667 58.3334 29.1667 66.6667V75H79.1667V66.6667C79.1667 58.3334 62.5 54.1667 54.1667 54.1667Z" fill="#FF4F4F"/>
</svg>
