<svg width="32" height="32" viewBox="0 0 32 32" fill="none" xmlns="http://www.w3.org/2000/svg">
<path fill-rule="evenodd" clip-rule="evenodd" d="M11.0871 0.0586475C7.80838 0.151731 4.33619 0.379998 3.7604 0.540371C2.27281 0.954633 0.959511 2.26868 0.542404 3.76026C0.358805 4.41659 0.164517 7.71188 0.0416859 12.2504C-0.109676 17.8433 0.172964 26.9558 0.538181 28.2605C0.958822 29.7633 2.24005 31.0424 3.7604 31.4774C6.18124 32.1699 25.7668 32.176 28.2403 31.4849C29.7423 31.0653 31.0371 29.7702 31.4639 28.2605C31.6499 27.6028 31.8331 24.4835 31.9569 19.8709C32.1104 14.1519 31.8323 5.06317 31.4639 3.76026C31.0372 2.25082 29.7445 0.957566 28.2403 0.535195C26.8252 0.137756 17.4629 -0.122344 11.0871 0.0586475ZM21.517 1.08757C25.5824 1.2187 27.6658 1.37761 28.2621 1.60199C29.1959 1.95345 30.0459 2.80604 30.4006 3.74706C31.1748 5.80103 31.1748 26.2198 30.4006 28.2737C30.046 29.2143 29.1967 30.0666 28.2621 30.4193C26.1985 31.1984 5.80223 31.1984 3.73867 30.4193C2.8037 30.0664 1.95388 29.2135 1.60073 28.2737C0.828578 26.2191 0.828578 5.80172 1.60073 3.74706C1.95405 2.8069 2.80447 1.95362 3.73867 1.60199C4.96241 1.1414 14.5685 0.863447 21.517 1.08757ZM10.2009 6.78777C9.52094 6.94754 9.18391 7.24344 7.98146 8.73631C6.52146 10.549 6.30984 12.8129 7.42653 14.6732C7.93923 15.5272 8.86886 16.703 9.07177 16.7539C9.33131 16.8192 9.60878 16.6531 9.67385 16.3936C9.73143 16.164 9.75583 16.205 8.71871 14.7815C8.06223 13.8803 7.81079 13.2585 7.74916 12.3838C7.67779 11.3709 8.04473 10.162 8.61372 9.53559C8.71914 9.41956 9.05496 9.02074 9.35993 8.64936C10.4823 7.28286 10.8032 7.34014 12.2719 9.16895C14.2188 11.5932 14.2075 11.5463 13.1082 12.6065C12.2005 13.4819 12.0706 14.4826 12.7428 15.4217C13.0896 15.9063 16.1044 18.9236 16.5886 19.2707C17.5269 19.9435 18.5267 19.8135 19.4014 18.905C20.3024 17.9693 20.5246 17.9451 21.4901 18.6785C24.8131 21.2021 24.8812 21.3645 23.2157 22.7848C21.4869 24.259 20.0681 24.6355 18.4886 24.0392C17.2792 23.5827 14.0682 20.9453 11.8258 18.5667C10.673 17.3438 10.486 17.227 10.1954 17.5485C9.8434 17.9377 9.94107 18.0791 11.9276 20.0571C13.7289 21.8507 15.0364 22.9837 16.6037 24.1089C18.8818 25.7444 21.2053 25.6946 23.3702 23.9636C25.0473 22.6227 25.4482 21.9747 25.223 20.9688C25.081 20.3345 24.7887 20.0153 23.1525 18.7077C21.3464 17.2642 21.2651 17.2182 20.5266 17.2182C19.8157 17.2182 19.4596 17.3899 18.8891 18.0079C17.8639 19.1184 17.6379 19.0361 15.3075 16.7038C12.9995 14.394 12.9385 14.2405 13.921 13.219C14.2471 12.8801 14.5817 12.4692 14.6645 12.3058C14.8661 11.9084 14.8653 11.0514 14.6629 10.6567C14.5012 10.3416 12.2892 7.53477 11.9941 7.27053C11.5515 6.87412 10.7508 6.65854 10.2009 6.78777ZM16.9701 6.82219C16.8451 6.91225 16.7761 7.05158 16.7761 7.21393C16.7761 7.56677 17.0328 7.6979 17.8494 7.76191C21.2007 8.02469 23.9861 10.7829 24.2371 14.0872C24.3047 14.9764 24.4294 15.234 24.7925 15.234C25.2583 15.234 25.3502 14.953 25.231 13.8932C24.7949 10.0137 21.732 7.05951 17.8105 6.73575C17.2907 6.69278 17.126 6.70978 16.9701 6.82219ZM16.9116 10.0209C16.5099 10.423 16.8504 10.7858 17.7384 10.9022C19.4907 11.1317 20.8349 12.471 21.0994 14.2508C21.209 14.988 21.3476 15.234 21.6535 15.234C21.9759 15.234 22.1204 15.0108 22.1204 14.5127C22.1204 12.5025 20.5248 10.5425 18.4604 10.0163C17.7807 9.84305 17.0872 9.84504 16.9116 10.0209Z" fill="white"/>
</svg>
