<svg width="57" height="56" viewBox="0 0 57 56" fill="none" xmlns="http://www.w3.org/2000/svg">
<path fill-rule="evenodd" clip-rule="evenodd" d="M8.49883 0.108474C3.55135 0.878376 0.0430281 4.95859 0.0430281 9.94248C0.0430281 13.8207 2.08325 17.1193 5.53186 18.8168C7.6241 19.8468 10.224 20.1348 12.3438 19.5715C15.8396 18.6424 18.6124 15.8696 19.5414 12.3739C19.8818 11.093 19.8818 8.79193 19.5414 7.51109C18.2444 2.63079 13.3546 -0.647292 8.49883 0.108474ZM44.687 0.108474C40.7331 0.723785 37.5016 3.63557 36.4716 7.51109C35.909 9.62821 36.1963 12.2308 37.2229 14.3165C38.9238 17.7719 42.2193 19.8119 46.1005 19.8119C49.9818 19.8119 53.2773 17.7719 54.9782 14.3165C56.0048 12.2308 56.2921 9.62821 55.7295 7.51109C54.4317 2.62762 49.5459 -0.647745 44.687 0.108474ZM11.643 1.97929C15.3281 2.79047 18.0548 6.17699 18.0548 9.94248C18.0548 14.386 14.356 18.0848 9.91243 18.0848C4.68528 18.0848 0.778778 13.1233 1.99877 8.03401C2.68725 5.16203 5.09342 2.73664 7.95047 2.03459C9.05342 1.76363 10.5605 1.74101 11.643 1.97929ZM48.009 2.02882C51.6088 2.89179 54.2429 6.23557 54.2429 9.94248C54.2429 14.386 50.5441 18.0848 46.1005 18.0848C42.3936 18.0848 39.0499 15.4508 38.1869 11.851C36.7765 5.96744 42.1255 0.618387 48.009 2.02882ZM45.6891 3.74187C45.5368 3.81572 45.2064 4.3668 44.7952 5.23271C44.4365 5.98825 44.1263 6.62675 44.1059 6.65162C44.0733 6.69121 41.5517 7.10906 41.3175 7.11359C41.268 7.11449 41.1026 7.24025 40.95 7.39292C40.4611 7.88168 40.5663 8.13816 41.786 9.432L42.8996 10.6133L42.6474 12.1148C42.3745 13.7391 42.4008 13.9943 42.8717 14.3029C43.2505 14.5512 43.4974 14.4791 44.8429 13.7275C45.452 13.3874 46.018 13.1089 46.1005 13.1089C46.1831 13.1089 46.7557 13.391 47.3728 13.7357C48.7695 14.5159 49.0164 14.5734 49.4318 14.2161C49.812 13.8891 49.8215 13.6065 49.5125 11.8337L49.3 10.6148L50.4144 9.43268C51.627 8.14642 51.7389 7.88055 51.2663 7.40796C51.004 7.1457 50.3847 6.99145 48.9115 6.82137C48.0782 6.72524 48.1597 6.8113 47.4083 5.23362C46.6554 3.65253 46.3755 3.40962 45.6891 3.74187ZM9.00773 5.0615C9.00773 5.52131 8.96657 5.62761 8.75023 5.72611C6.29475 6.84489 6.98809 10.4922 9.71769 10.8154C10.7398 10.9365 11.1678 11.7508 10.5395 12.379C10.0529 12.8657 9.00773 12.5571 9.00773 11.9266C9.00773 11.7834 8.84239 11.7519 8.09047 11.7519H7.1731L7.2517 12.1707C7.41206 13.0251 8.01346 13.8231 8.75023 14.1588C8.96657 14.2573 9.00773 14.3637 9.00773 14.8235V15.3707H9.91243H10.8171V14.8235C10.8171 14.3637 10.8583 14.2573 11.0746 14.1588C13.5301 13.0401 12.8368 9.39276 10.1072 9.06956C9.08508 8.94844 8.65704 8.13421 9.28536 7.506C9.77198 7.01927 10.8171 7.32789 10.8171 7.95835C10.8171 8.10152 10.9825 8.13308 11.7344 8.13308H12.6518L12.5732 7.71431C12.4128 6.85982 11.8114 6.06187 11.0746 5.72611C10.8583 5.62761 10.8171 5.52131 10.8171 5.0615V4.51426H9.91243H9.00773V5.0615ZM26.3823 4.59738C25.9621 4.64081 25.9483 4.65551 26.0148 4.98833C26.0529 5.17854 26.084 5.55682 26.084 5.82891V6.32367H26.9887H27.8934V5.94369C27.8934 5.73459 27.8611 5.32748 27.8215 5.03899L27.7496 4.51426L27.2843 4.53326C27.0284 4.54378 26.6225 4.57262 26.3823 4.59738ZM29.7028 5.281C29.7028 5.65769 29.6727 6.04423 29.636 6.14001C29.5578 6.3438 29.7983 6.4155 30.716 6.46198L31.3334 6.4933L31.4681 5.70169C31.5422 5.2663 31.5698 4.8749 31.5293 4.83204C31.4888 4.78907 31.0612 4.71839 30.5792 4.67507L29.7028 4.59614V5.281ZM23.0872 5.046C22.1395 5.2482 22.2234 5.17945 22.3479 5.65147C22.4045 5.86566 22.5045 6.24881 22.5704 6.5028L22.69 6.96465L23.5106 6.79389C23.9619 6.70003 24.3394 6.61939 24.3495 6.61476C24.3697 6.60548 24.1879 5.50638 24.1001 5.10798C24.0693 4.96809 24.0069 4.85884 23.9615 4.86529C23.916 4.87173 23.5226 4.95304 23.0872 5.046ZM33.3083 5.95613C33.2246 6.37603 33.1553 6.76471 33.1541 6.82001C33.1529 6.87531 33.4064 6.98863 33.7174 7.07186C34.0284 7.15498 34.3865 7.25246 34.5131 7.28842C34.7145 7.34564 34.7757 7.25325 35.0032 6.54668C35.1462 6.10281 35.2403 5.71673 35.2123 5.68868C35.1593 5.63576 33.6592 5.19279 33.5326 5.19279C33.4928 5.19279 33.3918 5.53624 33.3083 5.95613ZM46.4913 7.4438C46.6668 7.81111 46.9178 8.16542 47.0492 8.23112C47.2375 8.32544 48.436 8.58543 48.6822 8.58543C48.7108 8.58543 48.4791 8.85525 48.1672 9.18513C47.4752 9.91681 47.4123 10.0982 47.5642 10.9207C47.75 11.9255 47.7533 11.9214 47.0763 11.534C46.3112 11.0963 45.9167 11.0968 45.1376 11.5365C44.4454 11.9272 44.4498 11.9325 44.6369 10.9207C44.7886 10.0999 44.7254 9.91636 44.0431 9.19497C43.4217 8.53793 43.4153 8.54946 44.4774 8.415C45.1672 8.32759 45.3865 8.14665 45.7523 7.36272C45.9029 7.03997 46.0589 6.77602 46.0991 6.77602C46.1392 6.77602 46.3156 7.0765 46.4913 7.4438ZM49.889 21.5019C49.5158 21.6299 49.1915 21.7509 49.1683 21.7707C49.133 21.8009 49.4875 23.2792 49.5529 23.3745C49.6188 23.4706 51.3059 23.0048 51.2684 22.9008C51.2441 22.8333 51.1326 22.4345 51.0204 22.0146C50.7935 21.1643 50.8278 21.1798 49.889 21.5019ZM5.33102 21.845C5.11445 22.4472 4.96699 23.4178 5.08641 23.4558C5.31959 23.53 6.41225 23.7392 6.5665 23.7392C6.69079 23.7392 7.02654 22.6343 7.02824 22.2193C7.02869 22.1181 5.83222 21.7084 5.52677 21.7052C5.44704 21.7043 5.35895 21.7673 5.33102 21.845ZM25.9342 21.8151C22.4146 22.2605 19.9091 23.2926 16.0368 25.8919C12.7573 28.0934 12.7576 27.9815 16.0242 30.1755C20.5188 33.1946 23.8756 34.3695 28.0065 34.3695C32.1376 34.3695 35.4894 33.1964 39.9842 30.1774C43.2558 27.98 43.2557 28.09 39.9901 25.8977C36.5288 23.5739 34.4274 22.6249 31.4557 22.0439C30.0572 21.7705 27.217 21.6527 25.9342 21.8151ZM27.1018 24.9266V26.2271H28.0065H28.9112V24.9144V23.6016L29.2222 23.6758C30.5884 24.0017 32.0326 25.4465 32.366 26.8208L32.4415 27.1318H31.1286H29.8159V28.0365V28.9412H31.1286H32.4415L32.366 29.2522C32.2073 29.9066 31.7841 30.6043 31.1792 31.2092C30.5743 31.8141 29.8765 32.2373 29.2222 32.3961L28.9112 32.4715V31.1587V29.8459H28.0065H27.1018V31.1587V32.4715L26.7908 32.3961C25.4164 32.0627 23.9716 30.6185 23.6457 29.2522L23.5715 28.9412H24.8844H26.1971V28.0365V27.1318H24.8844H23.5715L23.647 26.8208C23.9552 25.5501 25.1286 24.2643 26.4108 23.7924C27.1178 23.532 27.1018 23.5057 27.1018 24.9266ZM22.5866 24.8418C21.9773 25.837 21.7455 26.7176 21.7455 28.0365C21.7455 29.3555 21.9773 30.2361 22.5866 31.2313C22.7675 31.5268 22.8934 31.7684 22.8666 31.7684C22.6974 31.7684 21.0342 31.1096 20.3731 30.7807C19.4853 30.3389 16.1323 28.1692 16.1323 28.0365C16.1323 27.9101 19.4624 25.7464 20.3165 25.3177C20.9864 24.9815 22.6293 24.3234 22.8317 24.3102C22.8777 24.3071 22.7675 24.5463 22.5866 24.8418ZM34.0216 24.6016C34.4764 24.7649 35.2045 25.0758 35.6399 25.2924C36.5277 25.7342 39.8807 27.9039 39.8807 28.0365C39.8807 28.3332 35.7703 30.7868 34.3394 31.3444C32.9991 31.8666 33.0348 31.8707 33.4208 31.2403C34.5827 29.3426 34.5849 26.7343 33.4263 24.8418C33.2455 24.5463 33.1195 24.3046 33.1463 24.3046C33.1731 24.3046 33.567 24.4383 34.0216 24.6016ZM50.7937 25.0363L50.0021 25.1528L50.0409 26.001C50.0622 26.4674 50.0877 26.8531 50.0974 26.8578C50.1071 26.8626 50.5104 26.8443 50.9935 26.8171L51.8718 26.7677L51.7969 26.0168C51.6825 24.8687 51.7151 24.9006 50.7937 25.0363ZM4.65238 25.4829C4.63247 25.5502 4.58939 25.974 4.5567 26.425L4.49733 27.2449H5.37931H6.26116L6.33625 26.4368C6.37753 25.9924 6.39551 25.6127 6.37606 25.5934C6.25856 25.4759 4.68438 25.375 4.65238 25.4829ZM50.1359 29.5336C50.0981 29.9838 50.1035 30.3845 50.1477 30.4239C50.1921 30.4634 50.5935 30.5244 51.04 30.5594L51.8519 30.6231L51.8882 29.6687L51.9246 28.7145L51.0645 28.7148L50.2045 28.7151L50.1359 29.5336ZM4.82088 29.1328C4.53793 29.1771 4.53612 29.1845 4.60454 30.021C4.64254 30.485 4.69965 30.8908 4.73165 30.9227C4.79792 30.9889 6.28808 30.7938 6.37436 30.7077C6.40546 30.6765 6.39495 30.2917 6.35084 29.8526L6.27066 29.0543L5.68849 29.0713C5.36822 29.0806 4.97784 29.1083 4.82088 29.1328ZM49.6741 33.0304C49.5736 33.4756 49.5126 33.8611 49.5386 33.8871C49.5647 33.9132 49.9461 34.027 50.3865 34.1403L51.187 34.3463L51.3097 33.8908C51.3771 33.6403 51.4413 33.2294 51.4523 32.9778L51.4722 32.5201L50.7372 32.3774C50.3329 32.2989 49.9694 32.2317 49.9296 32.2278C49.8897 32.224 49.7748 32.585 49.6741 33.0304ZM5.76426 32.7141C4.98994 32.8842 4.99254 32.879 5.21793 33.7987C5.43709 34.693 5.41742 34.6831 6.41937 34.4044L7.10729 34.2132L7.04068 33.8107C6.82513 32.5071 6.80105 32.4864 5.76426 32.7141ZM8.49883 36.2966C4.54494 36.9119 1.31346 39.8237 0.283453 43.6992C-0.279159 45.8163 0.00819706 48.4189 1.03481 50.5046C2.73565 53.96 6.03114 56 9.91243 56C13.7937 56 17.0892 53.96 18.7901 50.5046C19.8167 48.4189 20.104 45.8163 19.5414 43.6992C18.2436 38.8157 13.3578 35.5404 8.49883 36.2966ZM44.687 36.2966C40.7331 36.9119 37.5016 39.8237 36.4716 43.6992C35.909 45.8163 36.1963 48.4189 37.2229 50.5046C38.9238 53.96 42.2193 56 46.1005 56C49.9818 56 53.2773 53.96 54.9782 50.5046C56.0048 48.4189 56.2921 45.8163 55.7295 43.6992C54.4325 38.8189 49.5427 35.5408 44.687 36.2966ZM11.8209 38.2169C15.4207 39.0799 18.0548 42.4237 18.0548 46.1306C18.0548 50.5742 14.356 54.2729 9.91243 54.2729C6.20552 54.2729 2.86174 51.6389 1.99877 48.0391C0.588338 42.1556 5.93739 36.8065 11.8209 38.2169ZM47.8311 38.1674C51.5162 38.9786 54.2429 42.3651 54.2429 46.1306C54.2429 50.5742 50.5441 54.2729 46.1005 54.2729C40.8734 54.2729 36.9669 49.3114 38.1869 44.2221C38.8754 41.3501 41.2815 38.9248 44.1386 38.2227C45.2415 37.9517 46.7487 37.9291 47.8311 38.1674ZM42.0706 40.8347C41.5958 41.0645 41.577 41.2809 41.577 46.5317V51.5588H42.4817H43.3864V49.9915V48.4242L44.3194 48.6471C45.4314 48.9128 47.349 48.8714 48.3582 48.56C49.4239 48.231 50.3501 47.739 50.4925 47.4262C50.6719 47.0328 50.6751 41.6167 50.4963 41.2243C50.2707 40.729 49.7935 40.6246 49.1152 40.9223C46.9572 41.8693 45.3574 41.8998 43.3674 41.0314C42.5511 40.6751 42.4359 40.6577 42.0706 40.8347ZM12.6265 46.1306V50.6541H13.5312H14.4359V46.1306V41.6071H13.5312H12.6265V46.1306ZM46.1005 43.3439C47.1408 43.3439 47.8172 43.2885 48.2238 43.1698L48.8202 42.9958L48.7892 44.7611L48.7581 46.5264L47.9665 46.7947C47.3531 47.0024 46.9331 47.0628 46.1005 47.0628C45.268 47.0628 44.848 47.0024 44.2346 46.7947L43.443 46.5264L43.4119 44.7611L43.3809 42.9958L43.9773 43.1698C44.3839 43.2885 45.0603 43.3439 46.1005 43.3439ZM9.00773 47.4877V50.6541H9.91243H10.8171V47.4877V44.3212H9.91243H9.00773V47.4877ZM5.38892 48.3924V50.6541H6.29362H7.19832V48.3924V46.1306H6.29362H5.38892V48.3924ZM21.9438 49.3253L21.7084 50.1452L21.9454 50.2374C22.7033 50.5322 23.4744 50.6335 23.5276 50.4452C23.6411 50.0442 23.84 48.9382 23.8038 48.9092C23.7683 48.8806 22.2911 48.5054 22.2141 48.5054C22.195 48.5054 22.0733 48.8743 21.9438 49.3253ZM33.3499 48.8119C32.5585 48.9973 32.5651 48.9837 32.7718 50.0132C32.9185 50.7437 32.964 50.7617 33.9835 50.4902C34.7606 50.2835 34.7302 50.3465 34.4816 49.4556C34.2349 48.5719 34.2756 48.5951 33.3499 48.8119ZM25.5849 49.5181C25.5551 49.6765 25.4987 50.0656 25.4596 50.3829L25.3888 50.9599L25.9909 51.0322C27.2338 51.1814 27.1814 51.2112 27.2724 50.3047C27.369 49.3434 27.36 49.3328 26.3988 49.2756C25.6599 49.2315 25.638 49.238 25.5849 49.5181ZM29.3918 49.3769C29.1551 49.4225 29.1374 49.4847 29.1374 50.2662V51.1065L29.7876 51.1049C31.0039 51.1021 31.0439 51.0548 30.8749 49.8218L30.8029 49.2971L30.2246 49.3124C29.9065 49.3209 29.5318 49.3499 29.3918 49.3769Z" fill="#FF4F4F"/>
</svg>
