<svg width="506" height="506" viewBox="0 0 506 506" fill="none" xmlns="http://www.w3.org/2000/svg">
<circle cx="253" cy="253" r="253" fill="white" fill-opacity="0.2"/>
<circle cx="253" cy="253" r="207" fill="white"/>
<path d="M174.977 193.686C174.257 195.206 173.129 196.497 171.717 197.412C170.305 198.327 168.666 198.83 166.984 198.865L166.867 199.117V300.531C168.034 300.516 169.191 300.737 170.271 301.179C171.35 301.621 172.33 302.276 173.151 303.105C173.971 303.934 174.617 304.92 175.048 306.004C175.48 307.088 175.689 308.248 175.662 309.414C175.685 310.655 175.445 311.887 174.959 313.029L175.076 313.07L184.445 316.671V197.364L175.07 193.727L174.977 193.686Z" fill="#D4E1F4"/>
<path d="M351.631 190.539C351.619 187.87 350.75 185.276 349.153 183.138C347.555 181 345.313 179.432 342.757 178.664C340.201 177.896 337.465 177.969 334.954 178.873C332.443 179.777 330.288 181.463 328.807 183.684L265.398 163.176C265.403 163.037 265.411 162.9 265.411 162.76C265.411 159.47 264.104 156.314 261.777 153.988C259.451 151.661 256.295 150.354 253.005 150.354C249.714 150.354 246.559 151.661 244.232 153.988C241.905 156.314 240.598 159.47 240.598 162.76C240.598 162.9 240.614 163.037 240.619 163.176L177.506 183.588C176.405 181.757 174.85 180.242 172.992 179.189C171.133 178.136 169.033 177.581 166.897 177.578C163.596 177.577 160.427 178.88 158.081 181.203C155.735 183.525 154.401 186.681 154.369 189.982C154.342 192.684 155.208 195.32 156.832 197.48C158.456 199.64 160.748 201.203 163.352 201.927V297.473C160.748 298.197 158.456 299.76 156.831 301.92C155.207 304.08 154.341 306.716 154.369 309.418C154.38 311.973 155.177 314.463 156.651 316.549C158.125 318.636 160.205 320.22 162.608 321.085C165.012 321.95 167.624 322.056 170.09 321.387C172.556 320.719 174.756 319.308 176.394 317.347L240.613 342.111C240.602 342.324 240.588 342.533 240.588 342.748C240.588 346.038 241.895 349.194 244.222 351.521C246.549 353.848 249.704 355.155 252.995 355.155C256.285 355.155 259.441 353.848 261.768 351.521C264.094 349.194 265.401 346.038 265.401 342.748C265.401 342.531 265.381 342.32 265.37 342.104L329.154 317.349C330.304 318.906 331.803 320.172 333.531 321.045C335.259 321.918 337.167 322.373 339.102 322.375C342.404 322.376 345.572 321.074 347.918 318.751C350.264 316.428 351.598 313.273 351.63 309.971C351.658 307.269 350.792 304.633 349.168 302.473C347.544 300.313 345.252 298.749 342.648 298.025V202.482C345.252 201.758 347.544 200.195 349.168 198.036C350.792 195.876 351.658 193.241 351.631 190.539ZM335.617 245.038L303.391 257.53V208.247L329.523 198.098C331.054 200.079 332.687 201.592 335.617 202.364V245.038ZM243.139 216.375L216.517 206.044L255.637 192.429L290.186 205.754L262.864 216.374C261.712 214.848 260.222 213.611 258.511 212.759C256.8 211.907 254.914 211.463 253.003 211.463C251.091 211.463 249.206 211.907 247.495 212.759C245.784 213.611 244.293 214.848 243.142 216.374L243.139 216.375ZM170.383 201.808C172.625 201.124 174.618 199.799 176.116 197.997L202.609 208.271V257.53L170.383 245.038V201.808ZM179.189 191.554C179.237 191.175 179.266 190.793 179.279 190.401L217.951 177.894L245.485 188.513L206.403 202.116L179.189 191.554ZM253 218.495C254.063 218.495 255.101 218.81 255.985 219.401C256.868 219.991 257.557 220.83 257.963 221.812C258.37 222.793 258.477 223.874 258.269 224.916C258.062 225.958 257.55 226.915 256.799 227.667C256.048 228.418 255.09 228.93 254.048 229.137C253.006 229.344 251.926 229.238 250.944 228.831C249.962 228.425 249.123 227.736 248.533 226.853C247.943 225.969 247.628 224.93 247.628 223.868C247.629 222.443 248.196 221.078 249.203 220.071C250.21 219.063 251.576 218.497 253 218.495ZM256.516 235.756C259.079 234.996 261.329 233.428 262.931 231.286C264.532 229.144 265.399 226.542 265.404 223.868C265.404 223.557 265.486 223.252 265.462 222.947L296.359 210.979V260.257L256.516 275.637V235.756ZM339.103 185.165C340.165 185.165 341.204 185.48 342.088 186.07C342.971 186.661 343.66 187.5 344.066 188.481C344.473 189.463 344.579 190.543 344.372 191.585C344.165 192.628 343.653 193.585 342.902 194.336C342.15 195.088 341.193 195.599 340.151 195.807C339.109 196.014 338.029 195.907 337.047 195.501C336.065 195.094 335.226 194.406 334.636 193.522C334.046 192.639 333.73 191.6 333.73 190.537C333.732 189.113 334.299 187.747 335.306 186.74C336.313 185.733 337.679 185.166 339.103 185.165ZM326.75 191.541L299.914 201.971L265.904 188.854L292.889 179.465L326.706 190.401C326.706 190.448 326.699 190.493 326.699 190.539C326.699 190.876 326.723 191.209 326.75 191.541ZM253 157.39C254.063 157.39 255.101 157.705 255.985 158.295C256.868 158.885 257.557 159.724 257.963 160.706C258.37 161.688 258.477 162.768 258.269 163.81C258.062 164.852 257.55 165.81 256.799 166.561C256.048 167.312 255.09 167.824 254.048 168.031C253.006 168.239 251.926 168.132 250.944 167.726C249.962 167.319 249.123 166.63 248.533 165.747C247.943 164.863 247.628 163.825 247.628 162.762C247.629 161.338 248.196 159.972 249.203 158.965C250.21 157.958 251.576 157.391 253 157.39ZM253 175.166C254.997 175.165 256.964 174.68 258.734 173.755C260.504 172.829 262.024 171.49 263.164 169.85L281.801 175.877L255.759 184.942L228.582 174.46L242.836 169.85C243.976 171.49 245.496 172.829 247.266 173.755C249.036 174.68 251.003 175.165 253 175.166ZM161.525 189.982C161.525 188.919 161.84 187.881 162.43 186.997C163.02 186.114 163.859 185.425 164.841 185.018C165.823 184.612 166.903 184.505 167.945 184.713C168.987 184.92 169.945 185.432 170.696 186.183C171.447 186.934 171.959 187.892 172.166 188.934C172.374 189.976 172.267 191.056 171.861 192.038C171.454 193.019 170.765 193.859 169.882 194.449C168.998 195.039 167.96 195.354 166.897 195.354C165.473 195.353 164.107 194.786 163.1 193.779C162.093 192.772 161.526 191.406 161.525 189.982ZM166.897 314.787C165.834 314.787 164.796 314.471 163.912 313.881C163.029 313.291 162.34 312.452 161.934 311.47C161.527 310.488 161.421 309.408 161.628 308.366C161.835 307.324 162.347 306.367 163.098 305.615C163.85 304.864 164.807 304.352 165.849 304.145C166.891 303.938 167.971 304.044 168.953 304.451C169.935 304.857 170.774 305.546 171.364 306.429C171.954 307.313 172.27 308.351 172.27 309.414C172.268 310.839 171.702 312.204 170.694 313.212C169.687 314.219 168.322 314.786 166.897 314.788V314.787ZM170.383 297.59V252.58L202.609 265.073V319.989L179.1 310.88C179.136 310.393 179.144 309.904 179.123 309.415C179.154 306.761 178.317 304.169 176.74 302.034C175.162 299.899 172.93 298.339 170.383 297.59ZM209.641 322.703V267.802L216.454 270.405L218.945 263.85L209.641 260.259V211L240.537 222.949C240.514 223.253 240.543 223.558 240.543 223.868C240.558 226.547 241.436 229.15 243.047 231.292C244.657 233.433 246.914 234.998 249.484 235.756V275.639L237.725 271.076L235.18 277.631L249.484 283.182V330.856C246.834 331.635 244.509 333.257 242.863 335.476L209.641 322.703ZM253 348.119C251.937 348.119 250.899 347.804 250.015 347.213C249.132 346.623 248.443 345.784 248.036 344.802C247.63 343.821 247.523 342.74 247.731 341.698C247.938 340.656 248.45 339.699 249.201 338.947C249.952 338.196 250.91 337.684 251.952 337.477C252.994 337.27 254.074 337.376 255.056 337.783C256.038 338.189 256.877 338.878 257.467 339.762C258.057 340.645 258.372 341.684 258.372 342.746C258.371 344.17 257.804 345.536 256.797 346.543C255.79 347.55 254.424 348.116 253 348.118V348.119ZM256.516 330.858V283.182L296.359 267.802V322.616L263.131 335.471C261.486 333.255 259.163 331.635 256.516 330.856V330.858ZM303.391 319.889V265.074L335.617 252.582V298.145C333.065 298.891 330.825 300.45 329.238 302.584C327.651 304.718 326.804 307.312 326.824 309.971C326.824 310.233 326.891 310.488 326.907 310.745L303.391 319.889ZM344.475 309.971C344.475 311.034 344.161 312.073 343.57 312.956C342.98 313.84 342.141 314.528 341.159 314.935C340.178 315.342 339.097 315.448 338.055 315.241C337.013 315.034 336.056 314.522 335.304 313.771C334.553 313.02 334.041 312.062 333.834 311.02C333.626 309.978 333.733 308.898 334.139 307.916C334.546 306.934 335.235 306.095 336.118 305.505C337.002 304.915 338.04 304.599 339.103 304.599C340.527 304.601 341.892 305.167 342.899 306.174C343.907 307.181 344.473 308.546 344.475 309.97V309.971Z" fill="#FF4F4F"/>
<path d="M326.024 323.601L324.346 324.265C323.912 324.431 323.515 324.682 323.179 325.002C322.842 325.323 322.573 325.707 322.386 326.132C322.198 326.558 322.098 327.016 322.089 327.481C322.08 327.945 322.163 328.407 322.334 328.839C322.505 329.271 322.76 329.665 323.084 329.999C323.408 330.332 323.794 330.597 324.222 330.78C324.649 330.963 325.108 331.059 325.573 331.063C326.038 331.067 326.499 330.979 326.929 330.804L328.608 330.14C329.042 329.974 329.438 329.723 329.775 329.403C330.111 329.082 330.381 328.698 330.568 328.273C330.755 327.847 330.856 327.389 330.864 326.924C330.873 326.46 330.79 325.998 330.619 325.566C330.448 325.134 330.194 324.74 329.87 324.406C329.546 324.073 329.159 323.808 328.732 323.625C328.304 323.442 327.845 323.346 327.38 323.342C326.916 323.338 326.455 323.426 326.024 323.601Z" fill="#FF4F4F"/>
<path d="M312.757 328.843L279.848 341.844C279.414 342.01 279.018 342.261 278.681 342.582C278.345 342.902 278.075 343.286 277.888 343.712C277.701 344.137 277.6 344.595 277.591 345.06C277.583 345.525 277.666 345.986 277.837 346.418C278.008 346.851 278.262 347.245 278.586 347.578C278.91 347.911 279.297 348.177 279.724 348.359C280.152 348.542 280.611 348.638 281.076 348.642C281.54 348.646 282.001 348.558 282.432 348.383L315.344 335.383C316.211 335.04 316.907 334.367 317.277 333.512C317.648 332.656 317.664 331.688 317.322 330.821C316.979 329.954 316.306 329.258 315.45 328.887C314.595 328.516 313.627 328.501 312.76 328.843L312.757 328.843Z" fill="#FF4F4F"/>
<path d="M267.846 128.952C281.472 130.653 294.588 135.202 306.342 142.302L291.928 150.658C291.121 151.125 290.533 151.894 290.294 152.795C290.054 153.696 290.182 154.656 290.649 155.463C291.117 156.269 291.886 156.857 292.787 157.097C293.688 157.337 294.647 157.209 295.454 156.741L317.127 144.179C317.527 143.947 317.877 143.639 318.158 143.272C318.438 142.905 318.643 142.486 318.762 142.039C318.881 141.593 318.91 141.127 318.849 140.669C318.787 140.212 318.636 139.77 318.404 139.371L305.812 117.699C305.344 116.893 304.574 116.306 303.673 116.067C302.772 115.828 301.812 115.957 301.006 116.426C300.2 116.894 299.613 117.664 299.374 118.565C299.135 119.467 299.264 120.426 299.733 121.232L307.701 134.943C295.683 128.094 282.43 123.687 268.703 121.974C268.243 121.914 267.776 121.946 267.329 122.068C266.882 122.19 266.463 122.399 266.097 122.683C265.731 122.967 265.424 123.321 265.195 123.724C264.966 124.127 264.819 124.571 264.763 125.031C264.706 125.491 264.741 125.958 264.865 126.404C264.99 126.851 265.201 127.268 265.488 127.633C265.774 127.997 266.13 128.302 266.535 128.528C266.939 128.754 267.384 128.899 267.845 128.952H267.846Z" fill="#090E36"/>
<path d="M242.144 129.245C242.314 129.245 242.485 129.233 242.654 129.208C246.459 128.656 250.294 128.339 254.138 128.256C254.6 128.246 255.055 128.146 255.478 127.96C255.9 127.774 256.282 127.507 256.602 127.174C256.921 126.84 257.172 126.447 257.34 126.017C257.507 125.587 257.589 125.128 257.579 124.666C257.569 124.204 257.468 123.749 257.283 123.326C257.097 122.903 256.83 122.521 256.496 122.202C256.163 121.882 255.77 121.632 255.34 121.464C254.909 121.296 254.45 121.215 253.988 121.225C249.855 121.313 245.731 121.655 241.64 122.248C240.76 122.375 239.96 122.83 239.402 123.522C238.845 124.214 238.57 125.092 238.633 125.979C238.697 126.866 239.094 127.696 239.745 128.302C240.396 128.907 241.252 129.244 242.141 129.244L242.144 129.245Z" fill="#090E36"/>
<path d="M190.64 153.967C191.524 153.968 192.375 153.635 193.024 153.034C199.11 147.398 205.912 142.587 213.253 138.726C216.975 136.776 220.827 135.085 224.781 133.663C225.219 133.51 225.622 133.271 225.968 132.961C226.313 132.651 226.593 132.276 226.793 131.857C226.992 131.438 227.107 130.984 227.13 130.52C227.153 130.057 227.084 129.594 226.927 129.157C226.77 128.72 226.529 128.319 226.216 127.976C225.903 127.633 225.526 127.356 225.105 127.16C224.685 126.963 224.23 126.852 223.766 126.833C223.302 126.813 222.84 126.886 222.404 127.046C218.146 128.576 213.998 130.397 209.99 132.496C202.102 136.644 194.794 141.812 188.254 147.868C187.734 148.347 187.371 148.973 187.212 149.662C187.054 150.352 187.107 151.073 187.364 151.732C187.622 152.39 188.072 152.956 188.657 153.355C189.241 153.754 189.932 153.967 190.639 153.967H190.64Z" fill="#090E36"/>
<path d="M238.154 377.048C224.528 375.347 211.412 370.798 199.658 363.698L214.072 355.342C214.879 354.875 215.467 354.106 215.706 353.205C215.946 352.304 215.818 351.344 215.351 350.538C214.883 349.731 214.114 349.143 213.213 348.903C212.312 348.663 211.353 348.791 210.546 349.259L188.873 361.821C188.473 362.053 188.123 362.361 187.842 362.728C187.562 363.095 187.356 363.514 187.238 363.961C187.119 364.407 187.09 364.873 187.151 365.331C187.213 365.788 187.364 366.23 187.596 366.629L200.188 388.301C200.42 388.7 200.728 389.049 201.095 389.329C201.462 389.609 201.881 389.814 202.327 389.933C202.773 390.051 203.239 390.08 203.696 390.019C204.154 389.957 204.595 389.806 204.994 389.574C205.393 389.342 205.743 389.034 206.023 388.667C206.303 388.3 206.508 387.881 206.626 387.435C206.744 386.989 206.773 386.523 206.712 386.066C206.65 385.608 206.499 385.167 206.267 384.768L198.299 371.057C210.317 377.906 223.57 382.313 237.297 384.026C237.441 384.044 237.586 384.052 237.73 384.053C238.625 384.051 239.486 383.709 240.137 383.095C240.788 382.482 241.181 381.643 241.235 380.75C241.289 379.857 241 378.977 240.428 378.289C239.856 377.601 239.043 377.157 238.155 377.048H238.154Z" fill="#090E36"/>
<path d="M263.346 376.792C259.541 377.344 255.706 377.661 251.862 377.744C250.93 377.753 250.039 378.133 249.387 378.799C248.734 379.466 248.373 380.364 248.383 381.296C248.393 382.228 248.772 383.119 249.439 383.771C250.105 384.424 251.003 384.785 251.935 384.775H252.011C256.145 384.687 260.269 384.345 264.36 383.752C265.278 383.613 266.104 383.116 266.657 382.37C267.21 381.624 267.446 380.689 267.312 379.77C267.179 378.851 266.687 378.022 265.944 377.465C265.202 376.907 264.269 376.666 263.349 376.794L263.346 376.792Z" fill="#090E36"/>
<path d="M312.976 352.966C306.89 358.602 300.089 363.413 292.747 367.274C289.025 369.224 285.173 370.915 281.219 372.337C280.781 372.49 280.378 372.729 280.032 373.039C279.687 373.349 279.407 373.724 279.207 374.143C279.008 374.562 278.893 375.016 278.87 375.48C278.847 375.943 278.916 376.406 279.073 376.843C279.23 377.28 279.471 377.681 279.784 378.024C280.097 378.367 280.474 378.644 280.895 378.84C281.315 379.037 281.77 379.148 282.234 379.167C282.698 379.187 283.161 379.114 283.596 378.954C287.854 377.424 292.002 375.603 296.01 373.505C303.899 369.357 311.208 364.189 317.748 358.134C318.088 357.821 318.362 357.444 318.556 357.025C318.749 356.606 318.858 356.153 318.877 355.691C318.895 355.23 318.823 354.769 318.663 354.336C318.504 353.903 318.26 353.505 317.947 353.166C317.634 352.827 317.257 352.553 316.838 352.359C316.419 352.165 315.966 352.056 315.504 352.038C315.043 352.019 314.582 352.092 314.149 352.251C313.716 352.411 313.318 352.654 312.979 352.967L312.976 352.966Z" fill="#090E36"/>
<path d="M342.648 209.579V216.715C382.288 223.668 393.039 232.977 393.039 237.509C393.039 239.999 390.168 242.958 384.949 245.84C378.877 249.196 370.023 252.285 358.631 255.017C335.11 260.663 302.99 264.212 268.19 265.012C267.257 265.022 266.367 265.403 265.715 266.069C265.063 266.736 264.703 267.635 264.714 268.567C264.724 269.499 265.105 270.389 265.771 271.041C266.438 271.693 267.336 272.053 268.269 272.043H268.351C303.635 271.232 336.28 267.614 360.272 261.856C386.68 255.52 400.07 247.325 400.07 237.509C400.07 229.2 389.998 217.696 342.648 209.579Z" fill="#090E36"/>
<path d="M248.88 264.899L219.66 247.113C219.128 246.789 218.519 246.612 217.896 246.602C217.272 246.591 216.657 246.747 216.114 247.052C215.571 247.358 215.12 247.803 214.806 248.342C214.492 248.88 214.327 249.493 214.328 250.116V264.031C185.617 262.278 159.827 258.547 141.289 253.456C120.406 247.721 112.964 241.458 112.964 237.509C112.964 231.466 128.596 222.833 163.354 216.719V209.579C116.003 217.696 105.93 229.2 105.93 237.509C105.93 246.486 117.204 254.133 139.427 260.236C158.51 265.48 185.031 269.304 214.328 271.076V285.687C214.327 286.31 214.492 286.922 214.806 287.461C215.12 287.999 215.572 288.444 216.115 288.75C216.658 289.055 217.273 289.211 217.896 289.201C218.519 289.19 219.128 289.014 219.66 288.69L248.879 270.905C249.394 270.591 249.82 270.15 250.115 269.624C250.411 269.098 250.566 268.505 250.566 267.902C250.566 267.298 250.411 266.705 250.115 266.179C249.82 265.653 249.394 265.212 248.879 264.899H248.88ZM221.359 279.432V256.371L240.302 267.902L221.359 279.432Z" fill="#090E36"/>
</svg>
