<svg width="80" height="80" viewBox="0 0 80 80" fill="none" xmlns="http://www.w3.org/2000/svg">
<g clip-path="url(#clip0)">
<path d="M68.7556 -1.52588e-05H65.3161C63.8042 -1.52588e-05 63.8042 2.34407 65.3161 2.34407H68.7556C72.3077 2.34407 75.1977 5.22355 75.1977 8.76281V35.8874C75.1977 39.4268 72.3079 42.3063 68.7556 42.3063H64.8546C64.5972 42.3063 64.347 42.391 64.1425 42.5474L56.9843 48.0229V43.4783C56.9843 42.831 56.4597 42.3063 55.8122 42.3063H41.5477C40.3795 42.3063 39.2569 41.9979 38.2667 41.4118V28.2548C38.2667 25.7904 37.0115 23.6131 35.1055 22.3249V8.76281C35.1055 5.22355 37.9954 2.34407 41.5477 2.34407H57.9713C59.4831 2.34407 59.4831 -1.52588e-05 57.9713 -1.52588e-05H41.5477C36.7029 -1.52588e-05 32.7614 3.93102 32.7614 8.76281V21.2948C32.2247 21.1666 31.6656 21.0968 31.0902 21.0968H9.6346C5.67762 21.0968 2.45825 24.3079 2.45825 28.2548V30.7857C2.45825 32.2975 4.80234 32.2975 4.80234 30.7857V28.2548C4.80234 25.6004 6.97 23.4409 9.6346 23.4409H31.0904C33.755 23.4409 35.9228 25.6004 35.9228 28.2548V41.8784C35.9087 41.9818 35.9093 42.0861 35.9228 42.1887V49.6448C35.9228 49.7922 35.9139 49.9389 35.9006 50.0849H33.4835C30.8202 50.0849 28.5998 52.0072 28.1395 54.5336C28.0329 54.5738 27.9305 54.6299 27.8357 54.7031L22.5935 58.7507V55.6308C22.5935 54.9836 22.0689 54.4588 21.4215 54.4588H9.6346C6.97 54.4588 4.80234 52.2993 4.80234 49.6448V37.818C4.80234 36.3062 2.45825 36.3062 2.45825 37.818V49.645C2.45825 53.592 5.67762 56.803 9.6346 56.803H20.2496V61.1365C20.2496 62.0766 21.3911 62.6406 22.138 62.0643L28.0505 57.4991V70.6846C28.0505 73.6733 30.4879 76.1046 33.4837 76.1046H40.6761V78.8395C40.6761 79.7793 41.8177 80.3439 42.5644 79.7673L47.3082 76.1046H48.7096C51.7054 76.1046 54.1428 73.6731 54.1428 70.6846V68.6037C54.1428 67.0919 51.7987 67.0919 51.7987 68.6037V70.6846C51.7987 72.3808 50.413 73.7605 48.7096 73.7605H46.9083C46.649 73.7605 46.3971 73.8464 46.1921 74.0047L43.0201 76.4537V74.9324C43.0201 74.2851 42.4954 73.7603 41.848 73.7603H33.4835C31.7803 73.7603 30.3945 72.3804 30.3945 70.6844V55.505C30.3945 53.8089 31.7801 52.4291 33.4835 52.4291H48.7096C50.4128 52.4291 51.7987 53.809 51.7987 55.505V61.2588C51.7987 62.7706 54.1428 62.7706 54.1428 61.2588V55.5052C54.1428 52.5165 51.7054 50.0852 48.7096 50.0852H38.2534C38.2623 49.9388 38.2669 44.019 38.2669 44.019C39.3003 44.4345 40.4083 44.6505 41.5478 44.6505H54.6403V50.3951C54.6403 51.3329 55.7771 51.8975 56.5245 51.326L65.2517 44.6505H68.7558C73.6004 44.6505 77.5419 40.7195 77.5419 35.8875V8.76281C77.5418 3.93102 73.6003 -1.52588e-05 68.7556 -1.52588e-05V-1.52588e-05Z" fill="white"/>
<path d="M58.0803 8.65937C56.5921 8.27947 55.0757 9.45527 55.0757 10.993C55.0757 12.6731 54.4634 14.2922 53.3524 15.5513L50.1232 19.2054C49.9141 18.8846 49.5528 18.6722 49.1414 18.6722H42.8373C42.1899 18.6722 41.6653 19.197 41.6653 19.8443V34.0284C41.6653 34.6756 42.1899 35.2004 42.8373 35.2004H49.1414C49.615 35.2004 50.022 34.919 50.2068 34.5148C51.4831 35.2946 52.9621 35.7163 54.4668 35.7163H65.6078C67.3102 35.7163 68.7147 34.239 68.6348 32.5409C68.5993 31.789 68.6381 21.6917 68.6381 21.4675C68.6381 19.7966 67.2787 18.437 65.6112 18.437L59.8178 18.4197L60.0576 17.8516C61.1539 15.2555 60.9734 12.245 59.5754 9.79828C59.2491 9.22664 58.7179 8.82236 58.0803 8.65937C57.4424 8.49653 58.7179 8.82236 58.0803 8.65937C56.5923 8.27947 58.7179 8.82236 58.0803 8.65937V8.65937ZM47.9693 32.8563H44.0094V21.0163H47.9693V32.8563ZM65.6078 20.781C65.9863 20.781 66.2942 21.0888 66.2942 21.4673C66.2942 21.6903 66.2918 22.2956 66.2887 23.1161C66.2713 27.6468 66.2598 31.9377 66.2932 32.651C66.3054 32.9083 66.1802 33.0799 66.1046 33.1593C65.9736 33.2965 65.7972 33.372 65.6078 33.372H54.4668C53.1388 33.372 51.8391 32.9118 50.8068 32.0762L50.3134 31.6768V22.53L55.1096 17.1028C56.5993 15.4144 57.4197 13.2446 57.4197 10.9928C57.4197 10.9266 57.5102 10.9094 57.5402 10.961C58.5782 12.7773 58.712 15.0122 57.8983 16.9395L56.9733 19.1303C56.8206 19.4917 56.859 19.9054 57.0752 20.2326C57.2916 20.5598 57.6573 20.7571 58.0494 20.7583L65.6078 20.781Z" fill="white"/>
<path d="M12.4941 40.7087C11.8466 40.7087 11.322 41.2335 11.322 41.8807C11.322 42.528 11.8466 43.0528 12.4941 43.0528H15.9489L15.3035 46.9563C15.1979 47.5948 15.6301 48.1982 16.2687 48.3039C16.3335 48.3146 16.3978 48.3198 16.4612 48.3198C17.0244 48.3198 17.5212 47.9127 17.6162 47.3387L18.3248 43.0529H21.1522L20.5068 46.9565C20.4011 47.595 20.8334 48.1984 21.4719 48.304C21.5368 48.3148 21.601 48.3199 21.6645 48.3199C22.2277 48.3199 22.7245 47.9129 22.8195 47.3389L23.528 43.0531H28.2307C28.8782 43.0531 29.4028 42.5283 29.4028 41.881C29.4028 41.2338 28.8782 40.709 28.2307 40.709H23.9156L24.3883 37.8498H28.2307C28.8782 37.8498 29.4028 37.3251 29.4028 36.6778C29.4028 36.0305 28.8782 35.5057 28.2307 35.5057H24.7758L25.4212 31.6022C25.5269 30.9637 25.0946 30.3603 24.4561 30.2547C23.8168 30.1487 23.2142 30.5813 23.1086 31.2198L22.4 35.5056H19.5726L20.218 31.6021C20.3236 30.9635 19.8914 30.3602 19.2529 30.2545C18.6128 30.1486 18.0111 30.5811 17.9053 31.2197L17.1968 35.5054H12.4941C11.8466 35.5054 11.322 36.0302 11.322 36.6775C11.322 37.3248 11.8466 37.8495 12.4941 37.8495H16.8092L16.3365 40.7087H12.4941ZM19.1852 37.8495H22.0126L21.5399 40.7087H18.7125L19.1852 37.8495Z" fill="white"/>
<path d="M41.0825 58.4766C40.1361 57.6974 38.877 57.39 37.614 57.6971C35.9955 58.0901 34.3623 59.6031 34.3623 62.0971C34.3623 63.6493 34.9288 64.9967 36.0941 66.2163C37.046 67.2125 38.4196 68.1598 40.5477 69.2881C40.7195 69.3792 40.9081 69.4247 41.0967 69.4247C41.2853 69.4247 41.474 69.3792 41.6457 69.2881C45.3584 67.3199 47.831 65.3438 47.831 62.0971C47.831 59.5895 46.1398 58.092 44.4636 57.7202C43.2044 57.4408 41.9836 57.7374 41.0825 58.4766V58.4766ZM45.4867 62.0971C45.4867 63.8483 44.3252 65.1433 41.0966 66.9206C37.868 65.1432 36.7062 63.8481 36.7062 62.0971C36.7062 60.7941 37.4607 60.1465 38.1669 59.9749C38.2971 59.9433 38.4365 59.9255 38.5798 59.9255C39.111 59.9255 39.695 60.1709 40.055 60.8689C40.2602 61.2662 40.6749 61.5125 41.1198 61.5033C41.5666 61.4943 41.9697 61.2321 42.1586 60.8271C42.5379 60.0141 43.3355 59.8711 43.9556 60.0088C44.696 60.1727 45.4867 60.8077 45.4867 62.0971V62.0971Z" fill="white"/>
</g>
<defs>
<clipPath id="clip0">
<rect width="80" height="80" fill="white"/>
</clipPath>
</defs>
</svg>
