<svg width="40" height="40" viewBox="0 0 40 40" fill="none" xmlns="http://www.w3.org/2000/svg">
<path d="M1.66663 35H8.33329V15H1.66663V35ZM38.3333 16.6667C38.3333 14.8333 36.8333 13.3333 35 13.3333H24.4833L26.0666 5.71667L26.1166 5.18334C26.1166 4.5 25.8333 3.86667 25.3833 3.41667L23.6166 1.66667L12.65 12.65C12.0333 13.25 11.6666 14.0833 11.6666 15V31.6667C11.6666 33.5 13.1666 35 15 35H30C31.3833 35 32.5666 34.1667 33.0666 32.9667L38.1 21.2167C38.25 20.8333 38.3333 20.4333 38.3333 20V16.6667Z" fill="#FF4F4F"/>
</svg>
