<svg width="80" height="80" viewBox="0 0 80 80" fill="none" xmlns="http://www.w3.org/2000/svg">
<path d="M71.7969 6.81641H8.20312C3.67984 6.81641 0 10.4963 0 15.0195V54.8438C0 56.3553 2.34375 56.3553 2.34375 54.8438V21.6211H77.6562V64.9805C77.6562 68.2114 75.0278 70.8398 71.7969 70.8398H71.4844V55.4688C71.4844 54.8216 70.9597 54.2969 70.3125 54.2969H43.125C42.4778 54.2969 41.9531 54.8216 41.9531 55.4688V70.8398H8.20312C4.97219 70.8398 2.34375 68.2114 2.34375 64.9805V61.0938C2.34375 59.5822 0 59.5822 0 61.0938V64.9805C0 69.5037 3.67984 73.1836 8.20312 73.1836H43.125H70.3125H71.7969C76.3202 73.1836 80 69.5037 80 64.9805V15.0195C80 10.4963 76.3202 6.81641 71.7969 6.81641ZM44.2969 70.8398V56.6406H69.1406V70.8398H44.2969ZM2.34375 19.2773V15.0195C2.34375 11.7886 4.97219 9.16016 8.20312 9.16016H71.7969C75.0278 9.16016 77.6562 11.7886 77.6562 15.0195V19.2773H2.34375Z" fill="white"/>
<path d="M9.76562 12.4023C8.55938 12.4023 7.57812 13.3836 7.57812 14.5898C7.57812 15.7961 8.55938 16.7773 9.76562 16.7773C10.9719 16.7773 11.9531 15.7961 11.9531 14.5898C11.9531 13.3836 10.9719 12.4023 9.76562 12.4023ZM9.76562 14.7461C9.67953 14.7461 9.60938 14.6759 9.60938 14.5898C9.60938 14.5038 9.67953 14.4336 9.76562 14.4336C9.85172 14.4336 9.92188 14.5038 9.92188 14.5898C9.92188 14.6759 9.85172 14.7461 9.76562 14.7461Z" fill="white"/>
<path d="M17.2656 12.4023C16.0594 12.4023 15.0781 13.3836 15.0781 14.5898C15.0781 15.7961 16.0594 16.7773 17.2656 16.7773C18.4719 16.7773 19.4531 15.7961 19.4531 14.5898C19.4531 13.3836 18.4719 12.4023 17.2656 12.4023ZM17.2656 14.7461C17.1795 14.7461 17.1094 14.6759 17.1094 14.5898C17.1094 14.5038 17.1795 14.4336 17.2656 14.4336C17.3517 14.4336 17.4219 14.5038 17.4219 14.5898C17.4219 14.6759 17.3517 14.7461 17.2656 14.7461Z" fill="white"/>
<path d="M24.7656 12.4023C23.5594 12.4023 22.5781 13.3836 22.5781 14.5898C22.5781 15.7961 23.5594 16.7773 24.7656 16.7773C25.9719 16.7773 26.9531 15.7961 26.9531 14.5898C26.9531 13.3836 25.9719 12.4023 24.7656 12.4023ZM24.7656 14.7461C24.6795 14.7461 24.6094 14.6759 24.6094 14.5898C24.6094 14.5038 24.6795 14.4336 24.7656 14.4336C24.8517 14.4336 24.9219 14.5038 24.9219 14.5898C24.9219 14.6759 24.8517 14.7461 24.7656 14.7461Z" fill="white"/>
<path d="M70.4688 34.1406C71.1159 34.1406 71.6406 33.6159 71.6406 32.9688V27.9883C71.6406 27.3411 71.1159 26.8164 70.4688 26.8164H8.75C8.10281 26.8164 7.57812 27.3411 7.57812 27.9883V48.9062C7.57812 49.5534 8.10281 50.0781 8.75 50.0781H70.4688C71.1159 50.0781 71.6406 49.5534 71.6406 48.9062V39.2188C71.6406 37.7072 69.2969 37.7072 69.2969 39.2188V47.7344H36.1169L54.7333 29.1895C54.7428 29.18 54.7509 29.1698 54.76 29.1602H69.2969V32.9688C69.2969 33.6159 69.8216 34.1406 70.4688 34.1406ZM32.7959 47.7344H9.92188V29.1602H51.4419L32.7959 47.7344Z" fill="white"/>
<path d="M63.7499 35.2344H57.1093C55.5977 35.2344 55.5977 37.5781 57.1093 37.5781H63.7499C65.2615 37.5781 65.2615 35.2344 63.7499 35.2344Z" fill="white"/>
<path d="M63.7499 40.3906H50.8593C49.3477 40.3906 49.3477 42.7344 50.8593 42.7344H63.7499C65.2614 42.7344 65.2614 40.3906 63.7499 40.3906Z" fill="white"/>
<path d="M8.74988 56.6406H34.3749C35.8864 56.6406 35.8864 54.2969 34.3749 54.2969H8.74988C7.23832 54.2969 7.23832 56.6406 8.74988 56.6406Z" fill="white"/>
<path d="M8.74988 61.9531H34.3749C35.8864 61.9531 35.8864 59.6094 34.3749 59.6094H8.74988C7.23832 59.6094 7.23832 61.9531 8.74988 61.9531Z" fill="white"/>
<path d="M8.74988 67.2656H34.3749C35.8864 67.2656 35.8864 64.9219 34.3749 64.9219H8.74988C7.23832 64.9219 7.23832 67.2656 8.74988 67.2656Z" fill="white"/>
</svg>
